<?xml version="1.0" encoding="utf-8" standalone="no"?>
<!DOCTYPE svg PUBLIC "-//W3C//DTD SVG 1.1//EN"
  "http://www.w3.org/Graphics/SVG/1.1/DTD/svg11.dtd">
<svg xmlns:xlink="http://www.w3.org/1999/xlink" width="1000.78625pt" height="352.764562pt" viewBox="0 0 1000.78625 352.764562" xmlns="http://www.w3.org/2000/svg" version="1.1">
 <metadata>
  <rdf:RDF xmlns:dc="http://purl.org/dc/elements/1.1/" xmlns:cc="http://creativecommons.org/ns#" xmlns:rdf="http://www.w3.org/1999/02/22-rdf-syntax-ns#">
   <cc:Work>
    <dc:type rdf:resource="http://purl.org/dc/dcmitype/StillImage"/>
    <dc:date>2026-04-09T09:22:09.312335</dc:date>
    <dc:format>image/svg+xml</dc:format>
    <dc:creator>
     <cc:Agent>
      <dc:title>Matplotlib v3.10.8, https://matplotlib.org/</dc:title>
     </cc:Agent>
    </dc:creator>
   </cc:Work>
  </rdf:RDF>
 </metadata>
 <defs>
  <style type="text/css">*{stroke-linejoin: round; stroke-linecap: butt}</style>
 </defs>
 <g id="figure_1">
  <g id="patch_1">
   <path d="M 0 352.764562 
L 1000.78625 352.764562 
L 1000.78625 0 
L 0 0 
z
" style="fill: #ffffff"/>
  </g>
  <g id="axes_1">
   <g id="patch_2">
    <path d="M 10.38125 313.272687 
L 993.58625 313.272687 
L 993.58625 51.736687 
L 10.38125 51.736687 
z
" style="fill: #ffffff"/>
   </g>
   <g id="FillBetweenPolyCollection_1">
    <defs>
     <path id="m24e29ce634" d="M 10.38125 -301.027875 
L 10.38125 -39.491875 
L 367.910341 -39.491875 
L 367.910341 -301.027875 
L 367.910341 -301.027875 
L 10.38125 -301.027875 
z
" style="stroke: #22c55e; stroke-opacity: 0.4"/>
    </defs>
    <g clip-path="url(#p7892697012)">
     <use xlink:href="#m24e29ce634" x="0" y="352.764562" style="fill: #22c55e; fill-opacity: 0.4; stroke: #22c55e; stroke-opacity: 0.4"/>
    </g>
   </g>
   <g id="FillBetweenPolyCollection_2">
    <defs>
     <path id="m14eede50ce" d="M 367.910341 -301.027875 
L 367.910341 -39.491875 
L 725.439432 -39.491875 
L 725.439432 -301.027875 
L 725.439432 -301.027875 
L 367.910341 -301.027875 
z
" style="stroke: #f59e0b; stroke-opacity: 0.4"/>
    </defs>
    <g clip-path="url(#p7892697012)">
     <use xlink:href="#m14eede50ce" x="0" y="352.764562" style="fill: #f59e0b; fill-opacity: 0.4; stroke: #f59e0b; stroke-opacity: 0.4"/>
    </g>
   </g>
   <g id="FillBetweenPolyCollection_3">
    <defs>
     <path id="m9975a4b2e0" d="M 725.439432 -301.027875 
L 725.439432 -39.491875 
L 904.203977 -39.491875 
L 904.203977 -301.027875 
L 904.203977 -301.027875 
L 725.439432 -301.027875 
z
" style="stroke: #ef4444; stroke-opacity: 0.4"/>
    </defs>
    <g clip-path="url(#p7892697012)">
     <use xlink:href="#m9975a4b2e0" x="0" y="352.764562" style="fill: #ef4444; fill-opacity: 0.4; stroke: #ef4444; stroke-opacity: 0.4"/>
    </g>
   </g>
   <g id="FillBetweenPolyCollection_4">
    <defs>
     <path id="m619efb5cdd" d="M 904.203977 -301.027875 
L 904.203977 -39.491875 
L 993.58625 -39.491875 
L 993.58625 -301.027875 
L 993.58625 -301.027875 
L 904.203977 -301.027875 
z
" style="stroke: #7c3aed; stroke-opacity: 0.4"/>
    </defs>
    <g clip-path="url(#p7892697012)">
     <use xlink:href="#m619efb5cdd" x="0" y="352.764562" style="fill: #7c3aed; fill-opacity: 0.4; stroke: #7c3aed; stroke-opacity: 0.4"/>
    </g>
   </g>
   <g id="matplotlib.axis_1">
    <g id="xtick_1">
     <g id="line2d_1">
      <defs>
       <path id="me930c5a1e5" d="M 0 0 
L 0 3.5 
" style="stroke: #000000; stroke-width: 0.8"/>
      </defs>
      <g>
       <use xlink:href="#me930c5a1e5" x="10.38125" y="313.272687" style="stroke: #000000; stroke-width: 0.8"/>
      </g>
     </g>
     <g id="text_1">
      <!-- 0 -->
      <g transform="translate(7.2 327.871125) scale(0.1 -0.1)">
       <defs>
        <path id="DejaVuSans-30" d="M 2034 4250 
Q 1547 4250 1301 3770 
Q 1056 3291 1056 2328 
Q 1056 1369 1301 889 
Q 1547 409 2034 409 
Q 2525 409 2770 889 
Q 3016 1369 3016 2328 
Q 3016 3291 2770 3770 
Q 2525 4250 2034 4250 
z
M 2034 4750 
Q 2819 4750 3233 4129 
Q 3647 3509 3647 2328 
Q 3647 1150 3233 529 
Q 2819 -91 2034 -91 
Q 1250 -91 836 529 
Q 422 1150 422 2328 
Q 422 3509 836 4129 
Q 1250 4750 2034 4750 
z
" transform="scale(0.015625)"/>
       </defs>
       <use xlink:href="#DejaVuSans-30"/>
      </g>
     </g>
    </g>
    <g id="xtick_2">
     <g id="line2d_2">
      <g>
       <use xlink:href="#me930c5a1e5" x="189.145795" y="313.272687" style="stroke: #000000; stroke-width: 0.8"/>
      </g>
     </g>
     <g id="text_2">
      <!-- 10 -->
      <g transform="translate(182.783295 327.871125) scale(0.1 -0.1)">
       <defs>
        <path id="DejaVuSans-31" d="M 794 531 
L 1825 531 
L 1825 4091 
L 703 3866 
L 703 4441 
L 1819 4666 
L 2450 4666 
L 2450 531 
L 3481 531 
L 3481 0 
L 794 0 
L 794 531 
z
" transform="scale(0.015625)"/>
       </defs>
       <use xlink:href="#DejaVuSans-31"/>
       <use xlink:href="#DejaVuSans-30" transform="translate(63.623047 0)"/>
      </g>
     </g>
    </g>
    <g id="xtick_3">
     <g id="line2d_3">
      <g>
       <use xlink:href="#me930c5a1e5" x="367.910341" y="313.272687" style="stroke: #000000; stroke-width: 0.8"/>
      </g>
     </g>
     <g id="text_3">
      <!-- 20 -->
      <g transform="translate(361.547841 327.871125) scale(0.1 -0.1)">
       <defs>
        <path id="DejaVuSans-32" d="M 1228 531 
L 3431 531 
L 3431 0 
L 469 0 
L 469 531 
Q 828 903 1448 1529 
Q 2069 2156 2228 2338 
Q 2531 2678 2651 2914 
Q 2772 3150 2772 3378 
Q 2772 3750 2511 3984 
Q 2250 4219 1831 4219 
Q 1534 4219 1204 4116 
Q 875 4013 500 3803 
L 500 4441 
Q 881 4594 1212 4672 
Q 1544 4750 1819 4750 
Q 2544 4750 2975 4387 
Q 3406 4025 3406 3419 
Q 3406 3131 3298 2873 
Q 3191 2616 2906 2266 
Q 2828 2175 2409 1742 
Q 1991 1309 1228 531 
z
" transform="scale(0.015625)"/>
       </defs>
       <use xlink:href="#DejaVuSans-32"/>
       <use xlink:href="#DejaVuSans-30" transform="translate(63.623047 0)"/>
      </g>
     </g>
    </g>
    <g id="xtick_4">
     <g id="line2d_4">
      <g>
       <use xlink:href="#me930c5a1e5" x="546.674886" y="313.272687" style="stroke: #000000; stroke-width: 0.8"/>
      </g>
     </g>
     <g id="text_4">
      <!-- 30 -->
      <g transform="translate(540.312386 327.871125) scale(0.1 -0.1)">
       <defs>
        <path id="DejaVuSans-33" d="M 2597 2516 
Q 3050 2419 3304 2112 
Q 3559 1806 3559 1356 
Q 3559 666 3084 287 
Q 2609 -91 1734 -91 
Q 1441 -91 1130 -33 
Q 819 25 488 141 
L 488 750 
Q 750 597 1062 519 
Q 1375 441 1716 441 
Q 2309 441 2620 675 
Q 2931 909 2931 1356 
Q 2931 1769 2642 2001 
Q 2353 2234 1838 2234 
L 1294 2234 
L 1294 2753 
L 1863 2753 
Q 2328 2753 2575 2939 
Q 2822 3125 2822 3475 
Q 2822 3834 2567 4026 
Q 2313 4219 1838 4219 
Q 1578 4219 1281 4162 
Q 984 4106 628 3988 
L 628 4550 
Q 988 4650 1302 4700 
Q 1616 4750 1894 4750 
Q 2613 4750 3031 4423 
Q 3450 4097 3450 3541 
Q 3450 3153 3228 2886 
Q 3006 2619 2597 2516 
z
" transform="scale(0.015625)"/>
       </defs>
       <use xlink:href="#DejaVuSans-33"/>
       <use xlink:href="#DejaVuSans-30" transform="translate(63.623047 0)"/>
      </g>
     </g>
    </g>
    <g id="xtick_5">
     <g id="line2d_5">
      <g>
       <use xlink:href="#me930c5a1e5" x="725.439432" y="313.272687" style="stroke: #000000; stroke-width: 0.8"/>
      </g>
     </g>
     <g id="text_5">
      <!-- 40 -->
      <g transform="translate(719.076932 327.871125) scale(0.1 -0.1)">
       <defs>
        <path id="DejaVuSans-34" d="M 2419 4116 
L 825 1625 
L 2419 1625 
L 2419 4116 
z
M 2253 4666 
L 3047 4666 
L 3047 1625 
L 3713 1625 
L 3713 1100 
L 3047 1100 
L 3047 0 
L 2419 0 
L 2419 1100 
L 313 1100 
L 313 1709 
L 2253 4666 
z
" transform="scale(0.015625)"/>
       </defs>
       <use xlink:href="#DejaVuSans-34"/>
       <use xlink:href="#DejaVuSans-30" transform="translate(63.623047 0)"/>
      </g>
     </g>
    </g>
    <g id="xtick_6">
     <g id="line2d_6">
      <g>
       <use xlink:href="#me930c5a1e5" x="904.203977" y="313.272687" style="stroke: #000000; stroke-width: 0.8"/>
      </g>
     </g>
     <g id="text_6">
      <!-- 50 -->
      <g transform="translate(897.841477 327.871125) scale(0.1 -0.1)">
       <defs>
        <path id="DejaVuSans-35" d="M 691 4666 
L 3169 4666 
L 3169 4134 
L 1269 4134 
L 1269 2991 
Q 1406 3038 1543 3061 
Q 1681 3084 1819 3084 
Q 2600 3084 3056 2656 
Q 3513 2228 3513 1497 
Q 3513 744 3044 326 
Q 2575 -91 1722 -91 
Q 1428 -91 1123 -41 
Q 819 9 494 109 
L 494 744 
Q 775 591 1075 516 
Q 1375 441 1709 441 
Q 2250 441 2565 725 
Q 2881 1009 2881 1497 
Q 2881 1984 2565 2268 
Q 2250 2553 1709 2553 
Q 1456 2553 1204 2497 
Q 953 2441 691 2322 
L 691 4666 
z
" transform="scale(0.015625)"/>
       </defs>
       <use xlink:href="#DejaVuSans-35"/>
       <use xlink:href="#DejaVuSans-30" transform="translate(63.623047 0)"/>
      </g>
     </g>
    </g>
    <g id="text_7">
     <!-- TSAC + SOSAC Combined Weight (%) -->
     <g transform="translate(389.233438 343.068937) scale(0.12 -0.12)">
      <defs>
       <path id="DejaVuSans-54" d="M -19 4666 
L 3928 4666 
L 3928 4134 
L 2272 4134 
L 2272 0 
L 1638 0 
L 1638 4134 
L -19 4134 
L -19 4666 
z
" transform="scale(0.015625)"/>
       <path id="DejaVuSans-53" d="M 3425 4513 
L 3425 3897 
Q 3066 4069 2747 4153 
Q 2428 4238 2131 4238 
Q 1616 4238 1336 4038 
Q 1056 3838 1056 3469 
Q 1056 3159 1242 3001 
Q 1428 2844 1947 2747 
L 2328 2669 
Q 3034 2534 3370 2195 
Q 3706 1856 3706 1288 
Q 3706 609 3251 259 
Q 2797 -91 1919 -91 
Q 1588 -91 1214 -16 
Q 841 59 441 206 
L 441 856 
Q 825 641 1194 531 
Q 1563 422 1919 422 
Q 2459 422 2753 634 
Q 3047 847 3047 1241 
Q 3047 1584 2836 1778 
Q 2625 1972 2144 2069 
L 1759 2144 
Q 1053 2284 737 2584 
Q 422 2884 422 3419 
Q 422 4038 858 4394 
Q 1294 4750 2059 4750 
Q 2388 4750 2728 4690 
Q 3069 4631 3425 4513 
z
" transform="scale(0.015625)"/>
       <path id="DejaVuSans-41" d="M 2188 4044 
L 1331 1722 
L 3047 1722 
L 2188 4044 
z
M 1831 4666 
L 2547 4666 
L 4325 0 
L 3669 0 
L 3244 1197 
L 1141 1197 
L 716 0 
L 50 0 
L 1831 4666 
z
" transform="scale(0.015625)"/>
       <path id="DejaVuSans-43" d="M 4122 4306 
L 4122 3641 
Q 3803 3938 3442 4084 
Q 3081 4231 2675 4231 
Q 1875 4231 1450 3742 
Q 1025 3253 1025 2328 
Q 1025 1406 1450 917 
Q 1875 428 2675 428 
Q 3081 428 3442 575 
Q 3803 722 4122 1019 
L 4122 359 
Q 3791 134 3420 21 
Q 3050 -91 2638 -91 
Q 1578 -91 968 557 
Q 359 1206 359 2328 
Q 359 3453 968 4101 
Q 1578 4750 2638 4750 
Q 3056 4750 3426 4639 
Q 3797 4528 4122 4306 
z
" transform="scale(0.015625)"/>
       <path id="DejaVuSans-20" transform="scale(0.015625)"/>
       <path id="DejaVuSans-2b" d="M 2944 4013 
L 2944 2272 
L 4684 2272 
L 4684 1741 
L 2944 1741 
L 2944 0 
L 2419 0 
L 2419 1741 
L 678 1741 
L 678 2272 
L 2419 2272 
L 2419 4013 
L 2944 4013 
z
" transform="scale(0.015625)"/>
       <path id="DejaVuSans-4f" d="M 2522 4238 
Q 1834 4238 1429 3725 
Q 1025 3213 1025 2328 
Q 1025 1447 1429 934 
Q 1834 422 2522 422 
Q 3209 422 3611 934 
Q 4013 1447 4013 2328 
Q 4013 3213 3611 3725 
Q 3209 4238 2522 4238 
z
M 2522 4750 
Q 3503 4750 4090 4092 
Q 4678 3434 4678 2328 
Q 4678 1225 4090 567 
Q 3503 -91 2522 -91 
Q 1538 -91 948 565 
Q 359 1222 359 2328 
Q 359 3434 948 4092 
Q 1538 4750 2522 4750 
z
" transform="scale(0.015625)"/>
       <path id="DejaVuSans-6f" d="M 1959 3097 
Q 1497 3097 1228 2736 
Q 959 2375 959 1747 
Q 959 1119 1226 758 
Q 1494 397 1959 397 
Q 2419 397 2687 759 
Q 2956 1122 2956 1747 
Q 2956 2369 2687 2733 
Q 2419 3097 1959 3097 
z
M 1959 3584 
Q 2709 3584 3137 3096 
Q 3566 2609 3566 1747 
Q 3566 888 3137 398 
Q 2709 -91 1959 -91 
Q 1206 -91 779 398 
Q 353 888 353 1747 
Q 353 2609 779 3096 
Q 1206 3584 1959 3584 
z
" transform="scale(0.015625)"/>
       <path id="DejaVuSans-6d" d="M 3328 2828 
Q 3544 3216 3844 3400 
Q 4144 3584 4550 3584 
Q 5097 3584 5394 3201 
Q 5691 2819 5691 2113 
L 5691 0 
L 5113 0 
L 5113 2094 
Q 5113 2597 4934 2840 
Q 4756 3084 4391 3084 
Q 3944 3084 3684 2787 
Q 3425 2491 3425 1978 
L 3425 0 
L 2847 0 
L 2847 2094 
Q 2847 2600 2669 2842 
Q 2491 3084 2119 3084 
Q 1678 3084 1418 2786 
Q 1159 2488 1159 1978 
L 1159 0 
L 581 0 
L 581 3500 
L 1159 3500 
L 1159 2956 
Q 1356 3278 1631 3431 
Q 1906 3584 2284 3584 
Q 2666 3584 2933 3390 
Q 3200 3197 3328 2828 
z
" transform="scale(0.015625)"/>
       <path id="DejaVuSans-62" d="M 3116 1747 
Q 3116 2381 2855 2742 
Q 2594 3103 2138 3103 
Q 1681 3103 1420 2742 
Q 1159 2381 1159 1747 
Q 1159 1113 1420 752 
Q 1681 391 2138 391 
Q 2594 391 2855 752 
Q 3116 1113 3116 1747 
z
M 1159 2969 
Q 1341 3281 1617 3432 
Q 1894 3584 2278 3584 
Q 2916 3584 3314 3078 
Q 3713 2572 3713 1747 
Q 3713 922 3314 415 
Q 2916 -91 2278 -91 
Q 1894 -91 1617 61 
Q 1341 213 1159 525 
L 1159 0 
L 581 0 
L 581 4863 
L 1159 4863 
L 1159 2969 
z
" transform="scale(0.015625)"/>
       <path id="DejaVuSans-69" d="M 603 3500 
L 1178 3500 
L 1178 0 
L 603 0 
L 603 3500 
z
M 603 4863 
L 1178 4863 
L 1178 4134 
L 603 4134 
L 603 4863 
z
" transform="scale(0.015625)"/>
       <path id="DejaVuSans-6e" d="M 3513 2113 
L 3513 0 
L 2938 0 
L 2938 2094 
Q 2938 2591 2744 2837 
Q 2550 3084 2163 3084 
Q 1697 3084 1428 2787 
Q 1159 2491 1159 1978 
L 1159 0 
L 581 0 
L 581 3500 
L 1159 3500 
L 1159 2956 
Q 1366 3272 1645 3428 
Q 1925 3584 2291 3584 
Q 2894 3584 3203 3211 
Q 3513 2838 3513 2113 
z
" transform="scale(0.015625)"/>
       <path id="DejaVuSans-65" d="M 3597 1894 
L 3597 1613 
L 953 1613 
Q 991 1019 1311 708 
Q 1631 397 2203 397 
Q 2534 397 2845 478 
Q 3156 559 3463 722 
L 3463 178 
Q 3153 47 2828 -22 
Q 2503 -91 2169 -91 
Q 1331 -91 842 396 
Q 353 884 353 1716 
Q 353 2575 817 3079 
Q 1281 3584 2069 3584 
Q 2775 3584 3186 3129 
Q 3597 2675 3597 1894 
z
M 3022 2063 
Q 3016 2534 2758 2815 
Q 2500 3097 2075 3097 
Q 1594 3097 1305 2825 
Q 1016 2553 972 2059 
L 3022 2063 
z
" transform="scale(0.015625)"/>
       <path id="DejaVuSans-64" d="M 2906 2969 
L 2906 4863 
L 3481 4863 
L 3481 0 
L 2906 0 
L 2906 525 
Q 2725 213 2448 61 
Q 2172 -91 1784 -91 
Q 1150 -91 751 415 
Q 353 922 353 1747 
Q 353 2572 751 3078 
Q 1150 3584 1784 3584 
Q 2172 3584 2448 3432 
Q 2725 3281 2906 2969 
z
M 947 1747 
Q 947 1113 1208 752 
Q 1469 391 1925 391 
Q 2381 391 2643 752 
Q 2906 1113 2906 1747 
Q 2906 2381 2643 2742 
Q 2381 3103 1925 3103 
Q 1469 3103 1208 2742 
Q 947 2381 947 1747 
z
" transform="scale(0.015625)"/>
       <path id="DejaVuSans-57" d="M 213 4666 
L 850 4666 
L 1831 722 
L 2809 4666 
L 3519 4666 
L 4500 722 
L 5478 4666 
L 6119 4666 
L 4947 0 
L 4153 0 
L 3169 4050 
L 2175 0 
L 1381 0 
L 213 4666 
z
" transform="scale(0.015625)"/>
       <path id="DejaVuSans-67" d="M 2906 1791 
Q 2906 2416 2648 2759 
Q 2391 3103 1925 3103 
Q 1463 3103 1205 2759 
Q 947 2416 947 1791 
Q 947 1169 1205 825 
Q 1463 481 1925 481 
Q 2391 481 2648 825 
Q 2906 1169 2906 1791 
z
M 3481 434 
Q 3481 -459 3084 -895 
Q 2688 -1331 1869 -1331 
Q 1566 -1331 1297 -1286 
Q 1028 -1241 775 -1147 
L 775 -588 
Q 1028 -725 1275 -790 
Q 1522 -856 1778 -856 
Q 2344 -856 2625 -561 
Q 2906 -266 2906 331 
L 2906 616 
Q 2728 306 2450 153 
Q 2172 0 1784 0 
Q 1141 0 747 490 
Q 353 981 353 1791 
Q 353 2603 747 3093 
Q 1141 3584 1784 3584 
Q 2172 3584 2450 3431 
Q 2728 3278 2906 2969 
L 2906 3500 
L 3481 3500 
L 3481 434 
z
" transform="scale(0.015625)"/>
       <path id="DejaVuSans-68" d="M 3513 2113 
L 3513 0 
L 2938 0 
L 2938 2094 
Q 2938 2591 2744 2837 
Q 2550 3084 2163 3084 
Q 1697 3084 1428 2787 
Q 1159 2491 1159 1978 
L 1159 0 
L 581 0 
L 581 4863 
L 1159 4863 
L 1159 2956 
Q 1366 3272 1645 3428 
Q 1925 3584 2291 3584 
Q 2894 3584 3203 3211 
Q 3513 2838 3513 2113 
z
" transform="scale(0.015625)"/>
       <path id="DejaVuSans-74" d="M 1172 4494 
L 1172 3500 
L 2356 3500 
L 2356 3053 
L 1172 3053 
L 1172 1153 
Q 1172 725 1289 603 
Q 1406 481 1766 481 
L 2356 481 
L 2356 0 
L 1766 0 
Q 1100 0 847 248 
Q 594 497 594 1153 
L 594 3053 
L 172 3053 
L 172 3500 
L 594 3500 
L 594 4494 
L 1172 4494 
z
" transform="scale(0.015625)"/>
       <path id="DejaVuSans-28" d="M 1984 4856 
Q 1566 4138 1362 3434 
Q 1159 2731 1159 2009 
Q 1159 1288 1364 580 
Q 1569 -128 1984 -844 
L 1484 -844 
Q 1016 -109 783 600 
Q 550 1309 550 2009 
Q 550 2706 781 3412 
Q 1013 4119 1484 4856 
L 1984 4856 
z
" transform="scale(0.015625)"/>
       <path id="DejaVuSans-25" d="M 4653 2053 
Q 4381 2053 4226 1822 
Q 4072 1591 4072 1178 
Q 4072 772 4226 539 
Q 4381 306 4653 306 
Q 4919 306 5073 539 
Q 5228 772 5228 1178 
Q 5228 1588 5073 1820 
Q 4919 2053 4653 2053 
z
M 4653 2450 
Q 5147 2450 5437 2106 
Q 5728 1763 5728 1178 
Q 5728 594 5436 251 
Q 5144 -91 4653 -91 
Q 4153 -91 3862 251 
Q 3572 594 3572 1178 
Q 3572 1766 3864 2108 
Q 4156 2450 4653 2450 
z
M 1428 4353 
Q 1159 4353 1004 4120 
Q 850 3888 850 3481 
Q 850 3069 1003 2837 
Q 1156 2606 1428 2606 
Q 1700 2606 1854 2837 
Q 2009 3069 2009 3481 
Q 2009 3884 1853 4118 
Q 1697 4353 1428 4353 
z
M 4250 4750 
L 4750 4750 
L 1831 -91 
L 1331 -91 
L 4250 4750 
z
M 1428 4750 
Q 1922 4750 2215 4408 
Q 2509 4066 2509 3481 
Q 2509 2891 2217 2550 
Q 1925 2209 1428 2209 
Q 931 2209 642 2551 
Q 353 2894 353 3481 
Q 353 4063 643 4406 
Q 934 4750 1428 4750 
z
" transform="scale(0.015625)"/>
       <path id="DejaVuSans-29" d="M 513 4856 
L 1013 4856 
Q 1481 4119 1714 3412 
Q 1947 2706 1947 2009 
Q 1947 1309 1714 600 
Q 1481 -109 1013 -844 
L 513 -844 
Q 928 -128 1133 580 
Q 1338 1288 1338 2009 
Q 1338 2731 1133 3434 
Q 928 4138 513 4856 
z
" transform="scale(0.015625)"/>
      </defs>
      <use xlink:href="#DejaVuSans-54"/>
      <use xlink:href="#DejaVuSans-53" transform="translate(61.083984 0)"/>
      <use xlink:href="#DejaVuSans-41" transform="translate(126.435547 0)"/>
      <use xlink:href="#DejaVuSans-43" transform="translate(193.09375 0)"/>
      <use xlink:href="#DejaVuSans-20" transform="translate(262.917969 0)"/>
      <use xlink:href="#DejaVuSans-2b" transform="translate(294.705078 0)"/>
      <use xlink:href="#DejaVuSans-20" transform="translate(378.494141 0)"/>
      <use xlink:href="#DejaVuSans-53" transform="translate(410.28125 0)"/>
      <use xlink:href="#DejaVuSans-4f" transform="translate(473.757812 0)"/>
      <use xlink:href="#DejaVuSans-53" transform="translate(552.46875 0)"/>
      <use xlink:href="#DejaVuSans-41" transform="translate(617.820312 0)"/>
      <use xlink:href="#DejaVuSans-43" transform="translate(684.478516 0)"/>
      <use xlink:href="#DejaVuSans-20" transform="translate(754.302734 0)"/>
      <use xlink:href="#DejaVuSans-43" transform="translate(786.089844 0)"/>
      <use xlink:href="#DejaVuSans-6f" transform="translate(855.914062 0)"/>
      <use xlink:href="#DejaVuSans-6d" transform="translate(917.095703 0)"/>
      <use xlink:href="#DejaVuSans-62" transform="translate(1014.507812 0)"/>
      <use xlink:href="#DejaVuSans-69" transform="translate(1077.984375 0)"/>
      <use xlink:href="#DejaVuSans-6e" transform="translate(1105.767578 0)"/>
      <use xlink:href="#DejaVuSans-65" transform="translate(1169.146484 0)"/>
      <use xlink:href="#DejaVuSans-64" transform="translate(1230.669922 0)"/>
      <use xlink:href="#DejaVuSans-20" transform="translate(1294.146484 0)"/>
      <use xlink:href="#DejaVuSans-57" transform="translate(1325.933594 0)"/>
      <use xlink:href="#DejaVuSans-65" transform="translate(1418.935547 0)"/>
      <use xlink:href="#DejaVuSans-69" transform="translate(1480.458984 0)"/>
      <use xlink:href="#DejaVuSans-67" transform="translate(1508.242188 0)"/>
      <use xlink:href="#DejaVuSans-68" transform="translate(1571.71875 0)"/>
      <use xlink:href="#DejaVuSans-74" transform="translate(1635.097656 0)"/>
      <use xlink:href="#DejaVuSans-20" transform="translate(1674.306641 0)"/>
      <use xlink:href="#DejaVuSans-28" transform="translate(1706.09375 0)"/>
      <use xlink:href="#DejaVuSans-25" transform="translate(1745.107422 0)"/>
      <use xlink:href="#DejaVuSans-29" transform="translate(1840.126953 0)"/>
     </g>
    </g>
   </g>
   <g id="matplotlib.axis_2"/>
   <g id="line2d_7">
    <path d="M 904.203977 313.272687 
L 904.203977 51.736687 
" clip-path="url(#p7892697012)" style="fill: none; stroke-dasharray: 11.1,4.8; stroke-dashoffset: 0; stroke: #333333; stroke-width: 3"/>
   </g>
   <g id="line2d_8">
    <path d="M 90.825295 313.272687 
L 90.825295 226.094021 
" clip-path="url(#p7892697012)" style="fill: none; stroke: #22c55e; stroke-width: 2; stroke-linecap: square"/>
   </g>
   <g id="line2d_9">
    <defs>
     <path id="mffc94410b2" d="M 0 10 
C 2.652031 10 5.195799 8.946337 7.071068 7.071068 
C 8.946337 5.195799 10 2.652031 10 0 
C 10 -2.652031 8.946337 -5.195799 7.071068 -7.071068 
C 5.195799 -8.946337 2.652031 -10 0 -10 
C -2.652031 -10 -5.195799 -8.946337 -7.071068 -7.071068 
C -8.946337 -5.195799 -10 -2.652031 -10 0 
C -10 2.652031 -8.946337 5.195799 -7.071068 7.071068 
C -5.195799 8.946337 -2.652031 10 0 10 
z
" style="stroke: #ffffff; stroke-width: 2"/>
    </defs>
    <g clip-path="url(#p7892697012)">
     <use xlink:href="#mffc94410b2" x="90.825295" y="226.094021" style="fill: #22c55e; stroke: #ffffff; stroke-width: 2"/>
    </g>
   </g>
   <g id="line2d_10">
    <path d="M 126.578205 313.272687 
L 126.578205 226.094021 
" clip-path="url(#p7892697012)" style="fill: none; stroke: #3b82f6; stroke-width: 2; stroke-linecap: square"/>
   </g>
   <g id="line2d_11">
    <defs>
     <path id="m36ec96117f" d="M 0 10 
C 2.652031 10 5.195799 8.946337 7.071068 7.071068 
C 8.946337 5.195799 10 2.652031 10 0 
C 10 -2.652031 8.946337 -5.195799 7.071068 -7.071068 
C 5.195799 -8.946337 2.652031 -10 0 -10 
C -2.652031 -10 -5.195799 -8.946337 -7.071068 -7.071068 
C -8.946337 -5.195799 -10 -2.652031 -10 0 
C -10 2.652031 -8.946337 5.195799 -7.071068 7.071068 
C -5.195799 8.946337 -2.652031 10 0 10 
z
" style="stroke: #ffffff; stroke-width: 2"/>
    </defs>
    <g clip-path="url(#p7892697012)">
     <use xlink:href="#m36ec96117f" x="126.578205" y="226.094021" style="fill: #3b82f6; stroke: #ffffff; stroke-width: 2"/>
    </g>
   </g>
   <g id="line2d_12">
    <path d="M 153.392886 313.272687 
L 153.392886 226.094021 
" clip-path="url(#p7892697012)" style="fill: none; stroke: #8b5cf6; stroke-width: 2; stroke-linecap: square"/>
   </g>
   <g id="line2d_13">
    <defs>
     <path id="m0dce5aa7de" d="M 0 10 
C 2.652031 10 5.195799 8.946337 7.071068 7.071068 
C 8.946337 5.195799 10 2.652031 10 0 
C 10 -2.652031 8.946337 -5.195799 7.071068 -7.071068 
C 5.195799 -8.946337 2.652031 -10 0 -10 
C -2.652031 -10 -5.195799 -8.946337 -7.071068 -7.071068 
C -8.946337 -5.195799 -10 -2.652031 -10 0 
C -10 2.652031 -8.946337 5.195799 -7.071068 7.071068 
C -5.195799 8.946337 -2.652031 10 0 10 
z
" style="stroke: #ffffff; stroke-width: 2"/>
    </defs>
    <g clip-path="url(#p7892697012)">
     <use xlink:href="#m0dce5aa7de" x="153.392886" y="226.094021" style="fill: #8b5cf6; stroke: #ffffff; stroke-width: 2"/>
    </g>
   </g>
   <g id="patch_3">
    <path d="M 10.38125 313.272687 
L 10.38125 51.736688 
" style="fill: none; stroke: #000000; stroke-width: 0.8; stroke-linejoin: miter; stroke-linecap: square"/>
   </g>
   <g id="patch_4">
    <path d="M 993.58625 313.272687 
L 993.58625 51.736688 
" style="fill: none; stroke: #000000; stroke-width: 0.8; stroke-linejoin: miter; stroke-linecap: square"/>
   </g>
   <g id="patch_5">
    <path d="M 10.38125 313.272687 
L 993.58625 313.272687 
" style="fill: none; stroke: #000000; stroke-width: 0.8; stroke-linejoin: miter; stroke-linecap: square"/>
   </g>
   <g id="patch_6">
    <path d="M 10.38125 51.736687 
L 993.58625 51.736687 
" style="fill: none; stroke: #000000; stroke-width: 0.8; stroke-linejoin: miter; stroke-linecap: square"/>
   </g>
   <g id="text_8">
    <!-- Conservative -->
    <g transform="translate(144.883608 82.649479) scale(0.12 -0.12)">
     <defs>
      <path id="DejaVuSans-Bold-43" d="M 4288 256 
Q 3956 84 3597 -3 
Q 3238 -91 2847 -91 
Q 1681 -91 1000 561 
Q 319 1213 319 2328 
Q 319 3447 1000 4098 
Q 1681 4750 2847 4750 
Q 3238 4750 3597 4662 
Q 3956 4575 4288 4403 
L 4288 3438 
Q 3953 3666 3628 3772 
Q 3303 3878 2944 3878 
Q 2300 3878 1931 3465 
Q 1563 3053 1563 2328 
Q 1563 1606 1931 1193 
Q 2300 781 2944 781 
Q 3303 781 3628 887 
Q 3953 994 4288 1222 
L 4288 256 
z
" transform="scale(0.015625)"/>
      <path id="DejaVuSans-Bold-6f" d="M 2203 2784 
Q 1831 2784 1636 2517 
Q 1441 2250 1441 1747 
Q 1441 1244 1636 976 
Q 1831 709 2203 709 
Q 2569 709 2762 976 
Q 2956 1244 2956 1747 
Q 2956 2250 2762 2517 
Q 2569 2784 2203 2784 
z
M 2203 3584 
Q 3106 3584 3614 3096 
Q 4122 2609 4122 1747 
Q 4122 884 3614 396 
Q 3106 -91 2203 -91 
Q 1297 -91 786 396 
Q 275 884 275 1747 
Q 275 2609 786 3096 
Q 1297 3584 2203 3584 
z
" transform="scale(0.015625)"/>
      <path id="DejaVuSans-Bold-6e" d="M 4056 2131 
L 4056 0 
L 2931 0 
L 2931 347 
L 2931 1631 
Q 2931 2084 2911 2256 
Q 2891 2428 2841 2509 
Q 2775 2619 2662 2680 
Q 2550 2741 2406 2741 
Q 2056 2741 1856 2470 
Q 1656 2200 1656 1722 
L 1656 0 
L 538 0 
L 538 3500 
L 1656 3500 
L 1656 2988 
Q 1909 3294 2193 3439 
Q 2478 3584 2822 3584 
Q 3428 3584 3742 3212 
Q 4056 2841 4056 2131 
z
" transform="scale(0.015625)"/>
      <path id="DejaVuSans-Bold-73" d="M 3272 3391 
L 3272 2541 
Q 2913 2691 2578 2766 
Q 2244 2841 1947 2841 
Q 1628 2841 1473 2761 
Q 1319 2681 1319 2516 
Q 1319 2381 1436 2309 
Q 1553 2238 1856 2203 
L 2053 2175 
Q 2913 2066 3209 1816 
Q 3506 1566 3506 1031 
Q 3506 472 3093 190 
Q 2681 -91 1863 -91 
Q 1516 -91 1145 -36 
Q 775 19 384 128 
L 384 978 
Q 719 816 1070 734 
Q 1422 653 1784 653 
Q 2113 653 2278 743 
Q 2444 834 2444 1013 
Q 2444 1163 2330 1236 
Q 2216 1309 1875 1350 
L 1678 1375 
Q 931 1469 631 1722 
Q 331 1975 331 2491 
Q 331 3047 712 3315 
Q 1094 3584 1881 3584 
Q 2191 3584 2531 3537 
Q 2872 3491 3272 3391 
z
" transform="scale(0.015625)"/>
      <path id="DejaVuSans-Bold-65" d="M 4031 1759 
L 4031 1441 
L 1416 1441 
Q 1456 1047 1700 850 
Q 1944 653 2381 653 
Q 2734 653 3104 758 
Q 3475 863 3866 1075 
L 3866 213 
Q 3469 63 3072 -14 
Q 2675 -91 2278 -91 
Q 1328 -91 801 392 
Q 275 875 275 1747 
Q 275 2603 792 3093 
Q 1309 3584 2216 3584 
Q 3041 3584 3536 3087 
Q 4031 2591 4031 1759 
z
M 2881 2131 
Q 2881 2450 2695 2645 
Q 2509 2841 2209 2841 
Q 1884 2841 1681 2658 
Q 1478 2475 1428 2131 
L 2881 2131 
z
" transform="scale(0.015625)"/>
      <path id="DejaVuSans-Bold-72" d="M 3138 2547 
Q 2991 2616 2845 2648 
Q 2700 2681 2553 2681 
Q 2122 2681 1889 2404 
Q 1656 2128 1656 1613 
L 1656 0 
L 538 0 
L 538 3500 
L 1656 3500 
L 1656 2925 
Q 1872 3269 2151 3426 
Q 2431 3584 2822 3584 
Q 2878 3584 2943 3579 
Q 3009 3575 3134 3559 
L 3138 2547 
z
" transform="scale(0.015625)"/>
      <path id="DejaVuSans-Bold-76" d="M 97 3500 
L 1216 3500 
L 2088 1081 
L 2956 3500 
L 4078 3500 
L 2700 0 
L 1472 0 
L 97 3500 
z
" transform="scale(0.015625)"/>
      <path id="DejaVuSans-Bold-61" d="M 2106 1575 
Q 1756 1575 1579 1456 
Q 1403 1338 1403 1106 
Q 1403 894 1545 773 
Q 1688 653 1941 653 
Q 2256 653 2472 879 
Q 2688 1106 2688 1447 
L 2688 1575 
L 2106 1575 
z
M 3816 1997 
L 3816 0 
L 2688 0 
L 2688 519 
Q 2463 200 2181 54 
Q 1900 -91 1497 -91 
Q 953 -91 614 226 
Q 275 544 275 1050 
Q 275 1666 698 1953 
Q 1122 2241 2028 2241 
L 2688 2241 
L 2688 2328 
Q 2688 2594 2478 2717 
Q 2269 2841 1825 2841 
Q 1466 2841 1156 2769 
Q 847 2697 581 2553 
L 581 3406 
Q 941 3494 1303 3539 
Q 1666 3584 2028 3584 
Q 2975 3584 3395 3211 
Q 3816 2838 3816 1997 
z
" transform="scale(0.015625)"/>
      <path id="DejaVuSans-Bold-74" d="M 1759 4494 
L 1759 3500 
L 2913 3500 
L 2913 2700 
L 1759 2700 
L 1759 1216 
Q 1759 972 1856 886 
Q 1953 800 2241 800 
L 2816 800 
L 2816 0 
L 1856 0 
Q 1194 0 917 276 
Q 641 553 641 1216 
L 641 2700 
L 84 2700 
L 84 3500 
L 641 3500 
L 641 4494 
L 1759 4494 
z
" transform="scale(0.015625)"/>
      <path id="DejaVuSans-Bold-69" d="M 538 3500 
L 1656 3500 
L 1656 0 
L 538 0 
L 538 3500 
z
M 538 4863 
L 1656 4863 
L 1656 3950 
L 538 3950 
L 538 4863 
z
" transform="scale(0.015625)"/>
     </defs>
     <use xlink:href="#DejaVuSans-Bold-43"/>
     <use xlink:href="#DejaVuSans-Bold-6f" transform="translate(73.388672 0)"/>
     <use xlink:href="#DejaVuSans-Bold-6e" transform="translate(142.089844 0)"/>
     <use xlink:href="#DejaVuSans-Bold-73" transform="translate(213.28125 0)"/>
     <use xlink:href="#DejaVuSans-Bold-65" transform="translate(272.802734 0)"/>
     <use xlink:href="#DejaVuSans-Bold-72" transform="translate(340.625 0)"/>
     <use xlink:href="#DejaVuSans-Bold-76" transform="translate(389.941406 0)"/>
     <use xlink:href="#DejaVuSans-Bold-61" transform="translate(455.126953 0)"/>
     <use xlink:href="#DejaVuSans-Bold-74" transform="translate(522.607422 0)"/>
     <use xlink:href="#DejaVuSans-Bold-69" transform="translate(570.410156 0)"/>
     <use xlink:href="#DejaVuSans-Bold-76" transform="translate(604.6875 0)"/>
     <use xlink:href="#DejaVuSans-Bold-65" transform="translate(669.873047 0)"/>
    </g>
   </g>
   <g id="text_9">
    <!-- (IUSAF &gt; 80%) -->
    <g style="fill: #555555" transform="translate(155.77267 110.882481) scale(0.09 -0.09)">
     <defs>
      <path id="DejaVuSans-49" d="M 628 4666 
L 1259 4666 
L 1259 0 
L 628 0 
L 628 4666 
z
" transform="scale(0.015625)"/>
      <path id="DejaVuSans-55" d="M 556 4666 
L 1191 4666 
L 1191 1831 
Q 1191 1081 1462 751 
Q 1734 422 2344 422 
Q 2950 422 3222 751 
Q 3494 1081 3494 1831 
L 3494 4666 
L 4128 4666 
L 4128 1753 
Q 4128 841 3676 375 
Q 3225 -91 2344 -91 
Q 1459 -91 1007 375 
Q 556 841 556 1753 
L 556 4666 
z
" transform="scale(0.015625)"/>
      <path id="DejaVuSans-46" d="M 628 4666 
L 3309 4666 
L 3309 4134 
L 1259 4134 
L 1259 2759 
L 3109 2759 
L 3109 2228 
L 1259 2228 
L 1259 0 
L 628 0 
L 628 4666 
z
" transform="scale(0.015625)"/>
      <path id="DejaVuSans-3e" d="M 678 3150 
L 678 3719 
L 4684 2266 
L 4684 1747 
L 678 294 
L 678 863 
L 3897 2003 
L 678 3150 
z
" transform="scale(0.015625)"/>
      <path id="DejaVuSans-38" d="M 2034 2216 
Q 1584 2216 1326 1975 
Q 1069 1734 1069 1313 
Q 1069 891 1326 650 
Q 1584 409 2034 409 
Q 2484 409 2743 651 
Q 3003 894 3003 1313 
Q 3003 1734 2745 1975 
Q 2488 2216 2034 2216 
z
M 1403 2484 
Q 997 2584 770 2862 
Q 544 3141 544 3541 
Q 544 4100 942 4425 
Q 1341 4750 2034 4750 
Q 2731 4750 3128 4425 
Q 3525 4100 3525 3541 
Q 3525 3141 3298 2862 
Q 3072 2584 2669 2484 
Q 3125 2378 3379 2068 
Q 3634 1759 3634 1313 
Q 3634 634 3220 271 
Q 2806 -91 2034 -91 
Q 1263 -91 848 271 
Q 434 634 434 1313 
Q 434 1759 690 2068 
Q 947 2378 1403 2484 
z
M 1172 3481 
Q 1172 3119 1398 2916 
Q 1625 2713 2034 2713 
Q 2441 2713 2670 2916 
Q 2900 3119 2900 3481 
Q 2900 3844 2670 4047 
Q 2441 4250 2034 4250 
Q 1625 4250 1398 4047 
Q 1172 3844 1172 3481 
z
" transform="scale(0.015625)"/>
     </defs>
     <use xlink:href="#DejaVuSans-28"/>
     <use xlink:href="#DejaVuSans-49" transform="translate(39.013672 0)"/>
     <use xlink:href="#DejaVuSans-55" transform="translate(68.505859 0)"/>
     <use xlink:href="#DejaVuSans-53" transform="translate(141.699219 0)"/>
     <use xlink:href="#DejaVuSans-41" transform="translate(207.050781 0)"/>
     <use xlink:href="#DejaVuSans-46" transform="translate(275.458984 0)"/>
     <use xlink:href="#DejaVuSans-20" transform="translate(332.978516 0)"/>
     <use xlink:href="#DejaVuSans-3e" transform="translate(364.765625 0)"/>
     <use xlink:href="#DejaVuSans-20" transform="translate(448.554688 0)"/>
     <use xlink:href="#DejaVuSans-38" transform="translate(480.341797 0)"/>
     <use xlink:href="#DejaVuSans-30" transform="translate(543.964844 0)"/>
     <use xlink:href="#DejaVuSans-25" transform="translate(607.587891 0)"/>
     <use xlink:href="#DejaVuSans-29" transform="translate(702.607422 0)"/>
    </g>
   </g>
   <g id="text_10">
    <!-- Moderate -->
    <g transform="translate(514.272074 82.649479) scale(0.12 -0.12)">
     <defs>
      <path id="DejaVuSans-Bold-4d" d="M 588 4666 
L 2119 4666 
L 3181 2169 
L 4250 4666 
L 5778 4666 
L 5778 0 
L 4641 0 
L 4641 3413 
L 3566 897 
L 2803 897 
L 1728 3413 
L 1728 0 
L 588 0 
L 588 4666 
z
" transform="scale(0.015625)"/>
      <path id="DejaVuSans-Bold-64" d="M 2919 2988 
L 2919 4863 
L 4044 4863 
L 4044 0 
L 2919 0 
L 2919 506 
Q 2688 197 2409 53 
Q 2131 -91 1766 -91 
Q 1119 -91 703 423 
Q 288 938 288 1747 
Q 288 2556 703 3070 
Q 1119 3584 1766 3584 
Q 2128 3584 2408 3439 
Q 2688 3294 2919 2988 
z
M 2181 722 
Q 2541 722 2730 984 
Q 2919 1247 2919 1747 
Q 2919 2247 2730 2509 
Q 2541 2772 2181 2772 
Q 1825 2772 1636 2509 
Q 1447 2247 1447 1747 
Q 1447 1247 1636 984 
Q 1825 722 2181 722 
z
" transform="scale(0.015625)"/>
     </defs>
     <use xlink:href="#DejaVuSans-Bold-4d"/>
     <use xlink:href="#DejaVuSans-Bold-6f" transform="translate(99.511719 0)"/>
     <use xlink:href="#DejaVuSans-Bold-64" transform="translate(168.212891 0)"/>
     <use xlink:href="#DejaVuSans-Bold-65" transform="translate(239.794922 0)"/>
     <use xlink:href="#DejaVuSans-Bold-72" transform="translate(307.617188 0)"/>
     <use xlink:href="#DejaVuSans-Bold-61" transform="translate(356.933594 0)"/>
     <use xlink:href="#DejaVuSans-Bold-74" transform="translate(424.414062 0)"/>
     <use xlink:href="#DejaVuSans-Bold-65" transform="translate(472.216797 0)"/>
    </g>
   </g>
   <g id="text_11">
    <!-- (IUSAF 60-80%) -->
    <g style="fill: #555555" transform="translate(511.153011 110.882481) scale(0.09 -0.09)">
     <defs>
      <path id="DejaVuSans-36" d="M 2113 2584 
Q 1688 2584 1439 2293 
Q 1191 2003 1191 1497 
Q 1191 994 1439 701 
Q 1688 409 2113 409 
Q 2538 409 2786 701 
Q 3034 994 3034 1497 
Q 3034 2003 2786 2293 
Q 2538 2584 2113 2584 
z
M 3366 4563 
L 3366 3988 
Q 3128 4100 2886 4159 
Q 2644 4219 2406 4219 
Q 1781 4219 1451 3797 
Q 1122 3375 1075 2522 
Q 1259 2794 1537 2939 
Q 1816 3084 2150 3084 
Q 2853 3084 3261 2657 
Q 3669 2231 3669 1497 
Q 3669 778 3244 343 
Q 2819 -91 2113 -91 
Q 1303 -91 875 529 
Q 447 1150 447 2328 
Q 447 3434 972 4092 
Q 1497 4750 2381 4750 
Q 2619 4750 2861 4703 
Q 3103 4656 3366 4563 
z
" transform="scale(0.015625)"/>
      <path id="DejaVuSans-2d" d="M 313 2009 
L 1997 2009 
L 1997 1497 
L 313 1497 
L 313 2009 
z
" transform="scale(0.015625)"/>
     </defs>
     <use xlink:href="#DejaVuSans-28"/>
     <use xlink:href="#DejaVuSans-49" transform="translate(39.013672 0)"/>
     <use xlink:href="#DejaVuSans-55" transform="translate(68.505859 0)"/>
     <use xlink:href="#DejaVuSans-53" transform="translate(141.699219 0)"/>
     <use xlink:href="#DejaVuSans-41" transform="translate(207.050781 0)"/>
     <use xlink:href="#DejaVuSans-46" transform="translate(275.458984 0)"/>
     <use xlink:href="#DejaVuSans-20" transform="translate(332.978516 0)"/>
     <use xlink:href="#DejaVuSans-36" transform="translate(364.765625 0)"/>
     <use xlink:href="#DejaVuSans-30" transform="translate(428.388672 0)"/>
     <use xlink:href="#DejaVuSans-2d" transform="translate(492.011719 0)"/>
     <use xlink:href="#DejaVuSans-38" transform="translate(528.095703 0)"/>
     <use xlink:href="#DejaVuSans-30" transform="translate(591.71875 0)"/>
     <use xlink:href="#DejaVuSans-25" transform="translate(655.341797 0)"/>
     <use xlink:href="#DejaVuSans-29" transform="translate(750.361328 0)"/>
    </g>
   </g>
   <g id="text_12">
    <!-- Aggressive -->
    <g transform="translate(777.380767 82.649479) scale(0.12 -0.12)">
     <defs>
      <path id="DejaVuSans-Bold-41" d="M 3419 850 
L 1538 850 
L 1241 0 
L 31 0 
L 1759 4666 
L 3194 4666 
L 4922 0 
L 3713 0 
L 3419 850 
z
M 1838 1716 
L 3116 1716 
L 2478 3572 
L 1838 1716 
z
" transform="scale(0.015625)"/>
      <path id="DejaVuSans-Bold-67" d="M 2919 594 
Q 2688 288 2409 144 
Q 2131 0 1766 0 
Q 1125 0 706 504 
Q 288 1009 288 1791 
Q 288 2575 706 3076 
Q 1125 3578 1766 3578 
Q 2131 3578 2409 3434 
Q 2688 3291 2919 2981 
L 2919 3500 
L 4044 3500 
L 4044 353 
Q 4044 -491 3511 -936 
Q 2978 -1381 1966 -1381 
Q 1638 -1381 1331 -1331 
Q 1025 -1281 716 -1178 
L 716 -306 
Q 1009 -475 1290 -558 
Q 1572 -641 1856 -641 
Q 2406 -641 2662 -400 
Q 2919 -159 2919 353 
L 2919 594 
z
M 2181 2772 
Q 1834 2772 1640 2515 
Q 1447 2259 1447 1791 
Q 1447 1309 1634 1061 
Q 1822 813 2181 813 
Q 2531 813 2725 1069 
Q 2919 1325 2919 1791 
Q 2919 2259 2725 2515 
Q 2531 2772 2181 2772 
z
" transform="scale(0.015625)"/>
     </defs>
     <use xlink:href="#DejaVuSans-Bold-41"/>
     <use xlink:href="#DejaVuSans-Bold-67" transform="translate(77.392578 0)"/>
     <use xlink:href="#DejaVuSans-Bold-67" transform="translate(148.974609 0)"/>
     <use xlink:href="#DejaVuSans-Bold-72" transform="translate(220.556641 0)"/>
     <use xlink:href="#DejaVuSans-Bold-65" transform="translate(269.873047 0)"/>
     <use xlink:href="#DejaVuSans-Bold-73" transform="translate(337.695312 0)"/>
     <use xlink:href="#DejaVuSans-Bold-73" transform="translate(397.216797 0)"/>
     <use xlink:href="#DejaVuSans-Bold-69" transform="translate(456.738281 0)"/>
     <use xlink:href="#DejaVuSans-Bold-76" transform="translate(491.015625 0)"/>
     <use xlink:href="#DejaVuSans-Bold-65" transform="translate(556.201172 0)"/>
    </g>
   </g>
   <g id="text_13">
    <!-- (IUSAF &lt; 60%) -->
    <g style="fill: #555555" transform="translate(781.44858 110.882481) scale(0.09 -0.09)">
     <defs>
      <path id="DejaVuSans-3c" d="M 4684 3150 
L 1459 2003 
L 4684 863 
L 4684 294 
L 678 1747 
L 678 2266 
L 4684 3719 
L 4684 3150 
z
" transform="scale(0.015625)"/>
     </defs>
     <use xlink:href="#DejaVuSans-28"/>
     <use xlink:href="#DejaVuSans-49" transform="translate(39.013672 0)"/>
     <use xlink:href="#DejaVuSans-55" transform="translate(68.505859 0)"/>
     <use xlink:href="#DejaVuSans-53" transform="translate(141.699219 0)"/>
     <use xlink:href="#DejaVuSans-41" transform="translate(207.050781 0)"/>
     <use xlink:href="#DejaVuSans-46" transform="translate(275.458984 0)"/>
     <use xlink:href="#DejaVuSans-20" transform="translate(332.978516 0)"/>
     <use xlink:href="#DejaVuSans-3c" transform="translate(364.765625 0)"/>
     <use xlink:href="#DejaVuSans-20" transform="translate(448.554688 0)"/>
     <use xlink:href="#DejaVuSans-36" transform="translate(480.341797 0)"/>
     <use xlink:href="#DejaVuSans-30" transform="translate(543.964844 0)"/>
     <use xlink:href="#DejaVuSans-25" transform="translate(607.587891 0)"/>
     <use xlink:href="#DejaVuSans-29" transform="translate(702.607422 0)"/>
    </g>
   </g>
   <g id="text_14">
    <!-- Overturn -->
    <g transform="translate(918.485426 82.649479) scale(0.12 -0.12)">
     <defs>
      <path id="DejaVuSans-Bold-4f" d="M 2719 3878 
Q 2169 3878 1866 3472 
Q 1563 3066 1563 2328 
Q 1563 1594 1866 1187 
Q 2169 781 2719 781 
Q 3272 781 3575 1187 
Q 3878 1594 3878 2328 
Q 3878 3066 3575 3472 
Q 3272 3878 2719 3878 
z
M 2719 4750 
Q 3844 4750 4481 4106 
Q 5119 3463 5119 2328 
Q 5119 1197 4481 553 
Q 3844 -91 2719 -91 
Q 1597 -91 958 553 
Q 319 1197 319 2328 
Q 319 3463 958 4106 
Q 1597 4750 2719 4750 
z
" transform="scale(0.015625)"/>
      <path id="DejaVuSans-Bold-75" d="M 500 1363 
L 500 3500 
L 1625 3500 
L 1625 3150 
Q 1625 2866 1622 2436 
Q 1619 2006 1619 1863 
Q 1619 1441 1641 1255 
Q 1663 1069 1716 984 
Q 1784 875 1895 815 
Q 2006 756 2150 756 
Q 2500 756 2700 1025 
Q 2900 1294 2900 1772 
L 2900 3500 
L 4019 3500 
L 4019 0 
L 2900 0 
L 2900 506 
Q 2647 200 2364 54 
Q 2081 -91 1741 -91 
Q 1134 -91 817 281 
Q 500 653 500 1363 
z
" transform="scale(0.015625)"/>
     </defs>
     <use xlink:href="#DejaVuSans-Bold-4f"/>
     <use xlink:href="#DejaVuSans-Bold-76" transform="translate(85.009766 0)"/>
     <use xlink:href="#DejaVuSans-Bold-65" transform="translate(150.195312 0)"/>
     <use xlink:href="#DejaVuSans-Bold-72" transform="translate(218.017578 0)"/>
     <use xlink:href="#DejaVuSans-Bold-74" transform="translate(267.333984 0)"/>
     <use xlink:href="#DejaVuSans-Bold-75" transform="translate(315.136719 0)"/>
     <use xlink:href="#DejaVuSans-Bold-72" transform="translate(386.328125 0)"/>
     <use xlink:href="#DejaVuSans-Bold-6e" transform="translate(435.644531 0)"/>
    </g>
   </g>
   <g id="text_15">
    <!-- (IUSAF &lt; 50%) -->
    <g style="fill: #555555" transform="translate(915.521989 110.882481) scale(0.09 -0.09)">
     <use xlink:href="#DejaVuSans-28"/>
     <use xlink:href="#DejaVuSans-49" transform="translate(39.013672 0)"/>
     <use xlink:href="#DejaVuSans-55" transform="translate(68.505859 0)"/>
     <use xlink:href="#DejaVuSans-53" transform="translate(141.699219 0)"/>
     <use xlink:href="#DejaVuSans-41" transform="translate(207.050781 0)"/>
     <use xlink:href="#DejaVuSans-46" transform="translate(275.458984 0)"/>
     <use xlink:href="#DejaVuSans-20" transform="translate(332.978516 0)"/>
     <use xlink:href="#DejaVuSans-3c" transform="translate(364.765625 0)"/>
     <use xlink:href="#DejaVuSans-20" transform="translate(448.554688 0)"/>
     <use xlink:href="#DejaVuSans-35" transform="translate(480.341797 0)"/>
     <use xlink:href="#DejaVuSans-30" transform="translate(543.964844 0)"/>
     <use xlink:href="#DejaVuSans-25" transform="translate(607.587891 0)"/>
     <use xlink:href="#DejaVuSans-29" transform="translate(702.607422 0)"/>
    </g>
   </g>
   <g id="text_16">
    <!-- Strict -->
    <g style="fill: #22c55e" transform="translate(73.748655 188.934898) scale(0.11 -0.11)">
     <defs>
      <path id="DejaVuSans-Bold-53" d="M 3834 4519 
L 3834 3531 
Q 3450 3703 3084 3790 
Q 2719 3878 2394 3878 
Q 1963 3878 1756 3759 
Q 1550 3641 1550 3391 
Q 1550 3203 1689 3098 
Q 1828 2994 2194 2919 
L 2706 2816 
Q 3484 2659 3812 2340 
Q 4141 2022 4141 1434 
Q 4141 663 3683 286 
Q 3225 -91 2284 -91 
Q 1841 -91 1394 -6 
Q 947 78 500 244 
L 500 1259 
Q 947 1022 1364 901 
Q 1781 781 2169 781 
Q 2563 781 2772 912 
Q 2981 1044 2981 1288 
Q 2981 1506 2839 1625 
Q 2697 1744 2272 1838 
L 1806 1941 
Q 1106 2091 782 2419 
Q 459 2747 459 3303 
Q 459 4000 909 4375 
Q 1359 4750 2203 4750 
Q 2588 4750 2994 4692 
Q 3400 4634 3834 4519 
z
" transform="scale(0.015625)"/>
      <path id="DejaVuSans-Bold-63" d="M 3366 3391 
L 3366 2478 
Q 3138 2634 2908 2709 
Q 2678 2784 2431 2784 
Q 1963 2784 1702 2511 
Q 1441 2238 1441 1747 
Q 1441 1256 1702 982 
Q 1963 709 2431 709 
Q 2694 709 2930 787 
Q 3166 866 3366 1019 
L 3366 103 
Q 3103 6 2833 -42 
Q 2563 -91 2291 -91 
Q 1344 -91 809 395 
Q 275 881 275 1747 
Q 275 2613 809 3098 
Q 1344 3584 2291 3584 
Q 2566 3584 2833 3536 
Q 3100 3488 3366 3391 
z
" transform="scale(0.015625)"/>
     </defs>
     <use xlink:href="#DejaVuSans-Bold-53"/>
     <use xlink:href="#DejaVuSans-Bold-74" transform="translate(72.021484 0)"/>
     <use xlink:href="#DejaVuSans-Bold-72" transform="translate(119.824219 0)"/>
     <use xlink:href="#DejaVuSans-Bold-69" transform="translate(169.140625 0)"/>
     <use xlink:href="#DejaVuSans-Bold-63" transform="translate(203.417969 0)"/>
     <use xlink:href="#DejaVuSans-Bold-74" transform="translate(262.695312 0)"/>
    </g>
   </g>
   <g id="text_17">
    <!-- TSAC=1.5% + SOSAC=3% -->
    <g style="fill: #555555" transform="translate(37.44092 163.405204) scale(0.08 -0.08)">
     <defs>
      <path id="DejaVuSans-3d" d="M 678 2906 
L 4684 2906 
L 4684 2381 
L 678 2381 
L 678 2906 
z
M 678 1631 
L 4684 1631 
L 4684 1100 
L 678 1100 
L 678 1631 
z
" transform="scale(0.015625)"/>
      <path id="DejaVuSans-2e" d="M 684 794 
L 1344 794 
L 1344 0 
L 684 0 
L 684 794 
z
" transform="scale(0.015625)"/>
     </defs>
     <use xlink:href="#DejaVuSans-54"/>
     <use xlink:href="#DejaVuSans-53" transform="translate(61.083984 0)"/>
     <use xlink:href="#DejaVuSans-41" transform="translate(126.435547 0)"/>
     <use xlink:href="#DejaVuSans-43" transform="translate(193.09375 0)"/>
     <use xlink:href="#DejaVuSans-3d" transform="translate(262.917969 0)"/>
     <use xlink:href="#DejaVuSans-31" transform="translate(346.707031 0)"/>
     <use xlink:href="#DejaVuSans-2e" transform="translate(410.330078 0)"/>
     <use xlink:href="#DejaVuSans-35" transform="translate(442.117188 0)"/>
     <use xlink:href="#DejaVuSans-25" transform="translate(505.740234 0)"/>
     <use xlink:href="#DejaVuSans-20" transform="translate(600.759766 0)"/>
     <use xlink:href="#DejaVuSans-2b" transform="translate(632.546875 0)"/>
     <use xlink:href="#DejaVuSans-20" transform="translate(716.335938 0)"/>
     <use xlink:href="#DejaVuSans-53" transform="translate(748.123047 0)"/>
     <use xlink:href="#DejaVuSans-4f" transform="translate(811.599609 0)"/>
     <use xlink:href="#DejaVuSans-53" transform="translate(890.310547 0)"/>
     <use xlink:href="#DejaVuSans-41" transform="translate(955.662109 0)"/>
     <use xlink:href="#DejaVuSans-43" transform="translate(1022.320312 0)"/>
     <use xlink:href="#DejaVuSans-3d" transform="translate(1092.144531 0)"/>
     <use xlink:href="#DejaVuSans-33" transform="translate(1175.933594 0)"/>
     <use xlink:href="#DejaVuSans-25" transform="translate(1239.556641 0)"/>
    </g>
   </g>
   <g id="text_18">
    <!-- Bounded -->
    <g style="fill: #3b82f6" transform="translate(99.172736 188.934898) scale(0.11 -0.11)">
     <defs>
      <path id="DejaVuSans-Bold-42" d="M 2456 2859 
Q 2741 2859 2887 2984 
Q 3034 3109 3034 3353 
Q 3034 3594 2887 3720 
Q 2741 3847 2456 3847 
L 1791 3847 
L 1791 2859 
L 2456 2859 
z
M 2497 819 
Q 2859 819 3042 972 
Q 3225 1125 3225 1434 
Q 3225 1738 3044 1889 
Q 2863 2041 2497 2041 
L 1791 2041 
L 1791 819 
L 2497 819 
z
M 3616 2497 
Q 4003 2384 4215 2081 
Q 4428 1778 4428 1338 
Q 4428 663 3972 331 
Q 3516 0 2584 0 
L 588 0 
L 588 4666 
L 2394 4666 
Q 3366 4666 3802 4372 
Q 4238 4078 4238 3431 
Q 4238 3091 4078 2852 
Q 3919 2613 3616 2497 
z
" transform="scale(0.015625)"/>
     </defs>
     <use xlink:href="#DejaVuSans-Bold-42"/>
     <use xlink:href="#DejaVuSans-Bold-6f" transform="translate(76.220703 0)"/>
     <use xlink:href="#DejaVuSans-Bold-75" transform="translate(144.921875 0)"/>
     <use xlink:href="#DejaVuSans-Bold-6e" transform="translate(216.113281 0)"/>
     <use xlink:href="#DejaVuSans-Bold-64" transform="translate(287.304688 0)"/>
     <use xlink:href="#DejaVuSans-Bold-65" transform="translate(358.886719 0)"/>
     <use xlink:href="#DejaVuSans-Bold-64" transform="translate(426.708984 0)"/>
    </g>
   </g>
   <g id="text_19">
    <!-- TSAC=3.5% + SOSAC=3% -->
    <g style="fill: #555555" transform="translate(73.19383 163.405204) scale(0.08 -0.08)">
     <use xlink:href="#DejaVuSans-54"/>
     <use xlink:href="#DejaVuSans-53" transform="translate(61.083984 0)"/>
     <use xlink:href="#DejaVuSans-41" transform="translate(126.435547 0)"/>
     <use xlink:href="#DejaVuSans-43" transform="translate(193.09375 0)"/>
     <use xlink:href="#DejaVuSans-3d" transform="translate(262.917969 0)"/>
     <use xlink:href="#DejaVuSans-33" transform="translate(346.707031 0)"/>
     <use xlink:href="#DejaVuSans-2e" transform="translate(410.330078 0)"/>
     <use xlink:href="#DejaVuSans-35" transform="translate(442.117188 0)"/>
     <use xlink:href="#DejaVuSans-25" transform="translate(505.740234 0)"/>
     <use xlink:href="#DejaVuSans-20" transform="translate(600.759766 0)"/>
     <use xlink:href="#DejaVuSans-2b" transform="translate(632.546875 0)"/>
     <use xlink:href="#DejaVuSans-20" transform="translate(716.335938 0)"/>
     <use xlink:href="#DejaVuSans-53" transform="translate(748.123047 0)"/>
     <use xlink:href="#DejaVuSans-4f" transform="translate(811.599609 0)"/>
     <use xlink:href="#DejaVuSans-53" transform="translate(890.310547 0)"/>
     <use xlink:href="#DejaVuSans-41" transform="translate(955.662109 0)"/>
     <use xlink:href="#DejaVuSans-43" transform="translate(1022.320312 0)"/>
     <use xlink:href="#DejaVuSans-3d" transform="translate(1092.144531 0)"/>
     <use xlink:href="#DejaVuSans-33" transform="translate(1175.933594 0)"/>
     <use xlink:href="#DejaVuSans-25" transform="translate(1239.556641 0)"/>
    </g>
   </g>
   <g id="text_20">
    <!-- Even -->
    <g style="fill: #8b5cf6" transform="translate(138.404527 188.934898) scale(0.11 -0.11)">
     <defs>
      <path id="DejaVuSans-Bold-45" d="M 588 4666 
L 3834 4666 
L 3834 3756 
L 1791 3756 
L 1791 2888 
L 3713 2888 
L 3713 1978 
L 1791 1978 
L 1791 909 
L 3903 909 
L 3903 0 
L 588 0 
L 588 4666 
z
" transform="scale(0.015625)"/>
     </defs>
     <use xlink:href="#DejaVuSans-Bold-45"/>
     <use xlink:href="#DejaVuSans-Bold-76" transform="translate(68.310547 0)"/>
     <use xlink:href="#DejaVuSans-Bold-65" transform="translate(133.496094 0)"/>
     <use xlink:href="#DejaVuSans-Bold-6e" transform="translate(201.318359 0)"/>
    </g>
   </g>
   <g id="text_21">
    <!-- TSAC=5% + SOSAC=3% -->
    <g style="fill: #555555" transform="translate(103.824761 163.405204) scale(0.08 -0.08)">
     <use xlink:href="#DejaVuSans-54"/>
     <use xlink:href="#DejaVuSans-53" transform="translate(61.083984 0)"/>
     <use xlink:href="#DejaVuSans-41" transform="translate(126.435547 0)"/>
     <use xlink:href="#DejaVuSans-43" transform="translate(193.09375 0)"/>
     <use xlink:href="#DejaVuSans-3d" transform="translate(262.917969 0)"/>
     <use xlink:href="#DejaVuSans-35" transform="translate(346.707031 0)"/>
     <use xlink:href="#DejaVuSans-25" transform="translate(410.330078 0)"/>
     <use xlink:href="#DejaVuSans-20" transform="translate(505.349609 0)"/>
     <use xlink:href="#DejaVuSans-2b" transform="translate(537.136719 0)"/>
     <use xlink:href="#DejaVuSans-20" transform="translate(620.925781 0)"/>
     <use xlink:href="#DejaVuSans-53" transform="translate(652.712891 0)"/>
     <use xlink:href="#DejaVuSans-4f" transform="translate(716.189453 0)"/>
     <use xlink:href="#DejaVuSans-53" transform="translate(794.900391 0)"/>
     <use xlink:href="#DejaVuSans-41" transform="translate(860.251953 0)"/>
     <use xlink:href="#DejaVuSans-43" transform="translate(926.910156 0)"/>
     <use xlink:href="#DejaVuSans-3d" transform="translate(996.734375 0)"/>
     <use xlink:href="#DejaVuSans-33" transform="translate(1080.523438 0)"/>
     <use xlink:href="#DejaVuSans-25" transform="translate(1144.146484 0)"/>
    </g>
   </g>
   <g id="text_22">
    <!-- Negotiation Space: All Current Scenarios in Conservative Zone -->
    <g transform="translate(272.262578 17.077969) scale(0.13 -0.13)">
     <defs>
      <path id="DejaVuSans-Bold-4e" d="M 588 4666 
L 1931 4666 
L 3628 1466 
L 3628 4666 
L 4769 4666 
L 4769 0 
L 3425 0 
L 1728 3200 
L 1728 0 
L 588 0 
L 588 4666 
z
" transform="scale(0.015625)"/>
      <path id="DejaVuSans-Bold-20" transform="scale(0.015625)"/>
      <path id="DejaVuSans-Bold-70" d="M 1656 506 
L 1656 -1331 
L 538 -1331 
L 538 3500 
L 1656 3500 
L 1656 2988 
Q 1888 3294 2169 3439 
Q 2450 3584 2816 3584 
Q 3463 3584 3878 3070 
Q 4294 2556 4294 1747 
Q 4294 938 3878 423 
Q 3463 -91 2816 -91 
Q 2450 -91 2169 54 
Q 1888 200 1656 506 
z
M 2400 2772 
Q 2041 2772 1848 2508 
Q 1656 2244 1656 1747 
Q 1656 1250 1848 986 
Q 2041 722 2400 722 
Q 2759 722 2948 984 
Q 3138 1247 3138 1747 
Q 3138 2247 2948 2509 
Q 2759 2772 2400 2772 
z
" transform="scale(0.015625)"/>
      <path id="DejaVuSans-Bold-3a" d="M 716 3500 
L 1844 3500 
L 1844 2291 
L 716 2291 
L 716 3500 
z
M 716 1209 
L 1844 1209 
L 1844 0 
L 716 0 
L 716 1209 
z
" transform="scale(0.015625)"/>
      <path id="DejaVuSans-Bold-6c" d="M 538 4863 
L 1656 4863 
L 1656 0 
L 538 0 
L 538 4863 
z
" transform="scale(0.015625)"/>
      <path id="DejaVuSans-Bold-5a" d="M 359 4666 
L 4281 4666 
L 4281 3938 
L 1778 909 
L 4353 909 
L 4353 0 
L 288 0 
L 288 728 
L 2791 3756 
L 359 3756 
L 359 4666 
z
" transform="scale(0.015625)"/>
     </defs>
     <use xlink:href="#DejaVuSans-Bold-4e"/>
     <use xlink:href="#DejaVuSans-Bold-65" transform="translate(83.691406 0)"/>
     <use xlink:href="#DejaVuSans-Bold-67" transform="translate(151.513672 0)"/>
     <use xlink:href="#DejaVuSans-Bold-6f" transform="translate(223.095703 0)"/>
     <use xlink:href="#DejaVuSans-Bold-74" transform="translate(291.796875 0)"/>
     <use xlink:href="#DejaVuSans-Bold-69" transform="translate(339.599609 0)"/>
     <use xlink:href="#DejaVuSans-Bold-61" transform="translate(373.876953 0)"/>
     <use xlink:href="#DejaVuSans-Bold-74" transform="translate(441.357422 0)"/>
     <use xlink:href="#DejaVuSans-Bold-69" transform="translate(489.160156 0)"/>
     <use xlink:href="#DejaVuSans-Bold-6f" transform="translate(523.4375 0)"/>
     <use xlink:href="#DejaVuSans-Bold-6e" transform="translate(592.138672 0)"/>
     <use xlink:href="#DejaVuSans-Bold-20" transform="translate(663.330078 0)"/>
     <use xlink:href="#DejaVuSans-Bold-53" transform="translate(698.144531 0)"/>
     <use xlink:href="#DejaVuSans-Bold-70" transform="translate(770.166016 0)"/>
     <use xlink:href="#DejaVuSans-Bold-61" transform="translate(841.748047 0)"/>
     <use xlink:href="#DejaVuSans-Bold-63" transform="translate(909.228516 0)"/>
     <use xlink:href="#DejaVuSans-Bold-65" transform="translate(968.505859 0)"/>
     <use xlink:href="#DejaVuSans-Bold-3a" transform="translate(1036.328125 0)"/>
     <use xlink:href="#DejaVuSans-Bold-20" transform="translate(1076.318359 0)"/>
     <use xlink:href="#DejaVuSans-Bold-41" transform="translate(1111.132812 0)"/>
     <use xlink:href="#DejaVuSans-Bold-6c" transform="translate(1188.525391 0)"/>
     <use xlink:href="#DejaVuSans-Bold-6c" transform="translate(1222.802734 0)"/>
     <use xlink:href="#DejaVuSans-Bold-20" transform="translate(1257.080078 0)"/>
     <use xlink:href="#DejaVuSans-Bold-43" transform="translate(1291.894531 0)"/>
     <use xlink:href="#DejaVuSans-Bold-75" transform="translate(1365.283203 0)"/>
     <use xlink:href="#DejaVuSans-Bold-72" transform="translate(1436.474609 0)"/>
     <use xlink:href="#DejaVuSans-Bold-72" transform="translate(1485.791016 0)"/>
     <use xlink:href="#DejaVuSans-Bold-65" transform="translate(1535.107422 0)"/>
     <use xlink:href="#DejaVuSans-Bold-6e" transform="translate(1602.929688 0)"/>
     <use xlink:href="#DejaVuSans-Bold-74" transform="translate(1674.121094 0)"/>
     <use xlink:href="#DejaVuSans-Bold-20" transform="translate(1721.923828 0)"/>
     <use xlink:href="#DejaVuSans-Bold-53" transform="translate(1756.738281 0)"/>
     <use xlink:href="#DejaVuSans-Bold-63" transform="translate(1828.759766 0)"/>
     <use xlink:href="#DejaVuSans-Bold-65" transform="translate(1888.037109 0)"/>
     <use xlink:href="#DejaVuSans-Bold-6e" transform="translate(1955.859375 0)"/>
     <use xlink:href="#DejaVuSans-Bold-61" transform="translate(2027.050781 0)"/>
     <use xlink:href="#DejaVuSans-Bold-72" transform="translate(2094.53125 0)"/>
     <use xlink:href="#DejaVuSans-Bold-69" transform="translate(2143.847656 0)"/>
     <use xlink:href="#DejaVuSans-Bold-6f" transform="translate(2178.125 0)"/>
     <use xlink:href="#DejaVuSans-Bold-73" transform="translate(2246.826172 0)"/>
     <use xlink:href="#DejaVuSans-Bold-20" transform="translate(2306.347656 0)"/>
     <use xlink:href="#DejaVuSans-Bold-69" transform="translate(2341.162109 0)"/>
     <use xlink:href="#DejaVuSans-Bold-6e" transform="translate(2375.439453 0)"/>
     <use xlink:href="#DejaVuSans-Bold-20" transform="translate(2446.630859 0)"/>
     <use xlink:href="#DejaVuSans-Bold-43" transform="translate(2481.445312 0)"/>
     <use xlink:href="#DejaVuSans-Bold-6f" transform="translate(2554.833984 0)"/>
     <use xlink:href="#DejaVuSans-Bold-6e" transform="translate(2623.535156 0)"/>
     <use xlink:href="#DejaVuSans-Bold-73" transform="translate(2694.726562 0)"/>
     <use xlink:href="#DejaVuSans-Bold-65" transform="translate(2754.248047 0)"/>
     <use xlink:href="#DejaVuSans-Bold-72" transform="translate(2822.070312 0)"/>
     <use xlink:href="#DejaVuSans-Bold-76" transform="translate(2871.386719 0)"/>
     <use xlink:href="#DejaVuSans-Bold-61" transform="translate(2936.572266 0)"/>
     <use xlink:href="#DejaVuSans-Bold-74" transform="translate(3004.052734 0)"/>
     <use xlink:href="#DejaVuSans-Bold-69" transform="translate(3051.855469 0)"/>
     <use xlink:href="#DejaVuSans-Bold-76" transform="translate(3086.132812 0)"/>
     <use xlink:href="#DejaVuSans-Bold-65" transform="translate(3151.318359 0)"/>
     <use xlink:href="#DejaVuSans-Bold-20" transform="translate(3219.140625 0)"/>
     <use xlink:href="#DejaVuSans-Bold-5a" transform="translate(3253.955078 0)"/>
     <use xlink:href="#DejaVuSans-Bold-6f" transform="translate(3326.464844 0)"/>
     <use xlink:href="#DejaVuSans-Bold-6e" transform="translate(3395.166016 0)"/>
     <use xlink:href="#DejaVuSans-Bold-65" transform="translate(3466.357422 0)"/>
    </g>
    <!-- (Far below 50% model overturn threshold) -->
    <g transform="translate(346.156406 31.736687) scale(0.13 -0.13)">
     <defs>
      <path id="DejaVuSans-Bold-28" d="M 2413 -844 
L 1484 -844 
Q 1006 -72 778 623 
Q 550 1319 550 2003 
Q 550 2688 779 3389 
Q 1009 4091 1484 4856 
L 2413 4856 
Q 2013 4116 1813 3408 
Q 1613 2700 1613 2009 
Q 1613 1319 1811 609 
Q 2009 -100 2413 -844 
z
" transform="scale(0.015625)"/>
      <path id="DejaVuSans-Bold-46" d="M 588 4666 
L 3834 4666 
L 3834 3756 
L 1791 3756 
L 1791 2888 
L 3713 2888 
L 3713 1978 
L 1791 1978 
L 1791 0 
L 588 0 
L 588 4666 
z
" transform="scale(0.015625)"/>
      <path id="DejaVuSans-Bold-62" d="M 2400 722 
Q 2759 722 2948 984 
Q 3138 1247 3138 1747 
Q 3138 2247 2948 2509 
Q 2759 2772 2400 2772 
Q 2041 2772 1848 2508 
Q 1656 2244 1656 1747 
Q 1656 1250 1848 986 
Q 2041 722 2400 722 
z
M 1656 2988 
Q 1888 3294 2169 3439 
Q 2450 3584 2816 3584 
Q 3463 3584 3878 3070 
Q 4294 2556 4294 1747 
Q 4294 938 3878 423 
Q 3463 -91 2816 -91 
Q 2450 -91 2169 54 
Q 1888 200 1656 506 
L 1656 0 
L 538 0 
L 538 4863 
L 1656 4863 
L 1656 2988 
z
" transform="scale(0.015625)"/>
      <path id="DejaVuSans-Bold-77" d="M 225 3500 
L 1313 3500 
L 1900 1088 
L 2491 3500 
L 3425 3500 
L 4013 1113 
L 4603 3500 
L 5691 3500 
L 4769 0 
L 3547 0 
L 2956 2406 
L 2369 0 
L 1147 0 
L 225 3500 
z
" transform="scale(0.015625)"/>
      <path id="DejaVuSans-Bold-35" d="M 678 4666 
L 3669 4666 
L 3669 3781 
L 1638 3781 
L 1638 3059 
Q 1775 3097 1914 3117 
Q 2053 3138 2203 3138 
Q 3056 3138 3531 2711 
Q 4006 2284 4006 1522 
Q 4006 766 3489 337 
Q 2972 -91 2053 -91 
Q 1656 -91 1267 -14 
Q 878 63 494 219 
L 494 1166 
Q 875 947 1217 837 
Q 1559 728 1863 728 
Q 2300 728 2551 942 
Q 2803 1156 2803 1522 
Q 2803 1891 2551 2103 
Q 2300 2316 1863 2316 
Q 1603 2316 1309 2248 
Q 1016 2181 678 2041 
L 678 4666 
z
" transform="scale(0.015625)"/>
      <path id="DejaVuSans-Bold-30" d="M 2944 2338 
Q 2944 3213 2780 3570 
Q 2616 3928 2228 3928 
Q 1841 3928 1675 3570 
Q 1509 3213 1509 2338 
Q 1509 1453 1675 1090 
Q 1841 728 2228 728 
Q 2613 728 2778 1090 
Q 2944 1453 2944 2338 
z
M 4147 2328 
Q 4147 1169 3647 539 
Q 3147 -91 2228 -91 
Q 1306 -91 806 539 
Q 306 1169 306 2328 
Q 306 3491 806 4120 
Q 1306 4750 2228 4750 
Q 3147 4750 3647 4120 
Q 4147 3491 4147 2328 
z
" transform="scale(0.015625)"/>
      <path id="DejaVuSans-Bold-25" d="M 4959 1925 
Q 4738 1925 4616 1733 
Q 4494 1541 4494 1184 
Q 4494 825 4614 633 
Q 4734 441 4959 441 
Q 5184 441 5303 633 
Q 5422 825 5422 1184 
Q 5422 1541 5301 1733 
Q 5181 1925 4959 1925 
z
M 4959 2450 
Q 5541 2450 5875 2112 
Q 6209 1775 6209 1184 
Q 6209 594 5875 251 
Q 5541 -91 4959 -91 
Q 4378 -91 4042 251 
Q 3706 594 3706 1184 
Q 3706 1772 4042 2111 
Q 4378 2450 4959 2450 
z
M 2094 -91 
L 1403 -91 
L 4319 4750 
L 5013 4750 
L 2094 -91 
z
M 1453 4750 
Q 2034 4750 2367 4411 
Q 2700 4072 2700 3481 
Q 2700 2891 2367 2550 
Q 2034 2209 1453 2209 
Q 872 2209 539 2550 
Q 206 2891 206 3481 
Q 206 4072 539 4411 
Q 872 4750 1453 4750 
z
M 1453 4225 
Q 1228 4225 1106 4031 
Q 984 3838 984 3481 
Q 984 3122 1106 2926 
Q 1228 2731 1453 2731 
Q 1678 2731 1798 2926 
Q 1919 3122 1919 3481 
Q 1919 3838 1797 4031 
Q 1675 4225 1453 4225 
z
" transform="scale(0.015625)"/>
      <path id="DejaVuSans-Bold-6d" d="M 3781 2919 
Q 3994 3244 4286 3414 
Q 4578 3584 4928 3584 
Q 5531 3584 5847 3212 
Q 6163 2841 6163 2131 
L 6163 0 
L 5038 0 
L 5038 1825 
Q 5041 1866 5042 1909 
Q 5044 1953 5044 2034 
Q 5044 2406 4934 2573 
Q 4825 2741 4581 2741 
Q 4263 2741 4089 2478 
Q 3916 2216 3909 1719 
L 3909 0 
L 2784 0 
L 2784 1825 
Q 2784 2406 2684 2573 
Q 2584 2741 2328 2741 
Q 2006 2741 1831 2477 
Q 1656 2213 1656 1722 
L 1656 0 
L 531 0 
L 531 3500 
L 1656 3500 
L 1656 2988 
Q 1863 3284 2130 3434 
Q 2397 3584 2719 3584 
Q 3081 3584 3359 3409 
Q 3638 3234 3781 2919 
z
" transform="scale(0.015625)"/>
      <path id="DejaVuSans-Bold-68" d="M 4056 2131 
L 4056 0 
L 2931 0 
L 2931 347 
L 2931 1625 
Q 2931 2084 2911 2256 
Q 2891 2428 2841 2509 
Q 2775 2619 2662 2680 
Q 2550 2741 2406 2741 
Q 2056 2741 1856 2470 
Q 1656 2200 1656 1722 
L 1656 0 
L 538 0 
L 538 4863 
L 1656 4863 
L 1656 2988 
Q 1909 3294 2193 3439 
Q 2478 3584 2822 3584 
Q 3428 3584 3742 3212 
Q 4056 2841 4056 2131 
z
" transform="scale(0.015625)"/>
      <path id="DejaVuSans-Bold-29" d="M 513 -844 
Q 913 -100 1113 609 
Q 1313 1319 1313 2009 
Q 1313 2700 1113 3408 
Q 913 4116 513 4856 
L 1441 4856 
Q 1916 4091 2145 3389 
Q 2375 2688 2375 2003 
Q 2375 1319 2147 623 
Q 1919 -72 1441 -844 
L 513 -844 
z
" transform="scale(0.015625)"/>
     </defs>
     <use xlink:href="#DejaVuSans-Bold-28"/>
     <use xlink:href="#DejaVuSans-Bold-46" transform="translate(45.703125 0)"/>
     <use xlink:href="#DejaVuSans-Bold-61" transform="translate(108.138672 0)"/>
     <use xlink:href="#DejaVuSans-Bold-72" transform="translate(175.619141 0)"/>
     <use xlink:href="#DejaVuSans-Bold-20" transform="translate(224.935547 0)"/>
     <use xlink:href="#DejaVuSans-Bold-62" transform="translate(259.75 0)"/>
     <use xlink:href="#DejaVuSans-Bold-65" transform="translate(331.332031 0)"/>
     <use xlink:href="#DejaVuSans-Bold-6c" transform="translate(399.154297 0)"/>
     <use xlink:href="#DejaVuSans-Bold-6f" transform="translate(433.431641 0)"/>
     <use xlink:href="#DejaVuSans-Bold-77" transform="translate(502.132812 0)"/>
     <use xlink:href="#DejaVuSans-Bold-20" transform="translate(594.515625 0)"/>
     <use xlink:href="#DejaVuSans-Bold-35" transform="translate(629.330078 0)"/>
     <use xlink:href="#DejaVuSans-Bold-30" transform="translate(698.910156 0)"/>
     <use xlink:href="#DejaVuSans-Bold-25" transform="translate(768.490234 0)"/>
     <use xlink:href="#DejaVuSans-Bold-20" transform="translate(868.685547 0)"/>
     <use xlink:href="#DejaVuSans-Bold-6d" transform="translate(903.5 0)"/>
     <use xlink:href="#DejaVuSans-Bold-6f" transform="translate(1007.699219 0)"/>
     <use xlink:href="#DejaVuSans-Bold-64" transform="translate(1076.400391 0)"/>
     <use xlink:href="#DejaVuSans-Bold-65" transform="translate(1147.982422 0)"/>
     <use xlink:href="#DejaVuSans-Bold-6c" transform="translate(1215.804688 0)"/>
     <use xlink:href="#DejaVuSans-Bold-20" transform="translate(1250.082031 0)"/>
     <use xlink:href="#DejaVuSans-Bold-6f" transform="translate(1284.896484 0)"/>
     <use xlink:href="#DejaVuSans-Bold-76" transform="translate(1353.597656 0)"/>
     <use xlink:href="#DejaVuSans-Bold-65" transform="translate(1418.783203 0)"/>
     <use xlink:href="#DejaVuSans-Bold-72" transform="translate(1486.605469 0)"/>
     <use xlink:href="#DejaVuSans-Bold-74" transform="translate(1535.921875 0)"/>
     <use xlink:href="#DejaVuSans-Bold-75" transform="translate(1583.724609 0)"/>
     <use xlink:href="#DejaVuSans-Bold-72" transform="translate(1654.916016 0)"/>
     <use xlink:href="#DejaVuSans-Bold-6e" transform="translate(1704.232422 0)"/>
     <use xlink:href="#DejaVuSans-Bold-20" transform="translate(1775.423828 0)"/>
     <use xlink:href="#DejaVuSans-Bold-74" transform="translate(1810.238281 0)"/>
     <use xlink:href="#DejaVuSans-Bold-68" transform="translate(1858.041016 0)"/>
     <use xlink:href="#DejaVuSans-Bold-72" transform="translate(1929.232422 0)"/>
     <use xlink:href="#DejaVuSans-Bold-65" transform="translate(1978.548828 0)"/>
     <use xlink:href="#DejaVuSans-Bold-73" transform="translate(2046.371094 0)"/>
     <use xlink:href="#DejaVuSans-Bold-68" transform="translate(2105.892578 0)"/>
     <use xlink:href="#DejaVuSans-Bold-6f" transform="translate(2177.083984 0)"/>
     <use xlink:href="#DejaVuSans-Bold-6c" transform="translate(2245.785156 0)"/>
     <use xlink:href="#DejaVuSans-Bold-64" transform="translate(2280.0625 0)"/>
     <use xlink:href="#DejaVuSans-Bold-29" transform="translate(2351.644531 0)"/>
    </g>
   </g>
  </g>
 </g>
 <defs>
  <clipPath id="p7892697012">
   <rect x="10.38125" y="51.736687" width="983.205" height="261.536"/>
  </clipPath>
 </defs>
</svg>
