<?xml version="1.0" encoding="utf-8" standalone="no"?>
<!DOCTYPE svg PUBLIC "-//W3C//DTD SVG 1.1//EN"
  "http://www.w3.org/Graphics/SVG/1.1/DTD/svg11.dtd">
<svg xmlns:xlink="http://www.w3.org/1999/xlink" width="1000.72625pt" height="423.350938pt" viewBox="0 0 1000.72625 423.350938" xmlns="http://www.w3.org/2000/svg" version="1.1">
 <metadata>
  <rdf:RDF xmlns:dc="http://purl.org/dc/elements/1.1/" xmlns:cc="http://creativecommons.org/ns#" xmlns:rdf="http://www.w3.org/1999/02/22-rdf-syntax-ns#">
   <cc:Work>
    <dc:type rdf:resource="http://purl.org/dc/dcmitype/StillImage"/>
    <dc:date>2026-04-17T13:54:32.840811</dc:date>
    <dc:format>image/svg+xml</dc:format>
    <dc:creator>
     <cc:Agent>
      <dc:title>Matplotlib v3.10.8, https://matplotlib.org/</dc:title>
     </cc:Agent>
    </dc:creator>
   </cc:Work>
  </rdf:RDF>
 </metadata>
 <defs>
  <style type="text/css">*{stroke-linejoin: round; stroke-linecap: butt}</style>
 </defs>
 <g id="figure_1">
  <g id="patch_1">
   <path d="M 0 423.350938 
L 1000.72625 423.350938 
L 1000.72625 0 
L 0 0 
z
" style="fill: #ffffff"/>
  </g>
  <g id="axes_1">
   <g id="patch_2">
    <path d="M 35.208438 384.758125 
L 481.408438 384.758125 
L 481.408438 22.318125 
L 35.208438 22.318125 
z
" style="fill: #ffffff"/>
   </g>
   <g id="matplotlib.axis_1">
    <g id="xtick_1">
     <g id="line2d_1">
      <path d="M 35.208438 384.758125 
L 35.208438 22.318125 
" clip-path="url(#p9f994330e8)" style="fill: none; stroke: #b0b0b0; stroke-opacity: 0.3; stroke-width: 0.8; stroke-linecap: square"/>
     </g>
     <g id="line2d_2">
      <defs>
       <path id="ma6f5addc34" d="M 0 0 
L 0 3.5 
" style="stroke: #000000; stroke-width: 0.8"/>
      </defs>
      <g>
       <use xlink:href="#ma6f5addc34" x="35.208438" y="384.758125" style="stroke: #000000; stroke-width: 0.8"/>
      </g>
     </g>
     <g id="text_1">
      <!-- 0 -->
      <g transform="translate(32.027188 399.356563) scale(0.1 -0.1)">
       <defs>
        <path id="DejaVuSans-30" d="M 2034 4250 
Q 1547 4250 1301 3770 
Q 1056 3291 1056 2328 
Q 1056 1369 1301 889 
Q 1547 409 2034 409 
Q 2525 409 2770 889 
Q 3016 1369 3016 2328 
Q 3016 3291 2770 3770 
Q 2525 4250 2034 4250 
z
M 2034 4750 
Q 2819 4750 3233 4129 
Q 3647 3509 3647 2328 
Q 3647 1150 3233 529 
Q 2819 -91 2034 -91 
Q 1250 -91 836 529 
Q 422 1150 422 2328 
Q 422 3509 836 4129 
Q 1250 4750 2034 4750 
z
" transform="scale(0.015625)"/>
       </defs>
       <use xlink:href="#DejaVuSans-30"/>
      </g>
     </g>
    </g>
    <g id="xtick_2">
     <g id="line2d_3">
      <path d="M 124.448438 384.758125 
L 124.448438 22.318125 
" clip-path="url(#p9f994330e8)" style="fill: none; stroke: #b0b0b0; stroke-opacity: 0.3; stroke-width: 0.8; stroke-linecap: square"/>
     </g>
     <g id="line2d_4">
      <g>
       <use xlink:href="#ma6f5addc34" x="124.448438" y="384.758125" style="stroke: #000000; stroke-width: 0.8"/>
      </g>
     </g>
     <g id="text_2">
      <!-- 2 -->
      <g transform="translate(121.267188 399.356563) scale(0.1 -0.1)">
       <defs>
        <path id="DejaVuSans-32" d="M 1228 531 
L 3431 531 
L 3431 0 
L 469 0 
L 469 531 
Q 828 903 1448 1529 
Q 2069 2156 2228 2338 
Q 2531 2678 2651 2914 
Q 2772 3150 2772 3378 
Q 2772 3750 2511 3984 
Q 2250 4219 1831 4219 
Q 1534 4219 1204 4116 
Q 875 4013 500 3803 
L 500 4441 
Q 881 4594 1212 4672 
Q 1544 4750 1819 4750 
Q 2544 4750 2975 4387 
Q 3406 4025 3406 3419 
Q 3406 3131 3298 2873 
Q 3191 2616 2906 2266 
Q 2828 2175 2409 1742 
Q 1991 1309 1228 531 
z
" transform="scale(0.015625)"/>
       </defs>
       <use xlink:href="#DejaVuSans-32"/>
      </g>
     </g>
    </g>
    <g id="xtick_3">
     <g id="line2d_5">
      <path d="M 213.688438 384.758125 
L 213.688438 22.318125 
" clip-path="url(#p9f994330e8)" style="fill: none; stroke: #b0b0b0; stroke-opacity: 0.3; stroke-width: 0.8; stroke-linecap: square"/>
     </g>
     <g id="line2d_6">
      <g>
       <use xlink:href="#ma6f5addc34" x="213.688438" y="384.758125" style="stroke: #000000; stroke-width: 0.8"/>
      </g>
     </g>
     <g id="text_3">
      <!-- 4 -->
      <g transform="translate(210.507188 399.356563) scale(0.1 -0.1)">
       <defs>
        <path id="DejaVuSans-34" d="M 2419 4116 
L 825 1625 
L 2419 1625 
L 2419 4116 
z
M 2253 4666 
L 3047 4666 
L 3047 1625 
L 3713 1625 
L 3713 1100 
L 3047 1100 
L 3047 0 
L 2419 0 
L 2419 1100 
L 313 1100 
L 313 1709 
L 2253 4666 
z
" transform="scale(0.015625)"/>
       </defs>
       <use xlink:href="#DejaVuSans-34"/>
      </g>
     </g>
    </g>
    <g id="xtick_4">
     <g id="line2d_7">
      <path d="M 302.928438 384.758125 
L 302.928438 22.318125 
" clip-path="url(#p9f994330e8)" style="fill: none; stroke: #b0b0b0; stroke-opacity: 0.3; stroke-width: 0.8; stroke-linecap: square"/>
     </g>
     <g id="line2d_8">
      <g>
       <use xlink:href="#ma6f5addc34" x="302.928438" y="384.758125" style="stroke: #000000; stroke-width: 0.8"/>
      </g>
     </g>
     <g id="text_4">
      <!-- 6 -->
      <g transform="translate(299.747188 399.356563) scale(0.1 -0.1)">
       <defs>
        <path id="DejaVuSans-36" d="M 2113 2584 
Q 1688 2584 1439 2293 
Q 1191 2003 1191 1497 
Q 1191 994 1439 701 
Q 1688 409 2113 409 
Q 2538 409 2786 701 
Q 3034 994 3034 1497 
Q 3034 2003 2786 2293 
Q 2538 2584 2113 2584 
z
M 3366 4563 
L 3366 3988 
Q 3128 4100 2886 4159 
Q 2644 4219 2406 4219 
Q 1781 4219 1451 3797 
Q 1122 3375 1075 2522 
Q 1259 2794 1537 2939 
Q 1816 3084 2150 3084 
Q 2853 3084 3261 2657 
Q 3669 2231 3669 1497 
Q 3669 778 3244 343 
Q 2819 -91 2113 -91 
Q 1303 -91 875 529 
Q 447 1150 447 2328 
Q 447 3434 972 4092 
Q 1497 4750 2381 4750 
Q 2619 4750 2861 4703 
Q 3103 4656 3366 4563 
z
" transform="scale(0.015625)"/>
       </defs>
       <use xlink:href="#DejaVuSans-36"/>
      </g>
     </g>
    </g>
    <g id="xtick_5">
     <g id="line2d_9">
      <path d="M 392.168438 384.758125 
L 392.168438 22.318125 
" clip-path="url(#p9f994330e8)" style="fill: none; stroke: #b0b0b0; stroke-opacity: 0.3; stroke-width: 0.8; stroke-linecap: square"/>
     </g>
     <g id="line2d_10">
      <g>
       <use xlink:href="#ma6f5addc34" x="392.168438" y="384.758125" style="stroke: #000000; stroke-width: 0.8"/>
      </g>
     </g>
     <g id="text_5">
      <!-- 8 -->
      <g transform="translate(388.987188 399.356563) scale(0.1 -0.1)">
       <defs>
        <path id="DejaVuSans-38" d="M 2034 2216 
Q 1584 2216 1326 1975 
Q 1069 1734 1069 1313 
Q 1069 891 1326 650 
Q 1584 409 2034 409 
Q 2484 409 2743 651 
Q 3003 894 3003 1313 
Q 3003 1734 2745 1975 
Q 2488 2216 2034 2216 
z
M 1403 2484 
Q 997 2584 770 2862 
Q 544 3141 544 3541 
Q 544 4100 942 4425 
Q 1341 4750 2034 4750 
Q 2731 4750 3128 4425 
Q 3525 4100 3525 3541 
Q 3525 3141 3298 2862 
Q 3072 2584 2669 2484 
Q 3125 2378 3379 2068 
Q 3634 1759 3634 1313 
Q 3634 634 3220 271 
Q 2806 -91 2034 -91 
Q 1263 -91 848 271 
Q 434 634 434 1313 
Q 434 1759 690 2068 
Q 947 2378 1403 2484 
z
M 1172 3481 
Q 1172 3119 1398 2916 
Q 1625 2713 2034 2713 
Q 2441 2713 2670 2916 
Q 2900 3119 2900 3481 
Q 2900 3844 2670 4047 
Q 2441 4250 2034 4250 
Q 1625 4250 1398 4047 
Q 1172 3844 1172 3481 
z
" transform="scale(0.015625)"/>
       </defs>
       <use xlink:href="#DejaVuSans-38"/>
      </g>
     </g>
    </g>
    <g id="xtick_6">
     <g id="line2d_11">
      <path d="M 481.408438 384.758125 
L 481.408438 22.318125 
" clip-path="url(#p9f994330e8)" style="fill: none; stroke: #b0b0b0; stroke-opacity: 0.3; stroke-width: 0.8; stroke-linecap: square"/>
     </g>
     <g id="line2d_12">
      <g>
       <use xlink:href="#ma6f5addc34" x="481.408438" y="384.758125" style="stroke: #000000; stroke-width: 0.8"/>
      </g>
     </g>
     <g id="text_6">
      <!-- 10 -->
      <g transform="translate(475.045938 399.356563) scale(0.1 -0.1)">
       <defs>
        <path id="DejaVuSans-31" d="M 794 531 
L 1825 531 
L 1825 4091 
L 703 3866 
L 703 4441 
L 1819 4666 
L 2450 4666 
L 2450 531 
L 3481 531 
L 3481 0 
L 794 0 
L 794 531 
z
" transform="scale(0.015625)"/>
       </defs>
       <use xlink:href="#DejaVuSans-31"/>
       <use xlink:href="#DejaVuSans-30" transform="translate(63.623047 0)"/>
      </g>
     </g>
    </g>
    <g id="text_7">
     <!-- TSAC Weight (β) -->
     <g transform="translate(213.389766 413.863281) scale(0.11 -0.11)">
      <defs>
       <path id="DejaVuSans-54" d="M -19 4666 
L 3928 4666 
L 3928 4134 
L 2272 4134 
L 2272 0 
L 1638 0 
L 1638 4134 
L -19 4134 
L -19 4666 
z
" transform="scale(0.015625)"/>
       <path id="DejaVuSans-53" d="M 3425 4513 
L 3425 3897 
Q 3066 4069 2747 4153 
Q 2428 4238 2131 4238 
Q 1616 4238 1336 4038 
Q 1056 3838 1056 3469 
Q 1056 3159 1242 3001 
Q 1428 2844 1947 2747 
L 2328 2669 
Q 3034 2534 3370 2195 
Q 3706 1856 3706 1288 
Q 3706 609 3251 259 
Q 2797 -91 1919 -91 
Q 1588 -91 1214 -16 
Q 841 59 441 206 
L 441 856 
Q 825 641 1194 531 
Q 1563 422 1919 422 
Q 2459 422 2753 634 
Q 3047 847 3047 1241 
Q 3047 1584 2836 1778 
Q 2625 1972 2144 2069 
L 1759 2144 
Q 1053 2284 737 2584 
Q 422 2884 422 3419 
Q 422 4038 858 4394 
Q 1294 4750 2059 4750 
Q 2388 4750 2728 4690 
Q 3069 4631 3425 4513 
z
" transform="scale(0.015625)"/>
       <path id="DejaVuSans-41" d="M 2188 4044 
L 1331 1722 
L 3047 1722 
L 2188 4044 
z
M 1831 4666 
L 2547 4666 
L 4325 0 
L 3669 0 
L 3244 1197 
L 1141 1197 
L 716 0 
L 50 0 
L 1831 4666 
z
" transform="scale(0.015625)"/>
       <path id="DejaVuSans-43" d="M 4122 4306 
L 4122 3641 
Q 3803 3938 3442 4084 
Q 3081 4231 2675 4231 
Q 1875 4231 1450 3742 
Q 1025 3253 1025 2328 
Q 1025 1406 1450 917 
Q 1875 428 2675 428 
Q 3081 428 3442 575 
Q 3803 722 4122 1019 
L 4122 359 
Q 3791 134 3420 21 
Q 3050 -91 2638 -91 
Q 1578 -91 968 557 
Q 359 1206 359 2328 
Q 359 3453 968 4101 
Q 1578 4750 2638 4750 
Q 3056 4750 3426 4639 
Q 3797 4528 4122 4306 
z
" transform="scale(0.015625)"/>
       <path id="DejaVuSans-20" transform="scale(0.015625)"/>
       <path id="DejaVuSans-57" d="M 213 4666 
L 850 4666 
L 1831 722 
L 2809 4666 
L 3519 4666 
L 4500 722 
L 5478 4666 
L 6119 4666 
L 4947 0 
L 4153 0 
L 3169 4050 
L 2175 0 
L 1381 0 
L 213 4666 
z
" transform="scale(0.015625)"/>
       <path id="DejaVuSans-65" d="M 3597 1894 
L 3597 1613 
L 953 1613 
Q 991 1019 1311 708 
Q 1631 397 2203 397 
Q 2534 397 2845 478 
Q 3156 559 3463 722 
L 3463 178 
Q 3153 47 2828 -22 
Q 2503 -91 2169 -91 
Q 1331 -91 842 396 
Q 353 884 353 1716 
Q 353 2575 817 3079 
Q 1281 3584 2069 3584 
Q 2775 3584 3186 3129 
Q 3597 2675 3597 1894 
z
M 3022 2063 
Q 3016 2534 2758 2815 
Q 2500 3097 2075 3097 
Q 1594 3097 1305 2825 
Q 1016 2553 972 2059 
L 3022 2063 
z
" transform="scale(0.015625)"/>
       <path id="DejaVuSans-69" d="M 603 3500 
L 1178 3500 
L 1178 0 
L 603 0 
L 603 3500 
z
M 603 4863 
L 1178 4863 
L 1178 4134 
L 603 4134 
L 603 4863 
z
" transform="scale(0.015625)"/>
       <path id="DejaVuSans-67" d="M 2906 1791 
Q 2906 2416 2648 2759 
Q 2391 3103 1925 3103 
Q 1463 3103 1205 2759 
Q 947 2416 947 1791 
Q 947 1169 1205 825 
Q 1463 481 1925 481 
Q 2391 481 2648 825 
Q 2906 1169 2906 1791 
z
M 3481 434 
Q 3481 -459 3084 -895 
Q 2688 -1331 1869 -1331 
Q 1566 -1331 1297 -1286 
Q 1028 -1241 775 -1147 
L 775 -588 
Q 1028 -725 1275 -790 
Q 1522 -856 1778 -856 
Q 2344 -856 2625 -561 
Q 2906 -266 2906 331 
L 2906 616 
Q 2728 306 2450 153 
Q 2172 0 1784 0 
Q 1141 0 747 490 
Q 353 981 353 1791 
Q 353 2603 747 3093 
Q 1141 3584 1784 3584 
Q 2172 3584 2450 3431 
Q 2728 3278 2906 2969 
L 2906 3500 
L 3481 3500 
L 3481 434 
z
" transform="scale(0.015625)"/>
       <path id="DejaVuSans-68" d="M 3513 2113 
L 3513 0 
L 2938 0 
L 2938 2094 
Q 2938 2591 2744 2837 
Q 2550 3084 2163 3084 
Q 1697 3084 1428 2787 
Q 1159 2491 1159 1978 
L 1159 0 
L 581 0 
L 581 4863 
L 1159 4863 
L 1159 2956 
Q 1366 3272 1645 3428 
Q 1925 3584 2291 3584 
Q 2894 3584 3203 3211 
Q 3513 2838 3513 2113 
z
" transform="scale(0.015625)"/>
       <path id="DejaVuSans-74" d="M 1172 4494 
L 1172 3500 
L 2356 3500 
L 2356 3053 
L 1172 3053 
L 1172 1153 
Q 1172 725 1289 603 
Q 1406 481 1766 481 
L 2356 481 
L 2356 0 
L 1766 0 
Q 1100 0 847 248 
Q 594 497 594 1153 
L 594 3053 
L 172 3053 
L 172 3500 
L 594 3500 
L 594 4494 
L 1172 4494 
z
" transform="scale(0.015625)"/>
       <path id="DejaVuSans-28" d="M 1984 4856 
Q 1566 4138 1362 3434 
Q 1159 2731 1159 2009 
Q 1159 1288 1364 580 
Q 1569 -128 1984 -844 
L 1484 -844 
Q 1016 -109 783 600 
Q 550 1309 550 2009 
Q 550 2706 781 3412 
Q 1013 4119 1484 4856 
L 1984 4856 
z
" transform="scale(0.015625)"/>
       <path id="DejaVuSans-3b2" d="M 1178 216 
L 1178 -1331 
L 600 -1331 
L 600 3478 
Q 600 4903 1931 4903 
Q 3288 4903 3288 3700 
Q 3288 2844 2750 2531 
Q 3625 2250 3625 1416 
Q 3625 -66 2119 -66 
Q 1456 -66 1178 216 
z
M 1178 966 
Q 1525 425 2141 425 
Q 3041 425 3041 1406 
Q 3041 2288 1591 2219 
L 1591 2750 
Q 2725 2750 2725 3750 
Q 2725 4434 1994 4434 
Q 1178 4434 1178 3459 
L 1178 966 
z
" transform="scale(0.015625)"/>
       <path id="DejaVuSans-29" d="M 513 4856 
L 1013 4856 
Q 1481 4119 1714 3412 
Q 1947 2706 1947 2009 
Q 1947 1309 1714 600 
Q 1481 -109 1013 -844 
L 513 -844 
Q 928 -128 1133 580 
Q 1338 1288 1338 2009 
Q 1338 2731 1133 3434 
Q 928 4138 513 4856 
z
" transform="scale(0.015625)"/>
      </defs>
      <use xlink:href="#DejaVuSans-54"/>
      <use xlink:href="#DejaVuSans-53" transform="translate(61.083984 0)"/>
      <use xlink:href="#DejaVuSans-41" transform="translate(126.435547 0)"/>
      <use xlink:href="#DejaVuSans-43" transform="translate(193.09375 0)"/>
      <use xlink:href="#DejaVuSans-20" transform="translate(262.917969 0)"/>
      <use xlink:href="#DejaVuSans-57" transform="translate(294.705078 0)"/>
      <use xlink:href="#DejaVuSans-65" transform="translate(387.707031 0)"/>
      <use xlink:href="#DejaVuSans-69" transform="translate(449.230469 0)"/>
      <use xlink:href="#DejaVuSans-67" transform="translate(477.013672 0)"/>
      <use xlink:href="#DejaVuSans-68" transform="translate(540.490234 0)"/>
      <use xlink:href="#DejaVuSans-74" transform="translate(603.869141 0)"/>
      <use xlink:href="#DejaVuSans-20" transform="translate(643.078125 0)"/>
      <use xlink:href="#DejaVuSans-28" transform="translate(674.865234 0)"/>
      <use xlink:href="#DejaVuSans-3b2" transform="translate(713.878906 0)"/>
      <use xlink:href="#DejaVuSans-29" transform="translate(777.697266 0)"/>
     </g>
    </g>
   </g>
   <g id="matplotlib.axis_2">
    <g id="ytick_1">
     <g id="line2d_13">
      <path d="M 35.208438 384.758125 
L 481.408438 384.758125 
" clip-path="url(#p9f994330e8)" style="fill: none; stroke: #b0b0b0; stroke-opacity: 0.3; stroke-width: 0.8; stroke-linecap: square"/>
     </g>
     <g id="line2d_14">
      <defs>
       <path id="m1c2253439a" d="M 0 0 
L -3.5 0 
" style="stroke: #000000; stroke-width: 0.8"/>
      </defs>
      <g>
       <use xlink:href="#m1c2253439a" x="35.208438" y="384.758125" style="stroke: #000000; stroke-width: 0.8"/>
      </g>
     </g>
     <g id="text_8">
      <!-- 0 -->
      <g transform="translate(21.845938 388.557344) scale(0.1 -0.1)">
       <use xlink:href="#DejaVuSans-30"/>
      </g>
     </g>
    </g>
    <g id="ytick_2">
     <g id="line2d_15">
      <path d="M 35.208438 332.980982 
L 481.408438 332.980982 
" clip-path="url(#p9f994330e8)" style="fill: none; stroke: #b0b0b0; stroke-opacity: 0.3; stroke-width: 0.8; stroke-linecap: square"/>
     </g>
     <g id="line2d_16">
      <g>
       <use xlink:href="#m1c2253439a" x="35.208438" y="332.980982" style="stroke: #000000; stroke-width: 0.8"/>
      </g>
     </g>
     <g id="text_9">
      <!-- 1 -->
      <g transform="translate(21.845938 336.780201) scale(0.1 -0.1)">
       <use xlink:href="#DejaVuSans-31"/>
      </g>
     </g>
    </g>
    <g id="ytick_3">
     <g id="line2d_17">
      <path d="M 35.208438 281.203839 
L 481.408438 281.203839 
" clip-path="url(#p9f994330e8)" style="fill: none; stroke: #b0b0b0; stroke-opacity: 0.3; stroke-width: 0.8; stroke-linecap: square"/>
     </g>
     <g id="line2d_18">
      <g>
       <use xlink:href="#m1c2253439a" x="35.208438" y="281.203839" style="stroke: #000000; stroke-width: 0.8"/>
      </g>
     </g>
     <g id="text_10">
      <!-- 2 -->
      <g transform="translate(21.845938 285.003058) scale(0.1 -0.1)">
       <use xlink:href="#DejaVuSans-32"/>
      </g>
     </g>
    </g>
    <g id="ytick_4">
     <g id="line2d_19">
      <path d="M 35.208438 229.426696 
L 481.408438 229.426696 
" clip-path="url(#p9f994330e8)" style="fill: none; stroke: #b0b0b0; stroke-opacity: 0.3; stroke-width: 0.8; stroke-linecap: square"/>
     </g>
     <g id="line2d_20">
      <g>
       <use xlink:href="#m1c2253439a" x="35.208438" y="229.426696" style="stroke: #000000; stroke-width: 0.8"/>
      </g>
     </g>
     <g id="text_11">
      <!-- 3 -->
      <g transform="translate(21.845938 233.225915) scale(0.1 -0.1)">
       <defs>
        <path id="DejaVuSans-33" d="M 2597 2516 
Q 3050 2419 3304 2112 
Q 3559 1806 3559 1356 
Q 3559 666 3084 287 
Q 2609 -91 1734 -91 
Q 1441 -91 1130 -33 
Q 819 25 488 141 
L 488 750 
Q 750 597 1062 519 
Q 1375 441 1716 441 
Q 2309 441 2620 675 
Q 2931 909 2931 1356 
Q 2931 1769 2642 2001 
Q 2353 2234 1838 2234 
L 1294 2234 
L 1294 2753 
L 1863 2753 
Q 2328 2753 2575 2939 
Q 2822 3125 2822 3475 
Q 2822 3834 2567 4026 
Q 2313 4219 1838 4219 
Q 1578 4219 1281 4162 
Q 984 4106 628 3988 
L 628 4550 
Q 988 4650 1302 4700 
Q 1616 4750 1894 4750 
Q 2613 4750 3031 4423 
Q 3450 4097 3450 3541 
Q 3450 3153 3228 2886 
Q 3006 2619 2597 2516 
z
" transform="scale(0.015625)"/>
       </defs>
       <use xlink:href="#DejaVuSans-33"/>
      </g>
     </g>
    </g>
    <g id="ytick_5">
     <g id="line2d_21">
      <path d="M 35.208438 177.649554 
L 481.408438 177.649554 
" clip-path="url(#p9f994330e8)" style="fill: none; stroke: #b0b0b0; stroke-opacity: 0.3; stroke-width: 0.8; stroke-linecap: square"/>
     </g>
     <g id="line2d_22">
      <g>
       <use xlink:href="#m1c2253439a" x="35.208438" y="177.649554" style="stroke: #000000; stroke-width: 0.8"/>
      </g>
     </g>
     <g id="text_12">
      <!-- 4 -->
      <g transform="translate(21.845938 181.448772) scale(0.1 -0.1)">
       <use xlink:href="#DejaVuSans-34"/>
      </g>
     </g>
    </g>
    <g id="ytick_6">
     <g id="line2d_23">
      <path d="M 35.208438 125.872411 
L 481.408438 125.872411 
" clip-path="url(#p9f994330e8)" style="fill: none; stroke: #b0b0b0; stroke-opacity: 0.3; stroke-width: 0.8; stroke-linecap: square"/>
     </g>
     <g id="line2d_24">
      <g>
       <use xlink:href="#m1c2253439a" x="35.208438" y="125.872411" style="stroke: #000000; stroke-width: 0.8"/>
      </g>
     </g>
     <g id="text_13">
      <!-- 5 -->
      <g transform="translate(21.845938 129.671629) scale(0.1 -0.1)">
       <defs>
        <path id="DejaVuSans-35" d="M 691 4666 
L 3169 4666 
L 3169 4134 
L 1269 4134 
L 1269 2991 
Q 1406 3038 1543 3061 
Q 1681 3084 1819 3084 
Q 2600 3084 3056 2656 
Q 3513 2228 3513 1497 
Q 3513 744 3044 326 
Q 2575 -91 1722 -91 
Q 1428 -91 1123 -41 
Q 819 9 494 109 
L 494 744 
Q 775 591 1075 516 
Q 1375 441 1709 441 
Q 2250 441 2565 725 
Q 2881 1009 2881 1497 
Q 2881 1984 2565 2268 
Q 2250 2553 1709 2553 
Q 1456 2553 1204 2497 
Q 953 2441 691 2322 
L 691 4666 
z
" transform="scale(0.015625)"/>
       </defs>
       <use xlink:href="#DejaVuSans-35"/>
      </g>
     </g>
    </g>
    <g id="ytick_7">
     <g id="line2d_25">
      <path d="M 35.208438 74.095268 
L 481.408438 74.095268 
" clip-path="url(#p9f994330e8)" style="fill: none; stroke: #b0b0b0; stroke-opacity: 0.3; stroke-width: 0.8; stroke-linecap: square"/>
     </g>
     <g id="line2d_26">
      <g>
       <use xlink:href="#m1c2253439a" x="35.208438" y="74.095268" style="stroke: #000000; stroke-width: 0.8"/>
      </g>
     </g>
     <g id="text_14">
      <!-- 6 -->
      <g transform="translate(21.845938 77.894487) scale(0.1 -0.1)">
       <use xlink:href="#DejaVuSans-36"/>
      </g>
     </g>
    </g>
    <g id="ytick_8">
     <g id="line2d_27">
      <path d="M 35.208438 22.318125 
L 481.408438 22.318125 
" clip-path="url(#p9f994330e8)" style="fill: none; stroke: #b0b0b0; stroke-opacity: 0.3; stroke-width: 0.8; stroke-linecap: square"/>
     </g>
     <g id="line2d_28">
      <g>
       <use xlink:href="#m1c2253439a" x="35.208438" y="22.318125" style="stroke: #000000; stroke-width: 0.8"/>
      </g>
     </g>
     <g id="text_15">
      <!-- 7 -->
      <g transform="translate(21.845938 26.117344) scale(0.1 -0.1)">
       <defs>
        <path id="DejaVuSans-37" d="M 525 4666 
L 3525 4666 
L 3525 4397 
L 1831 0 
L 1172 0 
L 2766 4134 
L 525 4134 
L 525 4666 
z
" transform="scale(0.015625)"/>
       </defs>
       <use xlink:href="#DejaVuSans-37"/>
      </g>
     </g>
    </g>
    <g id="text_16">
     <!-- TSAC/IUSAF Ratio -->
     <g transform="translate(15.558281 251.885703) rotate(-90) scale(0.11 -0.11)">
      <defs>
       <path id="DejaVuSans-2f" d="M 1625 4666 
L 2156 4666 
L 531 -594 
L 0 -594 
L 1625 4666 
z
" transform="scale(0.015625)"/>
       <path id="DejaVuSans-49" d="M 628 4666 
L 1259 4666 
L 1259 0 
L 628 0 
L 628 4666 
z
" transform="scale(0.015625)"/>
       <path id="DejaVuSans-55" d="M 556 4666 
L 1191 4666 
L 1191 1831 
Q 1191 1081 1462 751 
Q 1734 422 2344 422 
Q 2950 422 3222 751 
Q 3494 1081 3494 1831 
L 3494 4666 
L 4128 4666 
L 4128 1753 
Q 4128 841 3676 375 
Q 3225 -91 2344 -91 
Q 1459 -91 1007 375 
Q 556 841 556 1753 
L 556 4666 
z
" transform="scale(0.015625)"/>
       <path id="DejaVuSans-46" d="M 628 4666 
L 3309 4666 
L 3309 4134 
L 1259 4134 
L 1259 2759 
L 3109 2759 
L 3109 2228 
L 1259 2228 
L 1259 0 
L 628 0 
L 628 4666 
z
" transform="scale(0.015625)"/>
       <path id="DejaVuSans-52" d="M 2841 2188 
Q 3044 2119 3236 1894 
Q 3428 1669 3622 1275 
L 4263 0 
L 3584 0 
L 2988 1197 
Q 2756 1666 2539 1819 
Q 2322 1972 1947 1972 
L 1259 1972 
L 1259 0 
L 628 0 
L 628 4666 
L 2053 4666 
Q 2853 4666 3247 4331 
Q 3641 3997 3641 3322 
Q 3641 2881 3436 2590 
Q 3231 2300 2841 2188 
z
M 1259 4147 
L 1259 2491 
L 2053 2491 
Q 2509 2491 2742 2702 
Q 2975 2913 2975 3322 
Q 2975 3731 2742 3939 
Q 2509 4147 2053 4147 
L 1259 4147 
z
" transform="scale(0.015625)"/>
       <path id="DejaVuSans-61" d="M 2194 1759 
Q 1497 1759 1228 1600 
Q 959 1441 959 1056 
Q 959 750 1161 570 
Q 1363 391 1709 391 
Q 2188 391 2477 730 
Q 2766 1069 2766 1631 
L 2766 1759 
L 2194 1759 
z
M 3341 1997 
L 3341 0 
L 2766 0 
L 2766 531 
Q 2569 213 2275 61 
Q 1981 -91 1556 -91 
Q 1019 -91 701 211 
Q 384 513 384 1019 
Q 384 1609 779 1909 
Q 1175 2209 1959 2209 
L 2766 2209 
L 2766 2266 
Q 2766 2663 2505 2880 
Q 2244 3097 1772 3097 
Q 1472 3097 1187 3025 
Q 903 2953 641 2809 
L 641 3341 
Q 956 3463 1253 3523 
Q 1550 3584 1831 3584 
Q 2591 3584 2966 3190 
Q 3341 2797 3341 1997 
z
" transform="scale(0.015625)"/>
       <path id="DejaVuSans-6f" d="M 1959 3097 
Q 1497 3097 1228 2736 
Q 959 2375 959 1747 
Q 959 1119 1226 758 
Q 1494 397 1959 397 
Q 2419 397 2687 759 
Q 2956 1122 2956 1747 
Q 2956 2369 2687 2733 
Q 2419 3097 1959 3097 
z
M 1959 3584 
Q 2709 3584 3137 3096 
Q 3566 2609 3566 1747 
Q 3566 888 3137 398 
Q 2709 -91 1959 -91 
Q 1206 -91 779 398 
Q 353 888 353 1747 
Q 353 2609 779 3096 
Q 1206 3584 1959 3584 
z
" transform="scale(0.015625)"/>
      </defs>
      <use xlink:href="#DejaVuSans-54"/>
      <use xlink:href="#DejaVuSans-53" transform="translate(61.083984 0)"/>
      <use xlink:href="#DejaVuSans-41" transform="translate(126.435547 0)"/>
      <use xlink:href="#DejaVuSans-43" transform="translate(193.09375 0)"/>
      <use xlink:href="#DejaVuSans-2f" transform="translate(262.917969 0)"/>
      <use xlink:href="#DejaVuSans-49" transform="translate(296.609375 0)"/>
      <use xlink:href="#DejaVuSans-55" transform="translate(326.101562 0)"/>
      <use xlink:href="#DejaVuSans-53" transform="translate(399.294922 0)"/>
      <use xlink:href="#DejaVuSans-41" transform="translate(464.646484 0)"/>
      <use xlink:href="#DejaVuSans-46" transform="translate(533.054688 0)"/>
      <use xlink:href="#DejaVuSans-20" transform="translate(590.574219 0)"/>
      <use xlink:href="#DejaVuSans-52" transform="translate(622.361328 0)"/>
      <use xlink:href="#DejaVuSans-61" transform="translate(689.59375 0)"/>
      <use xlink:href="#DejaVuSans-74" transform="translate(750.873047 0)"/>
      <use xlink:href="#DejaVuSans-69" transform="translate(790.082031 0)"/>
      <use xlink:href="#DejaVuSans-6f" transform="translate(817.865234 0)"/>
     </g>
    </g>
   </g>
   <g id="line2d_29">
    <path d="M 35.208438 384.758125 
L 57.518438 370.594492 
L 79.828438 356.28332 
L 102.138438 341.822294 
L 124.448438 327.209046 
L 146.758438 312.441161 
L 169.068438 297.51617 
L 191.378438 282.431554 
L 213.688438 267.184738 
L 235.998438 251.773091 
L 258.308438 236.193927 
L 280.618438 220.444498 
L 302.928438 204.521999 
L 325.238438 188.42356 
L 347.548438 172.14625 
L 369.858438 155.687071 
L 392.168438 139.042957 
L 414.478438 122.210774 
L 436.788438 105.187316 
L 459.098438 87.969304 
L 481.408438 70.553384 
" clip-path="url(#p9f994330e8)" style="fill: none; stroke: #d85a30; stroke-width: 2; stroke-linecap: square"/>
    <defs>
     <path id="md027337999" d="M 0 2 
C 0.530406 2 1.03916 1.789267 1.414214 1.414214 
C 1.789267 1.03916 2 0.530406 2 0 
C 2 -0.530406 1.789267 -1.03916 1.414214 -1.414214 
C 1.03916 -1.789267 0.530406 -2 0 -2 
C -0.530406 -2 -1.03916 -1.789267 -1.414214 -1.414214 
C -1.789267 -1.03916 -2 -0.530406 -2 0 
C -2 0.530406 -1.789267 1.03916 -1.414214 1.414214 
C -1.03916 1.789267 -0.530406 2 0 2 
z
" style="stroke: #d85a30"/>
    </defs>
    <g clip-path="url(#p9f994330e8)">
     <use xlink:href="#md027337999" x="35.208438" y="384.758125" style="fill: #d85a30; stroke: #d85a30"/>
     <use xlink:href="#md027337999" x="57.518438" y="370.594492" style="fill: #d85a30; stroke: #d85a30"/>
     <use xlink:href="#md027337999" x="79.828438" y="356.28332" style="fill: #d85a30; stroke: #d85a30"/>
     <use xlink:href="#md027337999" x="102.138438" y="341.822294" style="fill: #d85a30; stroke: #d85a30"/>
     <use xlink:href="#md027337999" x="124.448438" y="327.209046" style="fill: #d85a30; stroke: #d85a30"/>
     <use xlink:href="#md027337999" x="146.758438" y="312.441161" style="fill: #d85a30; stroke: #d85a30"/>
     <use xlink:href="#md027337999" x="169.068438" y="297.51617" style="fill: #d85a30; stroke: #d85a30"/>
     <use xlink:href="#md027337999" x="191.378438" y="282.431554" style="fill: #d85a30; stroke: #d85a30"/>
     <use xlink:href="#md027337999" x="213.688438" y="267.184738" style="fill: #d85a30; stroke: #d85a30"/>
     <use xlink:href="#md027337999" x="235.998438" y="251.773091" style="fill: #d85a30; stroke: #d85a30"/>
     <use xlink:href="#md027337999" x="258.308438" y="236.193927" style="fill: #d85a30; stroke: #d85a30"/>
     <use xlink:href="#md027337999" x="280.618438" y="220.444498" style="fill: #d85a30; stroke: #d85a30"/>
     <use xlink:href="#md027337999" x="302.928438" y="204.521999" style="fill: #d85a30; stroke: #d85a30"/>
     <use xlink:href="#md027337999" x="325.238438" y="188.42356" style="fill: #d85a30; stroke: #d85a30"/>
     <use xlink:href="#md027337999" x="347.548438" y="172.14625" style="fill: #d85a30; stroke: #d85a30"/>
     <use xlink:href="#md027337999" x="369.858438" y="155.687071" style="fill: #d85a30; stroke: #d85a30"/>
     <use xlink:href="#md027337999" x="392.168438" y="139.042957" style="fill: #d85a30; stroke: #d85a30"/>
     <use xlink:href="#md027337999" x="414.478438" y="122.210774" style="fill: #d85a30; stroke: #d85a30"/>
     <use xlink:href="#md027337999" x="436.788438" y="105.187316" style="fill: #d85a30; stroke: #d85a30"/>
     <use xlink:href="#md027337999" x="459.098438" y="87.969304" style="fill: #d85a30; stroke: #d85a30"/>
     <use xlink:href="#md027337999" x="481.408438" y="70.553384" style="fill: #d85a30; stroke: #d85a30"/>
    </g>
   </g>
   <g id="line2d_30">
    <path d="M 35.208438 384.758125 
L 57.518438 378.033002 
L 79.828438 371.237825 
L 102.138438 364.371495 
L 124.448438 357.432887 
L 146.758438 350.420855 
L 169.068438 343.334227 
L 191.378438 336.171806 
L 213.688438 328.93237 
L 235.998438 321.61467 
L 258.308438 314.21743 
L 280.618438 306.739345 
L 302.928438 299.179083 
L 325.238438 291.535283 
L 347.548438 283.806552 
L 369.858438 275.991466 
L 392.168438 268.08857 
L 414.478438 260.096376 
L 436.788438 252.013362 
L 459.098438 243.83797 
L 481.408438 235.568608 
" clip-path="url(#p9f994330e8)" style="fill: none; stroke: #ba7517; stroke-width: 2; stroke-linecap: square"/>
    <defs>
     <path id="mb1565836e5" d="M -2 2 
L 2 2 
L 2 -2 
L -2 -2 
z
" style="stroke: #ba7517; stroke-linejoin: miter"/>
    </defs>
    <g clip-path="url(#p9f994330e8)">
     <use xlink:href="#mb1565836e5" x="35.208438" y="384.758125" style="fill: #ba7517; stroke: #ba7517; stroke-linejoin: miter"/>
     <use xlink:href="#mb1565836e5" x="57.518438" y="378.033002" style="fill: #ba7517; stroke: #ba7517; stroke-linejoin: miter"/>
     <use xlink:href="#mb1565836e5" x="79.828438" y="371.237825" style="fill: #ba7517; stroke: #ba7517; stroke-linejoin: miter"/>
     <use xlink:href="#mb1565836e5" x="102.138438" y="364.371495" style="fill: #ba7517; stroke: #ba7517; stroke-linejoin: miter"/>
     <use xlink:href="#mb1565836e5" x="124.448438" y="357.432887" style="fill: #ba7517; stroke: #ba7517; stroke-linejoin: miter"/>
     <use xlink:href="#mb1565836e5" x="146.758438" y="350.420855" style="fill: #ba7517; stroke: #ba7517; stroke-linejoin: miter"/>
     <use xlink:href="#mb1565836e5" x="169.068438" y="343.334227" style="fill: #ba7517; stroke: #ba7517; stroke-linejoin: miter"/>
     <use xlink:href="#mb1565836e5" x="191.378438" y="336.171806" style="fill: #ba7517; stroke: #ba7517; stroke-linejoin: miter"/>
     <use xlink:href="#mb1565836e5" x="213.688438" y="328.93237" style="fill: #ba7517; stroke: #ba7517; stroke-linejoin: miter"/>
     <use xlink:href="#mb1565836e5" x="235.998438" y="321.61467" style="fill: #ba7517; stroke: #ba7517; stroke-linejoin: miter"/>
     <use xlink:href="#mb1565836e5" x="258.308438" y="314.21743" style="fill: #ba7517; stroke: #ba7517; stroke-linejoin: miter"/>
     <use xlink:href="#mb1565836e5" x="280.618438" y="306.739345" style="fill: #ba7517; stroke: #ba7517; stroke-linejoin: miter"/>
     <use xlink:href="#mb1565836e5" x="302.928438" y="299.179083" style="fill: #ba7517; stroke: #ba7517; stroke-linejoin: miter"/>
     <use xlink:href="#mb1565836e5" x="325.238438" y="291.535283" style="fill: #ba7517; stroke: #ba7517; stroke-linejoin: miter"/>
     <use xlink:href="#mb1565836e5" x="347.548438" y="283.806552" style="fill: #ba7517; stroke: #ba7517; stroke-linejoin: miter"/>
     <use xlink:href="#mb1565836e5" x="369.858438" y="275.991466" style="fill: #ba7517; stroke: #ba7517; stroke-linejoin: miter"/>
     <use xlink:href="#mb1565836e5" x="392.168438" y="268.08857" style="fill: #ba7517; stroke: #ba7517; stroke-linejoin: miter"/>
     <use xlink:href="#mb1565836e5" x="414.478438" y="260.096376" style="fill: #ba7517; stroke: #ba7517; stroke-linejoin: miter"/>
     <use xlink:href="#mb1565836e5" x="436.788438" y="252.013362" style="fill: #ba7517; stroke: #ba7517; stroke-linejoin: miter"/>
     <use xlink:href="#mb1565836e5" x="459.098438" y="243.83797" style="fill: #ba7517; stroke: #ba7517; stroke-linejoin: miter"/>
     <use xlink:href="#mb1565836e5" x="481.408438" y="235.568608" style="fill: #ba7517; stroke: #ba7517; stroke-linejoin: miter"/>
    </g>
   </g>
   <g id="line2d_31">
    <path d="M 102.138438 384.758125 
L 102.138438 22.318125 
" clip-path="url(#p9f994330e8)" style="fill: none; stroke-dasharray: 5.55,2.4; stroke-dashoffset: 0; stroke: #1d9e75; stroke-opacity: 0.8; stroke-width: 1.5"/>
   </g>
   <g id="line2d_32">
    <path d="M 191.378438 384.758125 
L 191.378438 22.318125 
" clip-path="url(#p9f994330e8)" style="fill: none; stroke-dasharray: 5.55,2.4; stroke-dashoffset: 0; stroke: #378add; stroke-opacity: 0.8; stroke-width: 1.5"/>
   </g>
   <g id="line2d_33">
    <path d="M 258.308438 384.758125 
L 258.308438 22.318125 
" clip-path="url(#p9f994330e8)" style="fill: none; stroke-dasharray: 5.55,2.4; stroke-dashoffset: 0; stroke: #8b5cf6; stroke-opacity: 0.8; stroke-width: 1.5"/>
   </g>
   <g id="line2d_34">
    <path d="M 115.602871 384.758125 
L 115.602871 22.318125 
" clip-path="url(#p9f994330e8)" style="fill: none; stroke: #ef4444; stroke-width: 2; stroke-linecap: square"/>
   </g>
   <g id="line2d_35">
    <path d="M 35.208438 332.980982 
L 481.408438 332.980982 
" clip-path="url(#p9f994330e8)" style="fill: none; stroke: #333333; stroke-opacity: 0.5; stroke-linecap: square"/>
   </g>
   <g id="patch_3">
    <path d="M 35.208438 384.758125 
L 35.208438 22.318125 
" style="fill: none; stroke: #000000; stroke-width: 0.8; stroke-linejoin: miter; stroke-linecap: square"/>
   </g>
   <g id="patch_4">
    <path d="M 481.408438 384.758125 
L 481.408438 22.318125 
" style="fill: none; stroke: #000000; stroke-width: 0.8; stroke-linejoin: miter; stroke-linecap: square"/>
   </g>
   <g id="patch_5">
    <path d="M 35.208438 384.758125 
L 481.408438 384.758125 
" style="fill: none; stroke: #000000; stroke-width: 0.8; stroke-linejoin: miter; stroke-linecap: square"/>
   </g>
   <g id="patch_6">
    <path d="M 35.208438 22.318125 
L 481.408438 22.318125 
" style="fill: none; stroke: #000000; stroke-width: 0.8; stroke-linejoin: miter; stroke-linecap: square"/>
   </g>
   <g id="text_17">
    <!-- TSAC Component vs IUSAF Baseline -->
    <g transform="translate(137.450625 16.318125) scale(0.12 -0.12)">
     <defs>
      <path id="DejaVuSans-Bold-54" d="M 31 4666 
L 4331 4666 
L 4331 3756 
L 2784 3756 
L 2784 0 
L 1581 0 
L 1581 3756 
L 31 3756 
L 31 4666 
z
" transform="scale(0.015625)"/>
      <path id="DejaVuSans-Bold-53" d="M 3834 4519 
L 3834 3531 
Q 3450 3703 3084 3790 
Q 2719 3878 2394 3878 
Q 1963 3878 1756 3759 
Q 1550 3641 1550 3391 
Q 1550 3203 1689 3098 
Q 1828 2994 2194 2919 
L 2706 2816 
Q 3484 2659 3812 2340 
Q 4141 2022 4141 1434 
Q 4141 663 3683 286 
Q 3225 -91 2284 -91 
Q 1841 -91 1394 -6 
Q 947 78 500 244 
L 500 1259 
Q 947 1022 1364 901 
Q 1781 781 2169 781 
Q 2563 781 2772 912 
Q 2981 1044 2981 1288 
Q 2981 1506 2839 1625 
Q 2697 1744 2272 1838 
L 1806 1941 
Q 1106 2091 782 2419 
Q 459 2747 459 3303 
Q 459 4000 909 4375 
Q 1359 4750 2203 4750 
Q 2588 4750 2994 4692 
Q 3400 4634 3834 4519 
z
" transform="scale(0.015625)"/>
      <path id="DejaVuSans-Bold-41" d="M 3419 850 
L 1538 850 
L 1241 0 
L 31 0 
L 1759 4666 
L 3194 4666 
L 4922 0 
L 3713 0 
L 3419 850 
z
M 1838 1716 
L 3116 1716 
L 2478 3572 
L 1838 1716 
z
" transform="scale(0.015625)"/>
      <path id="DejaVuSans-Bold-43" d="M 4288 256 
Q 3956 84 3597 -3 
Q 3238 -91 2847 -91 
Q 1681 -91 1000 561 
Q 319 1213 319 2328 
Q 319 3447 1000 4098 
Q 1681 4750 2847 4750 
Q 3238 4750 3597 4662 
Q 3956 4575 4288 4403 
L 4288 3438 
Q 3953 3666 3628 3772 
Q 3303 3878 2944 3878 
Q 2300 3878 1931 3465 
Q 1563 3053 1563 2328 
Q 1563 1606 1931 1193 
Q 2300 781 2944 781 
Q 3303 781 3628 887 
Q 3953 994 4288 1222 
L 4288 256 
z
" transform="scale(0.015625)"/>
      <path id="DejaVuSans-Bold-20" transform="scale(0.015625)"/>
      <path id="DejaVuSans-Bold-6f" d="M 2203 2784 
Q 1831 2784 1636 2517 
Q 1441 2250 1441 1747 
Q 1441 1244 1636 976 
Q 1831 709 2203 709 
Q 2569 709 2762 976 
Q 2956 1244 2956 1747 
Q 2956 2250 2762 2517 
Q 2569 2784 2203 2784 
z
M 2203 3584 
Q 3106 3584 3614 3096 
Q 4122 2609 4122 1747 
Q 4122 884 3614 396 
Q 3106 -91 2203 -91 
Q 1297 -91 786 396 
Q 275 884 275 1747 
Q 275 2609 786 3096 
Q 1297 3584 2203 3584 
z
" transform="scale(0.015625)"/>
      <path id="DejaVuSans-Bold-6d" d="M 3781 2919 
Q 3994 3244 4286 3414 
Q 4578 3584 4928 3584 
Q 5531 3584 5847 3212 
Q 6163 2841 6163 2131 
L 6163 0 
L 5038 0 
L 5038 1825 
Q 5041 1866 5042 1909 
Q 5044 1953 5044 2034 
Q 5044 2406 4934 2573 
Q 4825 2741 4581 2741 
Q 4263 2741 4089 2478 
Q 3916 2216 3909 1719 
L 3909 0 
L 2784 0 
L 2784 1825 
Q 2784 2406 2684 2573 
Q 2584 2741 2328 2741 
Q 2006 2741 1831 2477 
Q 1656 2213 1656 1722 
L 1656 0 
L 531 0 
L 531 3500 
L 1656 3500 
L 1656 2988 
Q 1863 3284 2130 3434 
Q 2397 3584 2719 3584 
Q 3081 3584 3359 3409 
Q 3638 3234 3781 2919 
z
" transform="scale(0.015625)"/>
      <path id="DejaVuSans-Bold-70" d="M 1656 506 
L 1656 -1331 
L 538 -1331 
L 538 3500 
L 1656 3500 
L 1656 2988 
Q 1888 3294 2169 3439 
Q 2450 3584 2816 3584 
Q 3463 3584 3878 3070 
Q 4294 2556 4294 1747 
Q 4294 938 3878 423 
Q 3463 -91 2816 -91 
Q 2450 -91 2169 54 
Q 1888 200 1656 506 
z
M 2400 2772 
Q 2041 2772 1848 2508 
Q 1656 2244 1656 1747 
Q 1656 1250 1848 986 
Q 2041 722 2400 722 
Q 2759 722 2948 984 
Q 3138 1247 3138 1747 
Q 3138 2247 2948 2509 
Q 2759 2772 2400 2772 
z
" transform="scale(0.015625)"/>
      <path id="DejaVuSans-Bold-6e" d="M 4056 2131 
L 4056 0 
L 2931 0 
L 2931 347 
L 2931 1631 
Q 2931 2084 2911 2256 
Q 2891 2428 2841 2509 
Q 2775 2619 2662 2680 
Q 2550 2741 2406 2741 
Q 2056 2741 1856 2470 
Q 1656 2200 1656 1722 
L 1656 0 
L 538 0 
L 538 3500 
L 1656 3500 
L 1656 2988 
Q 1909 3294 2193 3439 
Q 2478 3584 2822 3584 
Q 3428 3584 3742 3212 
Q 4056 2841 4056 2131 
z
" transform="scale(0.015625)"/>
      <path id="DejaVuSans-Bold-65" d="M 4031 1759 
L 4031 1441 
L 1416 1441 
Q 1456 1047 1700 850 
Q 1944 653 2381 653 
Q 2734 653 3104 758 
Q 3475 863 3866 1075 
L 3866 213 
Q 3469 63 3072 -14 
Q 2675 -91 2278 -91 
Q 1328 -91 801 392 
Q 275 875 275 1747 
Q 275 2603 792 3093 
Q 1309 3584 2216 3584 
Q 3041 3584 3536 3087 
Q 4031 2591 4031 1759 
z
M 2881 2131 
Q 2881 2450 2695 2645 
Q 2509 2841 2209 2841 
Q 1884 2841 1681 2658 
Q 1478 2475 1428 2131 
L 2881 2131 
z
" transform="scale(0.015625)"/>
      <path id="DejaVuSans-Bold-74" d="M 1759 4494 
L 1759 3500 
L 2913 3500 
L 2913 2700 
L 1759 2700 
L 1759 1216 
Q 1759 972 1856 886 
Q 1953 800 2241 800 
L 2816 800 
L 2816 0 
L 1856 0 
Q 1194 0 917 276 
Q 641 553 641 1216 
L 641 2700 
L 84 2700 
L 84 3500 
L 641 3500 
L 641 4494 
L 1759 4494 
z
" transform="scale(0.015625)"/>
      <path id="DejaVuSans-Bold-76" d="M 97 3500 
L 1216 3500 
L 2088 1081 
L 2956 3500 
L 4078 3500 
L 2700 0 
L 1472 0 
L 97 3500 
z
" transform="scale(0.015625)"/>
      <path id="DejaVuSans-Bold-73" d="M 3272 3391 
L 3272 2541 
Q 2913 2691 2578 2766 
Q 2244 2841 1947 2841 
Q 1628 2841 1473 2761 
Q 1319 2681 1319 2516 
Q 1319 2381 1436 2309 
Q 1553 2238 1856 2203 
L 2053 2175 
Q 2913 2066 3209 1816 
Q 3506 1566 3506 1031 
Q 3506 472 3093 190 
Q 2681 -91 1863 -91 
Q 1516 -91 1145 -36 
Q 775 19 384 128 
L 384 978 
Q 719 816 1070 734 
Q 1422 653 1784 653 
Q 2113 653 2278 743 
Q 2444 834 2444 1013 
Q 2444 1163 2330 1236 
Q 2216 1309 1875 1350 
L 1678 1375 
Q 931 1469 631 1722 
Q 331 1975 331 2491 
Q 331 3047 712 3315 
Q 1094 3584 1881 3584 
Q 2191 3584 2531 3537 
Q 2872 3491 3272 3391 
z
" transform="scale(0.015625)"/>
      <path id="DejaVuSans-Bold-49" d="M 588 4666 
L 1791 4666 
L 1791 0 
L 588 0 
L 588 4666 
z
" transform="scale(0.015625)"/>
      <path id="DejaVuSans-Bold-55" d="M 588 4666 
L 1791 4666 
L 1791 1869 
Q 1791 1291 1980 1042 
Q 2169 794 2597 794 
Q 3028 794 3217 1042 
Q 3406 1291 3406 1869 
L 3406 4666 
L 4609 4666 
L 4609 1869 
Q 4609 878 4112 393 
Q 3616 -91 2597 -91 
Q 1581 -91 1084 393 
Q 588 878 588 1869 
L 588 4666 
z
" transform="scale(0.015625)"/>
      <path id="DejaVuSans-Bold-46" d="M 588 4666 
L 3834 4666 
L 3834 3756 
L 1791 3756 
L 1791 2888 
L 3713 2888 
L 3713 1978 
L 1791 1978 
L 1791 0 
L 588 0 
L 588 4666 
z
" transform="scale(0.015625)"/>
      <path id="DejaVuSans-Bold-42" d="M 2456 2859 
Q 2741 2859 2887 2984 
Q 3034 3109 3034 3353 
Q 3034 3594 2887 3720 
Q 2741 3847 2456 3847 
L 1791 3847 
L 1791 2859 
L 2456 2859 
z
M 2497 819 
Q 2859 819 3042 972 
Q 3225 1125 3225 1434 
Q 3225 1738 3044 1889 
Q 2863 2041 2497 2041 
L 1791 2041 
L 1791 819 
L 2497 819 
z
M 3616 2497 
Q 4003 2384 4215 2081 
Q 4428 1778 4428 1338 
Q 4428 663 3972 331 
Q 3516 0 2584 0 
L 588 0 
L 588 4666 
L 2394 4666 
Q 3366 4666 3802 4372 
Q 4238 4078 4238 3431 
Q 4238 3091 4078 2852 
Q 3919 2613 3616 2497 
z
" transform="scale(0.015625)"/>
      <path id="DejaVuSans-Bold-61" d="M 2106 1575 
Q 1756 1575 1579 1456 
Q 1403 1338 1403 1106 
Q 1403 894 1545 773 
Q 1688 653 1941 653 
Q 2256 653 2472 879 
Q 2688 1106 2688 1447 
L 2688 1575 
L 2106 1575 
z
M 3816 1997 
L 3816 0 
L 2688 0 
L 2688 519 
Q 2463 200 2181 54 
Q 1900 -91 1497 -91 
Q 953 -91 614 226 
Q 275 544 275 1050 
Q 275 1666 698 1953 
Q 1122 2241 2028 2241 
L 2688 2241 
L 2688 2328 
Q 2688 2594 2478 2717 
Q 2269 2841 1825 2841 
Q 1466 2841 1156 2769 
Q 847 2697 581 2553 
L 581 3406 
Q 941 3494 1303 3539 
Q 1666 3584 2028 3584 
Q 2975 3584 3395 3211 
Q 3816 2838 3816 1997 
z
" transform="scale(0.015625)"/>
      <path id="DejaVuSans-Bold-6c" d="M 538 4863 
L 1656 4863 
L 1656 0 
L 538 0 
L 538 4863 
z
" transform="scale(0.015625)"/>
      <path id="DejaVuSans-Bold-69" d="M 538 3500 
L 1656 3500 
L 1656 0 
L 538 0 
L 538 3500 
z
M 538 4863 
L 1656 4863 
L 1656 3950 
L 538 3950 
L 538 4863 
z
" transform="scale(0.015625)"/>
     </defs>
     <use xlink:href="#DejaVuSans-Bold-54"/>
     <use xlink:href="#DejaVuSans-Bold-53" transform="translate(68.212891 0)"/>
     <use xlink:href="#DejaVuSans-Bold-41" transform="translate(140.234375 0)"/>
     <use xlink:href="#DejaVuSans-Bold-43" transform="translate(217.626953 0)"/>
     <use xlink:href="#DejaVuSans-Bold-20" transform="translate(291.015625 0)"/>
     <use xlink:href="#DejaVuSans-Bold-43" transform="translate(325.830078 0)"/>
     <use xlink:href="#DejaVuSans-Bold-6f" transform="translate(399.21875 0)"/>
     <use xlink:href="#DejaVuSans-Bold-6d" transform="translate(467.919922 0)"/>
     <use xlink:href="#DejaVuSans-Bold-70" transform="translate(572.119141 0)"/>
     <use xlink:href="#DejaVuSans-Bold-6f" transform="translate(643.701172 0)"/>
     <use xlink:href="#DejaVuSans-Bold-6e" transform="translate(712.402344 0)"/>
     <use xlink:href="#DejaVuSans-Bold-65" transform="translate(783.59375 0)"/>
     <use xlink:href="#DejaVuSans-Bold-6e" transform="translate(851.416016 0)"/>
     <use xlink:href="#DejaVuSans-Bold-74" transform="translate(922.607422 0)"/>
     <use xlink:href="#DejaVuSans-Bold-20" transform="translate(970.410156 0)"/>
     <use xlink:href="#DejaVuSans-Bold-76" transform="translate(1005.224609 0)"/>
     <use xlink:href="#DejaVuSans-Bold-73" transform="translate(1070.410156 0)"/>
     <use xlink:href="#DejaVuSans-Bold-20" transform="translate(1129.931641 0)"/>
     <use xlink:href="#DejaVuSans-Bold-49" transform="translate(1164.746094 0)"/>
     <use xlink:href="#DejaVuSans-Bold-55" transform="translate(1201.953125 0)"/>
     <use xlink:href="#DejaVuSans-Bold-53" transform="translate(1283.154297 0)"/>
     <use xlink:href="#DejaVuSans-Bold-41" transform="translate(1355.175781 0)"/>
     <use xlink:href="#DejaVuSans-Bold-46" transform="translate(1432.568359 0)"/>
     <use xlink:href="#DejaVuSans-Bold-20" transform="translate(1500.878906 0)"/>
     <use xlink:href="#DejaVuSans-Bold-42" transform="translate(1535.693359 0)"/>
     <use xlink:href="#DejaVuSans-Bold-61" transform="translate(1611.914062 0)"/>
     <use xlink:href="#DejaVuSans-Bold-73" transform="translate(1679.394531 0)"/>
     <use xlink:href="#DejaVuSans-Bold-65" transform="translate(1738.916016 0)"/>
     <use xlink:href="#DejaVuSans-Bold-6c" transform="translate(1806.738281 0)"/>
     <use xlink:href="#DejaVuSans-Bold-69" transform="translate(1841.015625 0)"/>
     <use xlink:href="#DejaVuSans-Bold-6e" transform="translate(1875.292969 0)"/>
     <use xlink:href="#DejaVuSans-Bold-65" transform="translate(1946.484375 0)"/>
    </g>
   </g>
   <g id="legend_1">
    <g id="patch_7">
     <path d="M 41.508438 108.78 
L 175.432656 108.78 
Q 177.232656 108.78 177.232656 106.98 
L 177.232656 28.618125 
Q 177.232656 26.818125 175.432656 26.818125 
L 41.508438 26.818125 
Q 39.708438 26.818125 39.708438 28.618125 
L 39.708438 106.98 
Q 39.708438 108.78 41.508438 108.78 
z
" style="fill: #ffffff; opacity: 0.8; stroke: #cccccc; stroke-linejoin: miter"/>
    </g>
    <g id="line2d_36">
     <path d="M 43.308438 34.106719 
L 52.308438 34.106719 
L 61.308438 34.106719 
" style="fill: none; stroke: #d85a30; stroke-width: 2; stroke-linecap: square"/>
     <g>
      <use xlink:href="#md027337999" x="52.308438" y="34.106719" style="fill: #d85a30; stroke: #d85a30"/>
     </g>
    </g>
    <g id="text_18">
     <!-- China -->
     <g transform="translate(68.508438 37.256719) scale(0.09 -0.09)">
      <defs>
       <path id="DejaVuSans-6e" d="M 3513 2113 
L 3513 0 
L 2938 0 
L 2938 2094 
Q 2938 2591 2744 2837 
Q 2550 3084 2163 3084 
Q 1697 3084 1428 2787 
Q 1159 2491 1159 1978 
L 1159 0 
L 581 0 
L 581 3500 
L 1159 3500 
L 1159 2956 
Q 1366 3272 1645 3428 
Q 1925 3584 2291 3584 
Q 2894 3584 3203 3211 
Q 3513 2838 3513 2113 
z
" transform="scale(0.015625)"/>
      </defs>
      <use xlink:href="#DejaVuSans-43"/>
      <use xlink:href="#DejaVuSans-68" transform="translate(69.824219 0)"/>
      <use xlink:href="#DejaVuSans-69" transform="translate(133.203125 0)"/>
      <use xlink:href="#DejaVuSans-6e" transform="translate(160.986328 0)"/>
      <use xlink:href="#DejaVuSans-61" transform="translate(224.365234 0)"/>
     </g>
    </g>
    <g id="line2d_37">
     <path d="M 43.308438 47.317031 
L 52.308438 47.317031 
L 61.308438 47.317031 
" style="fill: none; stroke: #ba7517; stroke-width: 2; stroke-linecap: square"/>
     <g>
      <use xlink:href="#mb1565836e5" x="52.308438" y="47.317031" style="fill: #ba7517; stroke: #ba7517; stroke-linejoin: miter"/>
     </g>
    </g>
    <g id="text_19">
     <!-- Brazil -->
     <g transform="translate(68.508438 50.467031) scale(0.09 -0.09)">
      <defs>
       <path id="DejaVuSans-42" d="M 1259 2228 
L 1259 519 
L 2272 519 
Q 2781 519 3026 730 
Q 3272 941 3272 1375 
Q 3272 1813 3026 2020 
Q 2781 2228 2272 2228 
L 1259 2228 
z
M 1259 4147 
L 1259 2741 
L 2194 2741 
Q 2656 2741 2882 2914 
Q 3109 3088 3109 3444 
Q 3109 3797 2882 3972 
Q 2656 4147 2194 4147 
L 1259 4147 
z
M 628 4666 
L 2241 4666 
Q 2963 4666 3353 4366 
Q 3744 4066 3744 3513 
Q 3744 3084 3544 2831 
Q 3344 2578 2956 2516 
Q 3422 2416 3680 2098 
Q 3938 1781 3938 1306 
Q 3938 681 3513 340 
Q 3088 0 2303 0 
L 628 0 
L 628 4666 
z
" transform="scale(0.015625)"/>
       <path id="DejaVuSans-72" d="M 2631 2963 
Q 2534 3019 2420 3045 
Q 2306 3072 2169 3072 
Q 1681 3072 1420 2755 
Q 1159 2438 1159 1844 
L 1159 0 
L 581 0 
L 581 3500 
L 1159 3500 
L 1159 2956 
Q 1341 3275 1631 3429 
Q 1922 3584 2338 3584 
Q 2397 3584 2469 3576 
Q 2541 3569 2628 3553 
L 2631 2963 
z
" transform="scale(0.015625)"/>
       <path id="DejaVuSans-7a" d="M 353 3500 
L 3084 3500 
L 3084 2975 
L 922 459 
L 3084 459 
L 3084 0 
L 275 0 
L 275 525 
L 2438 3041 
L 353 3041 
L 353 3500 
z
" transform="scale(0.015625)"/>
       <path id="DejaVuSans-6c" d="M 603 4863 
L 1178 4863 
L 1178 0 
L 603 0 
L 603 4863 
z
" transform="scale(0.015625)"/>
      </defs>
      <use xlink:href="#DejaVuSans-42"/>
      <use xlink:href="#DejaVuSans-72" transform="translate(68.603516 0)"/>
      <use xlink:href="#DejaVuSans-61" transform="translate(109.716797 0)"/>
      <use xlink:href="#DejaVuSans-7a" transform="translate(170.996094 0)"/>
      <use xlink:href="#DejaVuSans-69" transform="translate(223.486328 0)"/>
      <use xlink:href="#DejaVuSans-6c" transform="translate(251.269531 0)"/>
     </g>
    </g>
    <g id="line2d_38">
     <path d="M 43.308438 60.527344 
L 52.308438 60.527344 
L 61.308438 60.527344 
" style="fill: none; stroke-dasharray: 5.55,2.4; stroke-dashoffset: 0; stroke: #1d9e75; stroke-opacity: 0.8; stroke-width: 1.5"/>
    </g>
    <g id="text_20">
     <!-- Strict (1.5%) -->
     <g transform="translate(68.508438 63.677344) scale(0.09 -0.09)">
      <defs>
       <path id="DejaVuSans-63" d="M 3122 3366 
L 3122 2828 
Q 2878 2963 2633 3030 
Q 2388 3097 2138 3097 
Q 1578 3097 1268 2742 
Q 959 2388 959 1747 
Q 959 1106 1268 751 
Q 1578 397 2138 397 
Q 2388 397 2633 464 
Q 2878 531 3122 666 
L 3122 134 
Q 2881 22 2623 -34 
Q 2366 -91 2075 -91 
Q 1284 -91 818 406 
Q 353 903 353 1747 
Q 353 2603 823 3093 
Q 1294 3584 2113 3584 
Q 2378 3584 2631 3529 
Q 2884 3475 3122 3366 
z
" transform="scale(0.015625)"/>
       <path id="DejaVuSans-2e" d="M 684 794 
L 1344 794 
L 1344 0 
L 684 0 
L 684 794 
z
" transform="scale(0.015625)"/>
       <path id="DejaVuSans-25" d="M 4653 2053 
Q 4381 2053 4226 1822 
Q 4072 1591 4072 1178 
Q 4072 772 4226 539 
Q 4381 306 4653 306 
Q 4919 306 5073 539 
Q 5228 772 5228 1178 
Q 5228 1588 5073 1820 
Q 4919 2053 4653 2053 
z
M 4653 2450 
Q 5147 2450 5437 2106 
Q 5728 1763 5728 1178 
Q 5728 594 5436 251 
Q 5144 -91 4653 -91 
Q 4153 -91 3862 251 
Q 3572 594 3572 1178 
Q 3572 1766 3864 2108 
Q 4156 2450 4653 2450 
z
M 1428 4353 
Q 1159 4353 1004 4120 
Q 850 3888 850 3481 
Q 850 3069 1003 2837 
Q 1156 2606 1428 2606 
Q 1700 2606 1854 2837 
Q 2009 3069 2009 3481 
Q 2009 3884 1853 4118 
Q 1697 4353 1428 4353 
z
M 4250 4750 
L 4750 4750 
L 1831 -91 
L 1331 -91 
L 4250 4750 
z
M 1428 4750 
Q 1922 4750 2215 4408 
Q 2509 4066 2509 3481 
Q 2509 2891 2217 2550 
Q 1925 2209 1428 2209 
Q 931 2209 642 2551 
Q 353 2894 353 3481 
Q 353 4063 643 4406 
Q 934 4750 1428 4750 
z
" transform="scale(0.015625)"/>
      </defs>
      <use xlink:href="#DejaVuSans-53"/>
      <use xlink:href="#DejaVuSans-74" transform="translate(63.476562 0)"/>
      <use xlink:href="#DejaVuSans-72" transform="translate(102.685547 0)"/>
      <use xlink:href="#DejaVuSans-69" transform="translate(143.798828 0)"/>
      <use xlink:href="#DejaVuSans-63" transform="translate(171.582031 0)"/>
      <use xlink:href="#DejaVuSans-74" transform="translate(226.5625 0)"/>
      <use xlink:href="#DejaVuSans-20" transform="translate(265.771484 0)"/>
      <use xlink:href="#DejaVuSans-28" transform="translate(297.558594 0)"/>
      <use xlink:href="#DejaVuSans-31" transform="translate(336.572266 0)"/>
      <use xlink:href="#DejaVuSans-2e" transform="translate(400.195312 0)"/>
      <use xlink:href="#DejaVuSans-35" transform="translate(431.982422 0)"/>
      <use xlink:href="#DejaVuSans-25" transform="translate(495.605469 0)"/>
      <use xlink:href="#DejaVuSans-29" transform="translate(590.625 0)"/>
     </g>
    </g>
    <g id="line2d_39">
     <path d="M 43.308438 73.737656 
L 52.308438 73.737656 
L 61.308438 73.737656 
" style="fill: none; stroke-dasharray: 5.55,2.4; stroke-dashoffset: 0; stroke: #378add; stroke-opacity: 0.8; stroke-width: 1.5"/>
    </g>
    <g id="text_21">
     <!-- Bounded (3.5%) -->
     <g transform="translate(68.508438 76.887656) scale(0.09 -0.09)">
      <defs>
       <path id="DejaVuSans-75" d="M 544 1381 
L 544 3500 
L 1119 3500 
L 1119 1403 
Q 1119 906 1312 657 
Q 1506 409 1894 409 
Q 2359 409 2629 706 
Q 2900 1003 2900 1516 
L 2900 3500 
L 3475 3500 
L 3475 0 
L 2900 0 
L 2900 538 
Q 2691 219 2414 64 
Q 2138 -91 1772 -91 
Q 1169 -91 856 284 
Q 544 659 544 1381 
z
M 1991 3584 
L 1991 3584 
z
" transform="scale(0.015625)"/>
       <path id="DejaVuSans-64" d="M 2906 2969 
L 2906 4863 
L 3481 4863 
L 3481 0 
L 2906 0 
L 2906 525 
Q 2725 213 2448 61 
Q 2172 -91 1784 -91 
Q 1150 -91 751 415 
Q 353 922 353 1747 
Q 353 2572 751 3078 
Q 1150 3584 1784 3584 
Q 2172 3584 2448 3432 
Q 2725 3281 2906 2969 
z
M 947 1747 
Q 947 1113 1208 752 
Q 1469 391 1925 391 
Q 2381 391 2643 752 
Q 2906 1113 2906 1747 
Q 2906 2381 2643 2742 
Q 2381 3103 1925 3103 
Q 1469 3103 1208 2742 
Q 947 2381 947 1747 
z
" transform="scale(0.015625)"/>
      </defs>
      <use xlink:href="#DejaVuSans-42"/>
      <use xlink:href="#DejaVuSans-6f" transform="translate(68.603516 0)"/>
      <use xlink:href="#DejaVuSans-75" transform="translate(129.785156 0)"/>
      <use xlink:href="#DejaVuSans-6e" transform="translate(193.164062 0)"/>
      <use xlink:href="#DejaVuSans-64" transform="translate(256.542969 0)"/>
      <use xlink:href="#DejaVuSans-65" transform="translate(320.019531 0)"/>
      <use xlink:href="#DejaVuSans-64" transform="translate(381.542969 0)"/>
      <use xlink:href="#DejaVuSans-20" transform="translate(445.019531 0)"/>
      <use xlink:href="#DejaVuSans-28" transform="translate(476.806641 0)"/>
      <use xlink:href="#DejaVuSans-33" transform="translate(515.820312 0)"/>
      <use xlink:href="#DejaVuSans-2e" transform="translate(579.443359 0)"/>
      <use xlink:href="#DejaVuSans-35" transform="translate(611.230469 0)"/>
      <use xlink:href="#DejaVuSans-25" transform="translate(674.853516 0)"/>
      <use xlink:href="#DejaVuSans-29" transform="translate(769.873047 0)"/>
     </g>
    </g>
    <g id="line2d_40">
     <path d="M 43.308438 86.947969 
L 52.308438 86.947969 
L 61.308438 86.947969 
" style="fill: none; stroke-dasharray: 5.55,2.4; stroke-dashoffset: 0; stroke: #8b5cf6; stroke-opacity: 0.8; stroke-width: 1.5"/>
    </g>
    <g id="text_22">
     <!-- Even (5.0%) -->
     <g transform="translate(68.508438 90.097969) scale(0.09 -0.09)">
      <defs>
       <path id="DejaVuSans-45" d="M 628 4666 
L 3578 4666 
L 3578 4134 
L 1259 4134 
L 1259 2753 
L 3481 2753 
L 3481 2222 
L 1259 2222 
L 1259 531 
L 3634 531 
L 3634 0 
L 628 0 
L 628 4666 
z
" transform="scale(0.015625)"/>
       <path id="DejaVuSans-76" d="M 191 3500 
L 800 3500 
L 1894 563 
L 2988 3500 
L 3597 3500 
L 2284 0 
L 1503 0 
L 191 3500 
z
" transform="scale(0.015625)"/>
      </defs>
      <use xlink:href="#DejaVuSans-45"/>
      <use xlink:href="#DejaVuSans-76" transform="translate(63.183594 0)"/>
      <use xlink:href="#DejaVuSans-65" transform="translate(122.363281 0)"/>
      <use xlink:href="#DejaVuSans-6e" transform="translate(183.886719 0)"/>
      <use xlink:href="#DejaVuSans-20" transform="translate(247.265625 0)"/>
      <use xlink:href="#DejaVuSans-28" transform="translate(279.052734 0)"/>
      <use xlink:href="#DejaVuSans-35" transform="translate(318.066406 0)"/>
      <use xlink:href="#DejaVuSans-2e" transform="translate(381.689453 0)"/>
      <use xlink:href="#DejaVuSans-30" transform="translate(413.476562 0)"/>
      <use xlink:href="#DejaVuSans-25" transform="translate(477.099609 0)"/>
      <use xlink:href="#DejaVuSans-29" transform="translate(572.119141 0)"/>
     </g>
    </g>
    <g id="line2d_41">
     <path d="M 43.308438 100.158281 
L 52.308438 100.158281 
L 61.308438 100.158281 
" style="fill: none; stroke: #ef4444; stroke-width: 2; stroke-linecap: square"/>
    </g>
    <g id="text_23">
     <!-- TSAC Overturn (1.80%) -->
     <g transform="translate(68.508438 103.308281) scale(0.09 -0.09)">
      <defs>
       <path id="DejaVuSans-4f" d="M 2522 4238 
Q 1834 4238 1429 3725 
Q 1025 3213 1025 2328 
Q 1025 1447 1429 934 
Q 1834 422 2522 422 
Q 3209 422 3611 934 
Q 4013 1447 4013 2328 
Q 4013 3213 3611 3725 
Q 3209 4238 2522 4238 
z
M 2522 4750 
Q 3503 4750 4090 4092 
Q 4678 3434 4678 2328 
Q 4678 1225 4090 567 
Q 3503 -91 2522 -91 
Q 1538 -91 948 565 
Q 359 1222 359 2328 
Q 359 3434 948 4092 
Q 1538 4750 2522 4750 
z
" transform="scale(0.015625)"/>
      </defs>
      <use xlink:href="#DejaVuSans-54"/>
      <use xlink:href="#DejaVuSans-53" transform="translate(61.083984 0)"/>
      <use xlink:href="#DejaVuSans-41" transform="translate(126.435547 0)"/>
      <use xlink:href="#DejaVuSans-43" transform="translate(193.09375 0)"/>
      <use xlink:href="#DejaVuSans-20" transform="translate(262.917969 0)"/>
      <use xlink:href="#DejaVuSans-4f" transform="translate(294.705078 0)"/>
      <use xlink:href="#DejaVuSans-76" transform="translate(373.416016 0)"/>
      <use xlink:href="#DejaVuSans-65" transform="translate(432.595703 0)"/>
      <use xlink:href="#DejaVuSans-72" transform="translate(494.119141 0)"/>
      <use xlink:href="#DejaVuSans-74" transform="translate(535.232422 0)"/>
      <use xlink:href="#DejaVuSans-75" transform="translate(574.441406 0)"/>
      <use xlink:href="#DejaVuSans-72" transform="translate(637.820312 0)"/>
      <use xlink:href="#DejaVuSans-6e" transform="translate(677.183594 0)"/>
      <use xlink:href="#DejaVuSans-20" transform="translate(740.5625 0)"/>
      <use xlink:href="#DejaVuSans-28" transform="translate(772.349609 0)"/>
      <use xlink:href="#DejaVuSans-31" transform="translate(811.363281 0)"/>
      <use xlink:href="#DejaVuSans-2e" transform="translate(874.986328 0)"/>
      <use xlink:href="#DejaVuSans-38" transform="translate(906.773438 0)"/>
      <use xlink:href="#DejaVuSans-30" transform="translate(970.396484 0)"/>
      <use xlink:href="#DejaVuSans-25" transform="translate(1034.019531 0)"/>
      <use xlink:href="#DejaVuSans-29" transform="translate(1129.039062 0)"/>
     </g>
    </g>
   </g>
  </g>
  <g id="axes_2">
   <g id="patch_8">
    <path d="M 536.193438 384.758125 
L 982.393438 384.758125 
L 982.393438 22.318125 
L 536.193438 22.318125 
z
" style="fill: #ffffff"/>
   </g>
   <g id="matplotlib.axis_3">
    <g id="xtick_7">
     <g id="line2d_42">
      <path d="M 536.193438 384.758125 
L 536.193438 22.318125 
" clip-path="url(#pc2a68d57b2)" style="fill: none; stroke: #b0b0b0; stroke-opacity: 0.3; stroke-width: 0.8; stroke-linecap: square"/>
     </g>
     <g id="line2d_43">
      <g>
       <use xlink:href="#ma6f5addc34" x="536.193438" y="384.758125" style="stroke: #000000; stroke-width: 0.8"/>
      </g>
     </g>
     <g id="text_24">
      <!-- 0.0 -->
      <g transform="translate(528.241875 399.356563) scale(0.1 -0.1)">
       <use xlink:href="#DejaVuSans-30"/>
       <use xlink:href="#DejaVuSans-2e" transform="translate(63.623047 0)"/>
       <use xlink:href="#DejaVuSans-30" transform="translate(95.410156 0)"/>
      </g>
     </g>
    </g>
    <g id="xtick_8">
     <g id="line2d_44">
      <path d="M 591.968438 384.758125 
L 591.968438 22.318125 
" clip-path="url(#pc2a68d57b2)" style="fill: none; stroke: #b0b0b0; stroke-opacity: 0.3; stroke-width: 0.8; stroke-linecap: square"/>
     </g>
     <g id="line2d_45">
      <g>
       <use xlink:href="#ma6f5addc34" x="591.968438" y="384.758125" style="stroke: #000000; stroke-width: 0.8"/>
      </g>
     </g>
     <g id="text_25">
      <!-- 2.5 -->
      <g transform="translate(584.016875 399.356563) scale(0.1 -0.1)">
       <use xlink:href="#DejaVuSans-32"/>
       <use xlink:href="#DejaVuSans-2e" transform="translate(63.623047 0)"/>
       <use xlink:href="#DejaVuSans-35" transform="translate(95.410156 0)"/>
      </g>
     </g>
    </g>
    <g id="xtick_9">
     <g id="line2d_46">
      <path d="M 647.743438 384.758125 
L 647.743438 22.318125 
" clip-path="url(#pc2a68d57b2)" style="fill: none; stroke: #b0b0b0; stroke-opacity: 0.3; stroke-width: 0.8; stroke-linecap: square"/>
     </g>
     <g id="line2d_47">
      <g>
       <use xlink:href="#ma6f5addc34" x="647.743438" y="384.758125" style="stroke: #000000; stroke-width: 0.8"/>
      </g>
     </g>
     <g id="text_26">
      <!-- 5.0 -->
      <g transform="translate(639.791875 399.356563) scale(0.1 -0.1)">
       <use xlink:href="#DejaVuSans-35"/>
       <use xlink:href="#DejaVuSans-2e" transform="translate(63.623047 0)"/>
       <use xlink:href="#DejaVuSans-30" transform="translate(95.410156 0)"/>
      </g>
     </g>
    </g>
    <g id="xtick_10">
     <g id="line2d_48">
      <path d="M 703.518438 384.758125 
L 703.518438 22.318125 
" clip-path="url(#pc2a68d57b2)" style="fill: none; stroke: #b0b0b0; stroke-opacity: 0.3; stroke-width: 0.8; stroke-linecap: square"/>
     </g>
     <g id="line2d_49">
      <g>
       <use xlink:href="#ma6f5addc34" x="703.518438" y="384.758125" style="stroke: #000000; stroke-width: 0.8"/>
      </g>
     </g>
     <g id="text_27">
      <!-- 7.5 -->
      <g transform="translate(695.566875 399.356563) scale(0.1 -0.1)">
       <use xlink:href="#DejaVuSans-37"/>
       <use xlink:href="#DejaVuSans-2e" transform="translate(63.623047 0)"/>
       <use xlink:href="#DejaVuSans-35" transform="translate(95.410156 0)"/>
      </g>
     </g>
    </g>
    <g id="xtick_11">
     <g id="line2d_50">
      <path d="M 759.293438 384.758125 
L 759.293438 22.318125 
" clip-path="url(#pc2a68d57b2)" style="fill: none; stroke: #b0b0b0; stroke-opacity: 0.3; stroke-width: 0.8; stroke-linecap: square"/>
     </g>
     <g id="line2d_51">
      <g>
       <use xlink:href="#ma6f5addc34" x="759.293438" y="384.758125" style="stroke: #000000; stroke-width: 0.8"/>
      </g>
     </g>
     <g id="text_28">
      <!-- 10.0 -->
      <g transform="translate(748.160625 399.356563) scale(0.1 -0.1)">
       <use xlink:href="#DejaVuSans-31"/>
       <use xlink:href="#DejaVuSans-30" transform="translate(63.623047 0)"/>
       <use xlink:href="#DejaVuSans-2e" transform="translate(127.246094 0)"/>
       <use xlink:href="#DejaVuSans-30" transform="translate(159.033203 0)"/>
      </g>
     </g>
    </g>
    <g id="xtick_12">
     <g id="line2d_52">
      <path d="M 815.068438 384.758125 
L 815.068438 22.318125 
" clip-path="url(#pc2a68d57b2)" style="fill: none; stroke: #b0b0b0; stroke-opacity: 0.3; stroke-width: 0.8; stroke-linecap: square"/>
     </g>
     <g id="line2d_53">
      <g>
       <use xlink:href="#ma6f5addc34" x="815.068438" y="384.758125" style="stroke: #000000; stroke-width: 0.8"/>
      </g>
     </g>
     <g id="text_29">
      <!-- 12.5 -->
      <g transform="translate(803.935625 399.356563) scale(0.1 -0.1)">
       <use xlink:href="#DejaVuSans-31"/>
       <use xlink:href="#DejaVuSans-32" transform="translate(63.623047 0)"/>
       <use xlink:href="#DejaVuSans-2e" transform="translate(127.246094 0)"/>
       <use xlink:href="#DejaVuSans-35" transform="translate(159.033203 0)"/>
      </g>
     </g>
    </g>
    <g id="xtick_13">
     <g id="line2d_54">
      <path d="M 870.843438 384.758125 
L 870.843438 22.318125 
" clip-path="url(#pc2a68d57b2)" style="fill: none; stroke: #b0b0b0; stroke-opacity: 0.3; stroke-width: 0.8; stroke-linecap: square"/>
     </g>
     <g id="line2d_55">
      <g>
       <use xlink:href="#ma6f5addc34" x="870.843438" y="384.758125" style="stroke: #000000; stroke-width: 0.8"/>
      </g>
     </g>
     <g id="text_30">
      <!-- 15.0 -->
      <g transform="translate(859.710625 399.356563) scale(0.1 -0.1)">
       <use xlink:href="#DejaVuSans-31"/>
       <use xlink:href="#DejaVuSans-35" transform="translate(63.623047 0)"/>
       <use xlink:href="#DejaVuSans-2e" transform="translate(127.246094 0)"/>
       <use xlink:href="#DejaVuSans-30" transform="translate(159.033203 0)"/>
      </g>
     </g>
    </g>
    <g id="xtick_14">
     <g id="line2d_56">
      <path d="M 926.618438 384.758125 
L 926.618438 22.318125 
" clip-path="url(#pc2a68d57b2)" style="fill: none; stroke: #b0b0b0; stroke-opacity: 0.3; stroke-width: 0.8; stroke-linecap: square"/>
     </g>
     <g id="line2d_57">
      <g>
       <use xlink:href="#ma6f5addc34" x="926.618438" y="384.758125" style="stroke: #000000; stroke-width: 0.8"/>
      </g>
     </g>
     <g id="text_31">
      <!-- 17.5 -->
      <g transform="translate(915.485625 399.356563) scale(0.1 -0.1)">
       <use xlink:href="#DejaVuSans-31"/>
       <use xlink:href="#DejaVuSans-37" transform="translate(63.623047 0)"/>
       <use xlink:href="#DejaVuSans-2e" transform="translate(127.246094 0)"/>
       <use xlink:href="#DejaVuSans-35" transform="translate(159.033203 0)"/>
      </g>
     </g>
    </g>
    <g id="xtick_15">
     <g id="line2d_58">
      <path d="M 982.393438 384.758125 
L 982.393438 22.318125 
" clip-path="url(#pc2a68d57b2)" style="fill: none; stroke: #b0b0b0; stroke-opacity: 0.3; stroke-width: 0.8; stroke-linecap: square"/>
     </g>
     <g id="line2d_59">
      <g>
       <use xlink:href="#ma6f5addc34" x="982.393438" y="384.758125" style="stroke: #000000; stroke-width: 0.8"/>
      </g>
     </g>
     <g id="text_32">
      <!-- 20.0 -->
      <g transform="translate(971.260625 399.356563) scale(0.1 -0.1)">
       <use xlink:href="#DejaVuSans-32"/>
       <use xlink:href="#DejaVuSans-30" transform="translate(63.623047 0)"/>
       <use xlink:href="#DejaVuSans-2e" transform="translate(127.246094 0)"/>
       <use xlink:href="#DejaVuSans-30" transform="translate(159.033203 0)"/>
      </g>
     </g>
    </g>
    <g id="text_33">
     <!-- SOSAC Weight (γ) -->
     <g transform="translate(710.167266 413.794531) scale(0.11 -0.11)">
      <defs>
       <path id="DejaVuSans-3b3" d="M 1128 2950 
L 1894 788 
L 2988 3500 
L 3597 3500 
L 2181 0 
L 2181 -1331 
L 1606 -1331 
L 1606 0 
L 688 2613 
Q 550 3006 253 3006 
L 100 3006 
L 100 3500 
L 319 3500 
Q 934 3500 1128 2950 
z
" transform="scale(0.015625)"/>
      </defs>
      <use xlink:href="#DejaVuSans-53"/>
      <use xlink:href="#DejaVuSans-4f" transform="translate(63.476562 0)"/>
      <use xlink:href="#DejaVuSans-53" transform="translate(142.1875 0)"/>
      <use xlink:href="#DejaVuSans-41" transform="translate(207.539062 0)"/>
      <use xlink:href="#DejaVuSans-43" transform="translate(274.197266 0)"/>
      <use xlink:href="#DejaVuSans-20" transform="translate(344.021484 0)"/>
      <use xlink:href="#DejaVuSans-57" transform="translate(375.808594 0)"/>
      <use xlink:href="#DejaVuSans-65" transform="translate(468.810547 0)"/>
      <use xlink:href="#DejaVuSans-69" transform="translate(530.333984 0)"/>
      <use xlink:href="#DejaVuSans-67" transform="translate(558.117188 0)"/>
      <use xlink:href="#DejaVuSans-68" transform="translate(621.59375 0)"/>
      <use xlink:href="#DejaVuSans-74" transform="translate(684.972656 0)"/>
      <use xlink:href="#DejaVuSans-20" transform="translate(724.181641 0)"/>
      <use xlink:href="#DejaVuSans-28" transform="translate(755.96875 0)"/>
      <use xlink:href="#DejaVuSans-3b3" transform="translate(794.982422 0)"/>
      <use xlink:href="#DejaVuSans-29" transform="translate(854.162109 0)"/>
     </g>
    </g>
   </g>
   <g id="matplotlib.axis_4">
    <g id="ytick_9">
     <g id="line2d_60">
      <path d="M 536.193438 384.758125 
L 982.393438 384.758125 
" clip-path="url(#pc2a68d57b2)" style="fill: none; stroke: #b0b0b0; stroke-opacity: 0.3; stroke-width: 0.8; stroke-linecap: square"/>
     </g>
     <g id="line2d_61">
      <g>
       <use xlink:href="#m1c2253439a" x="536.193438" y="384.758125" style="stroke: #000000; stroke-width: 0.8"/>
      </g>
     </g>
     <g id="text_34">
      <!-- 0.0 -->
      <g transform="translate(513.290313 388.557344) scale(0.1 -0.1)">
       <use xlink:href="#DejaVuSans-30"/>
       <use xlink:href="#DejaVuSans-2e" transform="translate(63.623047 0)"/>
       <use xlink:href="#DejaVuSans-30" transform="translate(95.410156 0)"/>
      </g>
     </g>
    </g>
    <g id="ytick_10">
     <g id="line2d_62">
      <path d="M 536.193438 336.432792 
L 982.393438 336.432792 
" clip-path="url(#pc2a68d57b2)" style="fill: none; stroke: #b0b0b0; stroke-opacity: 0.3; stroke-width: 0.8; stroke-linecap: square"/>
     </g>
     <g id="line2d_63">
      <g>
       <use xlink:href="#m1c2253439a" x="536.193438" y="336.432792" style="stroke: #000000; stroke-width: 0.8"/>
      </g>
     </g>
     <g id="text_35">
      <!-- 0.2 -->
      <g transform="translate(513.290313 340.23201) scale(0.1 -0.1)">
       <use xlink:href="#DejaVuSans-30"/>
       <use xlink:href="#DejaVuSans-2e" transform="translate(63.623047 0)"/>
       <use xlink:href="#DejaVuSans-32" transform="translate(95.410156 0)"/>
      </g>
     </g>
    </g>
    <g id="ytick_11">
     <g id="line2d_64">
      <path d="M 536.193438 288.107458 
L 982.393438 288.107458 
" clip-path="url(#pc2a68d57b2)" style="fill: none; stroke: #b0b0b0; stroke-opacity: 0.3; stroke-width: 0.8; stroke-linecap: square"/>
     </g>
     <g id="line2d_65">
      <g>
       <use xlink:href="#m1c2253439a" x="536.193438" y="288.107458" style="stroke: #000000; stroke-width: 0.8"/>
      </g>
     </g>
     <g id="text_36">
      <!-- 0.4 -->
      <g transform="translate(513.290313 291.906677) scale(0.1 -0.1)">
       <use xlink:href="#DejaVuSans-30"/>
       <use xlink:href="#DejaVuSans-2e" transform="translate(63.623047 0)"/>
       <use xlink:href="#DejaVuSans-34" transform="translate(95.410156 0)"/>
      </g>
     </g>
    </g>
    <g id="ytick_12">
     <g id="line2d_66">
      <path d="M 536.193438 239.782125 
L 982.393438 239.782125 
" clip-path="url(#pc2a68d57b2)" style="fill: none; stroke: #b0b0b0; stroke-opacity: 0.3; stroke-width: 0.8; stroke-linecap: square"/>
     </g>
     <g id="line2d_67">
      <g>
       <use xlink:href="#m1c2253439a" x="536.193438" y="239.782125" style="stroke: #000000; stroke-width: 0.8"/>
      </g>
     </g>
     <g id="text_37">
      <!-- 0.6 -->
      <g transform="translate(513.290313 243.581344) scale(0.1 -0.1)">
       <use xlink:href="#DejaVuSans-30"/>
       <use xlink:href="#DejaVuSans-2e" transform="translate(63.623047 0)"/>
       <use xlink:href="#DejaVuSans-36" transform="translate(95.410156 0)"/>
      </g>
     </g>
    </g>
    <g id="ytick_13">
     <g id="line2d_68">
      <path d="M 536.193438 191.456792 
L 982.393438 191.456792 
" clip-path="url(#pc2a68d57b2)" style="fill: none; stroke: #b0b0b0; stroke-opacity: 0.3; stroke-width: 0.8; stroke-linecap: square"/>
     </g>
     <g id="line2d_69">
      <g>
       <use xlink:href="#m1c2253439a" x="536.193438" y="191.456792" style="stroke: #000000; stroke-width: 0.8"/>
      </g>
     </g>
     <g id="text_38">
      <!-- 0.8 -->
      <g transform="translate(513.290313 195.25601) scale(0.1 -0.1)">
       <use xlink:href="#DejaVuSans-30"/>
       <use xlink:href="#DejaVuSans-2e" transform="translate(63.623047 0)"/>
       <use xlink:href="#DejaVuSans-38" transform="translate(95.410156 0)"/>
      </g>
     </g>
    </g>
    <g id="ytick_14">
     <g id="line2d_70">
      <path d="M 536.193438 143.131458 
L 982.393438 143.131458 
" clip-path="url(#pc2a68d57b2)" style="fill: none; stroke: #b0b0b0; stroke-opacity: 0.3; stroke-width: 0.8; stroke-linecap: square"/>
     </g>
     <g id="line2d_71">
      <g>
       <use xlink:href="#m1c2253439a" x="536.193438" y="143.131458" style="stroke: #000000; stroke-width: 0.8"/>
      </g>
     </g>
     <g id="text_39">
      <!-- 1.0 -->
      <g transform="translate(513.290313 146.930677) scale(0.1 -0.1)">
       <use xlink:href="#DejaVuSans-31"/>
       <use xlink:href="#DejaVuSans-2e" transform="translate(63.623047 0)"/>
       <use xlink:href="#DejaVuSans-30" transform="translate(95.410156 0)"/>
      </g>
     </g>
    </g>
    <g id="ytick_15">
     <g id="line2d_72">
      <path d="M 536.193438 94.806125 
L 982.393438 94.806125 
" clip-path="url(#pc2a68d57b2)" style="fill: none; stroke: #b0b0b0; stroke-opacity: 0.3; stroke-width: 0.8; stroke-linecap: square"/>
     </g>
     <g id="line2d_73">
      <g>
       <use xlink:href="#m1c2253439a" x="536.193438" y="94.806125" style="stroke: #000000; stroke-width: 0.8"/>
      </g>
     </g>
     <g id="text_40">
      <!-- 1.2 -->
      <g transform="translate(513.290313 98.605344) scale(0.1 -0.1)">
       <use xlink:href="#DejaVuSans-31"/>
       <use xlink:href="#DejaVuSans-2e" transform="translate(63.623047 0)"/>
       <use xlink:href="#DejaVuSans-32" transform="translate(95.410156 0)"/>
      </g>
     </g>
    </g>
    <g id="ytick_16">
     <g id="line2d_74">
      <path d="M 536.193438 46.480792 
L 982.393438 46.480792 
" clip-path="url(#pc2a68d57b2)" style="fill: none; stroke: #b0b0b0; stroke-opacity: 0.3; stroke-width: 0.8; stroke-linecap: square"/>
     </g>
     <g id="line2d_75">
      <g>
       <use xlink:href="#m1c2253439a" x="536.193438" y="46.480792" style="stroke: #000000; stroke-width: 0.8"/>
      </g>
     </g>
     <g id="text_41">
      <!-- 1.4 -->
      <g transform="translate(513.290313 50.28001) scale(0.1 -0.1)">
       <use xlink:href="#DejaVuSans-31"/>
       <use xlink:href="#DejaVuSans-2e" transform="translate(63.623047 0)"/>
       <use xlink:href="#DejaVuSans-34" transform="translate(95.410156 0)"/>
      </g>
     </g>
    </g>
    <g id="text_42">
     <!-- SOSAC/IUSAF Ratio (SIDS) -->
     <g transform="translate(507.002656 275.228047) rotate(-90) scale(0.11 -0.11)">
      <defs>
       <path id="DejaVuSans-44" d="M 1259 4147 
L 1259 519 
L 2022 519 
Q 2988 519 3436 956 
Q 3884 1394 3884 2338 
Q 3884 3275 3436 3711 
Q 2988 4147 2022 4147 
L 1259 4147 
z
M 628 4666 
L 1925 4666 
Q 3281 4666 3915 4102 
Q 4550 3538 4550 2338 
Q 4550 1131 3912 565 
Q 3275 0 1925 0 
L 628 0 
L 628 4666 
z
" transform="scale(0.015625)"/>
      </defs>
      <use xlink:href="#DejaVuSans-53"/>
      <use xlink:href="#DejaVuSans-4f" transform="translate(63.476562 0)"/>
      <use xlink:href="#DejaVuSans-53" transform="translate(142.1875 0)"/>
      <use xlink:href="#DejaVuSans-41" transform="translate(207.539062 0)"/>
      <use xlink:href="#DejaVuSans-43" transform="translate(274.197266 0)"/>
      <use xlink:href="#DejaVuSans-2f" transform="translate(344.021484 0)"/>
      <use xlink:href="#DejaVuSans-49" transform="translate(377.712891 0)"/>
      <use xlink:href="#DejaVuSans-55" transform="translate(407.205078 0)"/>
      <use xlink:href="#DejaVuSans-53" transform="translate(480.398438 0)"/>
      <use xlink:href="#DejaVuSans-41" transform="translate(545.75 0)"/>
      <use xlink:href="#DejaVuSans-46" transform="translate(614.158203 0)"/>
      <use xlink:href="#DejaVuSans-20" transform="translate(671.677734 0)"/>
      <use xlink:href="#DejaVuSans-52" transform="translate(703.464844 0)"/>
      <use xlink:href="#DejaVuSans-61" transform="translate(770.697266 0)"/>
      <use xlink:href="#DejaVuSans-74" transform="translate(831.976562 0)"/>
      <use xlink:href="#DejaVuSans-69" transform="translate(871.185547 0)"/>
      <use xlink:href="#DejaVuSans-6f" transform="translate(898.96875 0)"/>
      <use xlink:href="#DejaVuSans-20" transform="translate(960.150391 0)"/>
      <use xlink:href="#DejaVuSans-28" transform="translate(991.9375 0)"/>
      <use xlink:href="#DejaVuSans-53" transform="translate(1030.951172 0)"/>
      <use xlink:href="#DejaVuSans-49" transform="translate(1094.427734 0)"/>
      <use xlink:href="#DejaVuSans-44" transform="translate(1123.919922 0)"/>
      <use xlink:href="#DejaVuSans-53" transform="translate(1200.921875 0)"/>
      <use xlink:href="#DejaVuSans-29" transform="translate(1264.398438 0)"/>
     </g>
    </g>
   </g>
   <g id="line2d_76">
    <path d="M 547.348438 378.991883 
L 558.503438 373.167397 
L 569.658438 367.283778 
L 580.813438 361.340123 
L 591.968438 355.335507 
L 603.123438 349.268988 
L 614.278438 343.139603 
L 625.433438 336.946371 
L 636.588438 330.688288 
L 647.743438 324.36433 
L 658.898438 317.973452 
L 670.053438 311.514586 
L 681.208438 304.986642 
L 692.363438 298.388504 
L 703.518438 291.719035 
L 714.673438 284.977072 
L 725.828438 278.161427 
L 736.983438 271.270884 
L 748.138438 264.304202 
L 759.293438 257.260113 
" clip-path="url(#pc2a68d57b2)" style="fill: none; stroke: #378add; stroke-width: 2; stroke-linecap: square"/>
    <defs>
     <path id="m9b175f28e9" d="M 0 2 
C 0.530406 2 1.03916 1.789267 1.414214 1.414214 
C 1.789267 1.03916 2 0.530406 2 0 
C 2 -0.530406 1.789267 -1.03916 1.414214 -1.414214 
C 1.03916 -1.789267 0.530406 -2 0 -2 
C -0.530406 -2 -1.03916 -1.789267 -1.414214 -1.414214 
C -1.789267 -1.03916 -2 -0.530406 -2 0 
C -2 0.530406 -1.789267 1.03916 -1.414214 1.414214 
C -1.03916 1.789267 -0.530406 2 0 2 
z
" style="stroke: #378add"/>
    </defs>
    <g clip-path="url(#pc2a68d57b2)">
     <use xlink:href="#m9b175f28e9" x="547.348438" y="378.991883" style="fill: #378add; stroke: #378add"/>
     <use xlink:href="#m9b175f28e9" x="558.503438" y="373.167397" style="fill: #378add; stroke: #378add"/>
     <use xlink:href="#m9b175f28e9" x="569.658438" y="367.283778" style="fill: #378add; stroke: #378add"/>
     <use xlink:href="#m9b175f28e9" x="580.813438" y="361.340123" style="fill: #378add; stroke: #378add"/>
     <use xlink:href="#m9b175f28e9" x="591.968438" y="355.335507" style="fill: #378add; stroke: #378add"/>
     <use xlink:href="#m9b175f28e9" x="603.123438" y="349.268988" style="fill: #378add; stroke: #378add"/>
     <use xlink:href="#m9b175f28e9" x="614.278438" y="343.139603" style="fill: #378add; stroke: #378add"/>
     <use xlink:href="#m9b175f28e9" x="625.433438" y="336.946371" style="fill: #378add; stroke: #378add"/>
     <use xlink:href="#m9b175f28e9" x="636.588438" y="330.688288" style="fill: #378add; stroke: #378add"/>
     <use xlink:href="#m9b175f28e9" x="647.743438" y="324.36433" style="fill: #378add; stroke: #378add"/>
     <use xlink:href="#m9b175f28e9" x="658.898438" y="317.973452" style="fill: #378add; stroke: #378add"/>
     <use xlink:href="#m9b175f28e9" x="670.053438" y="311.514586" style="fill: #378add; stroke: #378add"/>
     <use xlink:href="#m9b175f28e9" x="681.208438" y="304.986642" style="fill: #378add; stroke: #378add"/>
     <use xlink:href="#m9b175f28e9" x="692.363438" y="298.388504" style="fill: #378add; stroke: #378add"/>
     <use xlink:href="#m9b175f28e9" x="703.518438" y="291.719035" style="fill: #378add; stroke: #378add"/>
     <use xlink:href="#m9b175f28e9" x="714.673438" y="284.977072" style="fill: #378add; stroke: #378add"/>
     <use xlink:href="#m9b175f28e9" x="725.828438" y="278.161427" style="fill: #378add; stroke: #378add"/>
     <use xlink:href="#m9b175f28e9" x="736.983438" y="271.270884" style="fill: #378add; stroke: #378add"/>
     <use xlink:href="#m9b175f28e9" x="748.138438" y="264.304202" style="fill: #378add; stroke: #378add"/>
     <use xlink:href="#m9b175f28e9" x="759.293438" y="257.260113" style="fill: #378add; stroke: #378add"/>
    </g>
   </g>
   <g id="line2d_77">
    <path d="M 924.439727 384.758125 
L 924.439727 22.318125 
" clip-path="url(#pc2a68d57b2)" style="fill: none; stroke: #ef4444; stroke-width: 2; stroke-linecap: square"/>
   </g>
   <g id="line2d_78">
    <path d="M 536.193438 143.131458 
L 982.393438 143.131458 
" clip-path="url(#pc2a68d57b2)" style="fill: none; stroke: #333333; stroke-opacity: 0.5; stroke-linecap: square"/>
   </g>
   <g id="patch_9">
    <path d="M 536.193438 384.758125 
L 536.193438 22.318125 
" style="fill: none; stroke: #000000; stroke-width: 0.8; stroke-linejoin: miter; stroke-linecap: square"/>
   </g>
   <g id="patch_10">
    <path d="M 982.393438 384.758125 
L 982.393438 22.318125 
" style="fill: none; stroke: #000000; stroke-width: 0.8; stroke-linejoin: miter; stroke-linecap: square"/>
   </g>
   <g id="patch_11">
    <path d="M 536.193438 384.758125 
L 982.393438 384.758125 
" style="fill: none; stroke: #000000; stroke-width: 0.8; stroke-linejoin: miter; stroke-linecap: square"/>
   </g>
   <g id="patch_12">
    <path d="M 536.193438 22.318125 
L 982.393438 22.318125 
" style="fill: none; stroke: #000000; stroke-width: 0.8; stroke-linejoin: miter; stroke-linecap: square"/>
   </g>
   <g id="text_43">
    <!-- SOSAC Component vs IUSAF Baseline (SIDS) -->
    <g transform="translate(609.67875 16.318125) scale(0.12 -0.12)">
     <defs>
      <path id="DejaVuSans-Bold-4f" d="M 2719 3878 
Q 2169 3878 1866 3472 
Q 1563 3066 1563 2328 
Q 1563 1594 1866 1187 
Q 2169 781 2719 781 
Q 3272 781 3575 1187 
Q 3878 1594 3878 2328 
Q 3878 3066 3575 3472 
Q 3272 3878 2719 3878 
z
M 2719 4750 
Q 3844 4750 4481 4106 
Q 5119 3463 5119 2328 
Q 5119 1197 4481 553 
Q 3844 -91 2719 -91 
Q 1597 -91 958 553 
Q 319 1197 319 2328 
Q 319 3463 958 4106 
Q 1597 4750 2719 4750 
z
" transform="scale(0.015625)"/>
      <path id="DejaVuSans-Bold-28" d="M 2413 -844 
L 1484 -844 
Q 1006 -72 778 623 
Q 550 1319 550 2003 
Q 550 2688 779 3389 
Q 1009 4091 1484 4856 
L 2413 4856 
Q 2013 4116 1813 3408 
Q 1613 2700 1613 2009 
Q 1613 1319 1811 609 
Q 2009 -100 2413 -844 
z
" transform="scale(0.015625)"/>
      <path id="DejaVuSans-Bold-44" d="M 1791 3756 
L 1791 909 
L 2222 909 
Q 2959 909 3348 1275 
Q 3738 1641 3738 2338 
Q 3738 3031 3350 3393 
Q 2963 3756 2222 3756 
L 1791 3756 
z
M 588 4666 
L 1856 4666 
Q 2919 4666 3439 4514 
Q 3959 4363 4331 4000 
Q 4659 3684 4818 3271 
Q 4978 2859 4978 2338 
Q 4978 1809 4818 1395 
Q 4659 981 4331 666 
Q 3956 303 3431 151 
Q 2906 0 1856 0 
L 588 0 
L 588 4666 
z
" transform="scale(0.015625)"/>
      <path id="DejaVuSans-Bold-29" d="M 513 -844 
Q 913 -100 1113 609 
Q 1313 1319 1313 2009 
Q 1313 2700 1113 3408 
Q 913 4116 513 4856 
L 1441 4856 
Q 1916 4091 2145 3389 
Q 2375 2688 2375 2003 
Q 2375 1319 2147 623 
Q 1919 -72 1441 -844 
L 513 -844 
z
" transform="scale(0.015625)"/>
     </defs>
     <use xlink:href="#DejaVuSans-Bold-53"/>
     <use xlink:href="#DejaVuSans-Bold-4f" transform="translate(72.021484 0)"/>
     <use xlink:href="#DejaVuSans-Bold-53" transform="translate(157.03125 0)"/>
     <use xlink:href="#DejaVuSans-Bold-41" transform="translate(229.052734 0)"/>
     <use xlink:href="#DejaVuSans-Bold-43" transform="translate(306.445312 0)"/>
     <use xlink:href="#DejaVuSans-Bold-20" transform="translate(379.833984 0)"/>
     <use xlink:href="#DejaVuSans-Bold-43" transform="translate(414.648438 0)"/>
     <use xlink:href="#DejaVuSans-Bold-6f" transform="translate(488.037109 0)"/>
     <use xlink:href="#DejaVuSans-Bold-6d" transform="translate(556.738281 0)"/>
     <use xlink:href="#DejaVuSans-Bold-70" transform="translate(660.9375 0)"/>
     <use xlink:href="#DejaVuSans-Bold-6f" transform="translate(732.519531 0)"/>
     <use xlink:href="#DejaVuSans-Bold-6e" transform="translate(801.220703 0)"/>
     <use xlink:href="#DejaVuSans-Bold-65" transform="translate(872.412109 0)"/>
     <use xlink:href="#DejaVuSans-Bold-6e" transform="translate(940.234375 0)"/>
     <use xlink:href="#DejaVuSans-Bold-74" transform="translate(1011.425781 0)"/>
     <use xlink:href="#DejaVuSans-Bold-20" transform="translate(1059.228516 0)"/>
     <use xlink:href="#DejaVuSans-Bold-76" transform="translate(1094.042969 0)"/>
     <use xlink:href="#DejaVuSans-Bold-73" transform="translate(1159.228516 0)"/>
     <use xlink:href="#DejaVuSans-Bold-20" transform="translate(1218.75 0)"/>
     <use xlink:href="#DejaVuSans-Bold-49" transform="translate(1253.564453 0)"/>
     <use xlink:href="#DejaVuSans-Bold-55" transform="translate(1290.771484 0)"/>
     <use xlink:href="#DejaVuSans-Bold-53" transform="translate(1371.972656 0)"/>
     <use xlink:href="#DejaVuSans-Bold-41" transform="translate(1443.994141 0)"/>
     <use xlink:href="#DejaVuSans-Bold-46" transform="translate(1521.386719 0)"/>
     <use xlink:href="#DejaVuSans-Bold-20" transform="translate(1589.697266 0)"/>
     <use xlink:href="#DejaVuSans-Bold-42" transform="translate(1624.511719 0)"/>
     <use xlink:href="#DejaVuSans-Bold-61" transform="translate(1700.732422 0)"/>
     <use xlink:href="#DejaVuSans-Bold-73" transform="translate(1768.212891 0)"/>
     <use xlink:href="#DejaVuSans-Bold-65" transform="translate(1827.734375 0)"/>
     <use xlink:href="#DejaVuSans-Bold-6c" transform="translate(1895.556641 0)"/>
     <use xlink:href="#DejaVuSans-Bold-69" transform="translate(1929.833984 0)"/>
     <use xlink:href="#DejaVuSans-Bold-6e" transform="translate(1964.111328 0)"/>
     <use xlink:href="#DejaVuSans-Bold-65" transform="translate(2035.302734 0)"/>
     <use xlink:href="#DejaVuSans-Bold-20" transform="translate(2103.125 0)"/>
     <use xlink:href="#DejaVuSans-Bold-28" transform="translate(2137.939453 0)"/>
     <use xlink:href="#DejaVuSans-Bold-53" transform="translate(2183.642578 0)"/>
     <use xlink:href="#DejaVuSans-Bold-49" transform="translate(2255.664062 0)"/>
     <use xlink:href="#DejaVuSans-Bold-44" transform="translate(2292.871094 0)"/>
     <use xlink:href="#DejaVuSans-Bold-53" transform="translate(2375.878906 0)"/>
     <use xlink:href="#DejaVuSans-Bold-29" transform="translate(2447.900391 0)"/>
    </g>
   </g>
   <g id="legend_2">
    <g id="patch_13">
     <path d="M 542.493438 55.93875 
L 689.445156 55.93875 
Q 691.245156 55.93875 691.245156 54.13875 
L 691.245156 28.618125 
Q 691.245156 26.818125 689.445156 26.818125 
L 542.493438 26.818125 
Q 540.693438 26.818125 540.693438 28.618125 
L 540.693438 54.13875 
Q 540.693438 55.93875 542.493438 55.93875 
z
" style="fill: #ffffff; opacity: 0.8; stroke: #cccccc; stroke-linejoin: miter"/>
    </g>
    <g id="line2d_79">
     <path d="M 544.293438 34.106719 
L 553.293438 34.106719 
L 562.293438 34.106719 
" style="fill: none; stroke: #378add; stroke-width: 2; stroke-linecap: square"/>
     <g>
      <use xlink:href="#m9b175f28e9" x="553.293438" y="34.106719" style="fill: #378add; stroke: #378add"/>
     </g>
    </g>
    <g id="text_44">
     <!-- Max SIDS ratio -->
     <g transform="translate(569.493438 37.256719) scale(0.09 -0.09)">
      <defs>
       <path id="DejaVuSans-4d" d="M 628 4666 
L 1569 4666 
L 2759 1491 
L 3956 4666 
L 4897 4666 
L 4897 0 
L 4281 0 
L 4281 4097 
L 3078 897 
L 2444 897 
L 1241 4097 
L 1241 0 
L 628 0 
L 628 4666 
z
" transform="scale(0.015625)"/>
       <path id="DejaVuSans-78" d="M 3513 3500 
L 2247 1797 
L 3578 0 
L 2900 0 
L 1881 1375 
L 863 0 
L 184 0 
L 1544 1831 
L 300 3500 
L 978 3500 
L 1906 2253 
L 2834 3500 
L 3513 3500 
z
" transform="scale(0.015625)"/>
      </defs>
      <use xlink:href="#DejaVuSans-4d"/>
      <use xlink:href="#DejaVuSans-61" transform="translate(86.279297 0)"/>
      <use xlink:href="#DejaVuSans-78" transform="translate(147.558594 0)"/>
      <use xlink:href="#DejaVuSans-20" transform="translate(206.738281 0)"/>
      <use xlink:href="#DejaVuSans-53" transform="translate(238.525391 0)"/>
      <use xlink:href="#DejaVuSans-49" transform="translate(302.001953 0)"/>
      <use xlink:href="#DejaVuSans-44" transform="translate(331.494141 0)"/>
      <use xlink:href="#DejaVuSans-53" transform="translate(408.496094 0)"/>
      <use xlink:href="#DejaVuSans-20" transform="translate(471.972656 0)"/>
      <use xlink:href="#DejaVuSans-72" transform="translate(503.759766 0)"/>
      <use xlink:href="#DejaVuSans-61" transform="translate(544.873047 0)"/>
      <use xlink:href="#DejaVuSans-74" transform="translate(606.152344 0)"/>
      <use xlink:href="#DejaVuSans-69" transform="translate(645.361328 0)"/>
      <use xlink:href="#DejaVuSans-6f" transform="translate(673.144531 0)"/>
     </g>
    </g>
    <g id="line2d_80">
     <path d="M 544.293438 47.317031 
L 553.293438 47.317031 
L 562.293438 47.317031 
" style="fill: none; stroke: #ef4444; stroke-width: 2; stroke-linecap: square"/>
    </g>
    <g id="text_45">
     <!-- SOSAC Overturn (17.40%) -->
     <g transform="translate(569.493438 50.467031) scale(0.09 -0.09)">
      <use xlink:href="#DejaVuSans-53"/>
      <use xlink:href="#DejaVuSans-4f" transform="translate(63.476562 0)"/>
      <use xlink:href="#DejaVuSans-53" transform="translate(142.1875 0)"/>
      <use xlink:href="#DejaVuSans-41" transform="translate(207.539062 0)"/>
      <use xlink:href="#DejaVuSans-43" transform="translate(274.197266 0)"/>
      <use xlink:href="#DejaVuSans-20" transform="translate(344.021484 0)"/>
      <use xlink:href="#DejaVuSans-4f" transform="translate(375.808594 0)"/>
      <use xlink:href="#DejaVuSans-76" transform="translate(454.519531 0)"/>
      <use xlink:href="#DejaVuSans-65" transform="translate(513.699219 0)"/>
      <use xlink:href="#DejaVuSans-72" transform="translate(575.222656 0)"/>
      <use xlink:href="#DejaVuSans-74" transform="translate(616.335938 0)"/>
      <use xlink:href="#DejaVuSans-75" transform="translate(655.544922 0)"/>
      <use xlink:href="#DejaVuSans-72" transform="translate(718.923828 0)"/>
      <use xlink:href="#DejaVuSans-6e" transform="translate(758.287109 0)"/>
      <use xlink:href="#DejaVuSans-20" transform="translate(821.666016 0)"/>
      <use xlink:href="#DejaVuSans-28" transform="translate(853.453125 0)"/>
      <use xlink:href="#DejaVuSans-31" transform="translate(892.466797 0)"/>
      <use xlink:href="#DejaVuSans-37" transform="translate(956.089844 0)"/>
      <use xlink:href="#DejaVuSans-2e" transform="translate(1019.712891 0)"/>
      <use xlink:href="#DejaVuSans-34" transform="translate(1051.5 0)"/>
      <use xlink:href="#DejaVuSans-30" transform="translate(1115.123047 0)"/>
      <use xlink:href="#DejaVuSans-25" transform="translate(1178.746094 0)"/>
      <use xlink:href="#DejaVuSans-29" transform="translate(1273.765625 0)"/>
     </g>
    </g>
   </g>
  </g>
 </g>
 <defs>
  <clipPath id="p9f994330e8">
   <rect x="35.208438" y="22.318125" width="446.2" height="362.44"/>
  </clipPath>
  <clipPath id="pc2a68d57b2">
   <rect x="536.193438" y="22.318125" width="446.2" height="362.44"/>
  </clipPath>
 </defs>
</svg>
